STARTFONT 2.1
FONT taipei16
SIZE 15 75 75
FONTBOUNDINGBOX 16 15 0 -2

STARTPROPERTIES 10
COPYRIGHT "Public Domain"
POINT_SIZE 150
WEIGHT 10
RESOLUTION_X 75
RESOLUTION_Y 75
X_HEIGHT -1
QUAD_WIDTH 16
DEFAULT_CHAR 41280
FONT_DESCENT 2
FONT_ASCENT 13
ENDPROPERTIES

CHARS 13503

STARTCHAR a140
ENCODING 41280
SWIDTH 481 0
DWIDTH 16 0
BBX 16 15 0 -2
BITMAP
0000
0000
0000
0000
0000
0000
0000
0000
0000
0000
0000
0000
0000
0000
0000
ENDCHAR

STARTCHAR a141
ENCODING 41281
SWIDTH 481 0
DWIDTH 16 0
BBX 16 15 0 -2
BITMAP
0000
0000
0000
0000
0000
0000
0000
0000
0C00
1E00
1E00
0C00
0800
1000
2000
ENDCHAR

STARTCHAR a142
ENCODING 41282
SWIDTH 481 0
DWIDTH 16 0
BBX 16 15 0 -2
BITMAP
0000
0000
0000
0000
0000
0000
0000
0000
0000
0000
4000
3000
3800
1C00
0C00
ENDCHAR

STARTCHAR a143
ENCODING 41283
SWIDTH 481 0
DWIDTH 16 0
BBX 16 15 0 -2
BITMAP
0000
0000
0000
0000
0000
0000
0000
0000
0000
0000
3C00
4200
4200
4200
3C00
ENDCHAR

STARTCHAR a144
ENCODING 41284
SWIDTH 481 0
DWIDTH 16 0
BBX 16 15 0 -2
BITMAP
0000
0000
0000
0000
0000
0000
0000
0000
0000
0000
0000
1800
3C00
1800
0000
ENDCHAR

STARTCHAR a145
ENCODING 41285
SWIDTH 481 0
DWIDTH 16 0
BBX 16 15 0 -2
BITMAP
0000
0000
0000
0000
0000
0180
03C0
03C0
0180
0000
0000
0000
0000
0000
0000
ENDCHAR

STARTCHAR a146
ENCODING 41286
SWIDTH 481 0
DWIDTH 16 0
BBX 16 15 0 -2
BITMAP
0000
0000
0000
0180
03C0
0180
0000
0000
0180
03C0
01C0
00C0
0380
0000
0000
ENDCHAR

STARTCHAR a147
ENCODING 41287
SWIDTH 481 0
DWIDTH 16 0
BBX 16 15 0 -2
BITMAP
0000
0000
0000
0180
03C0
0180
0000
0000
0180
03C0
0180
0000
0000
0000
0000
ENDCHAR

STARTCHAR a148
ENCODING 41288
SWIDTH 481 0
DWIDTH 16 0
BBX 16 15 0 -2
BITMAP
03C0
07E0
0E70
1C70
1C70
08E0
00C0
0180
0180
0100
0100
0000
0100
0380
0380
ENDCHAR

STARTCHAR a149
ENCODING 41289
SWIDTH 481 0
DWIDTH 16 0
BBX 16 15 0 -2
BITMAP
0380
07C0
07C0
07C0
07C0
0380
0380
0380
0100
0100
0000
0100
0380
0380
0100
ENDCHAR

STARTCHAR a14a
ENCODING 41290
SWIDTH 481 0
DWIDTH 16 0
BBX 16 15 0 -2
BITMAP
0000
0000
0180
03C0
03C0
0180
0000
0000
0180
03C0
03C0
0180
0000
0000
0000
ENDCHAR

STARTCHAR a14b
ENCODING 41291
SWIDTH 481 0
DWIDTH 16 0
BBX 16 15 0 -2
BITMAP
0000
0000
0000
0000
0000
6318
F7BC
6318
0000
0000
0000
0000
0000
0000
0000
ENDCHAR

STARTCHAR a14c
ENCODING 41292
SWIDTH 481 0
DWIDTH 16 0
BBX 16 15 0 -2
BITMAP
0000
0000
0000
0000
0000
0C30
1E78
0C30
0000
0000
0000
0000
0000
0000
0000
ENDCHAR

STARTCHAR a14d
ENCODING 41293
SWIDTH 481 0
DWIDTH 16 0
BBX 16 15 0 -2
BITMAP
0000
0000
0000
0000
0000
0000
0000
0000
0000
0000
3000
7800
3800
1000
2000
ENDCHAR

STARTCHAR a14e
ENCODING 41294
SWIDTH 481 0
DWIDTH 16 0
BBX 16 15 0 -2
BITMAP
0000
0000
0000
0000
0000
0000
0000
0000
0000
0000
2000
1000
1800
1C00
0C00
ENDCHAR

STARTCHAR a14f
ENCODING 41295
SWIDTH 481 0
DWIDTH 16 0
BBX 16 15 0 -2
BITMAP
0000
0000
0000
0000
0000
0000
0000
0000
0000
0000
0000
1800
3C00
1800
0000
ENDCHAR

STARTCHAR a150
ENCODING 41296
SWIDTH 481 0
DWIDTH 16 0
BBX 16 15 0 -2
BITMAP
0000
0000
0000
0000
3000
7800
7800
3000
0000
0000
0000
0000
0000
0000
0000
ENDCHAR

STARTCHAR a151
ENCODING 41297
SWIDTH 481 0
DWIDTH 16 0
BBX 16 15 0 -2
BITMAP
0000
0000
0000
0180
0180
0000
0000
0000
0180
03C0
00C0
0080
0100
0000
0000
ENDCHAR

STARTCHAR a152
ENCODING 41298
SWIDTH 481 0
DWIDTH 16 0
BBX 16 15 0 -2
BITMAP
0000
0000
0000
0180
0180
0000
0000
0000
0000
0180
0180
0000
0000
0000
0000
ENDCHAR

STARTCHAR a153
ENCODING 41299
SWIDTH 481 0
DWIDTH 16 0
BBX 16 15 0 -2
BITMAP
0000
0000
03C0
0660
0660
00C0
0180
0180
0180
0000
0180
0180
0000
0000
0000
ENDCHAR

STARTCHAR a154
ENCODING 41300
SWIDTH 481 0
DWIDTH 16 0
BBX 16 15 0 -2
BITMAP
0000
0300
0300
0300
0300
0300
0300
0300
0300
0000
0000
0300
0300
0000
0000
ENDCHAR

STARTCHAR a155
ENCODING 41301
SWIDTH 481 0
DWIDTH 16 0
BBX 16 15 0 -2
BITMAP
0180
0180
0180
0180
0180
0180
0180
0180
0180
0180
0180
0180
0180
0180
0180
ENDCHAR

STARTCHAR a156
ENCODING 41302
SWIDTH 481 0
DWIDTH 16 0
BBX 16 15 0 -2
BITMAP
0000
0000
0000
0000
0000
0000
1FFC
1FFC
0000
0000
0000
0000
0000
0000
0000
ENDCHAR

STARTCHAR a157
ENCODING 41303
SWIDTH 481 0
DWIDTH 16 0
BBX 16 15 0 -2
BITMAP
0100
0100
0100
0100
0100
0100
0100
0100
0100
0100
0100
0100
0100
0100
0100
ENDCHAR

STARTCHAR a158
ENCODING 41304
SWIDTH 481 0
DWIDTH 16 0
BBX 16 15 0 -2
BITMAP
0000
0000
0000
0000
0000
0000
0000
1FFC
0000
0000
0000
0000
0000
0000
0000
ENDCHAR

STARTCHAR a159
ENCODING 41305
SWIDTH 481 0
DWIDTH 16 0
BBX 16 15 0 -2
BITMAP
4000
4000
4000
4000
4000
4000
4000
4000
4000
4000
4000
4000
4000
4000
4000
ENDCHAR

STARTCHAR a15a
ENCODING 41306
SWIDTH 481 0
DWIDTH 16 0
BBX 16 15 0 -2
BITMAP
0000
0000
0000
0000
0000
0000
0000
0000
0000
0000
0000
0000
0000
0000
FFFF
ENDCHAR

STARTCHAR a15b
ENCODING 41307
SWIDTH 481 0
DWIDTH 16 0
BBX 16 15 0 -2
BITMAP
3000
1800
1800
3000
6000
3000
1800
1800
3000
6000
3000
1800
1800
3000
6000
ENDCHAR

STARTCHAR a15c
ENCODING 41308
SWIDTH 481 0
DWIDTH 16 0
BBX 16 15 0 -2
BITMAP
0000
0000
0000
0000
0000
0000
0000
0000
0000
0000
2184
73CE
DEFB
8C61
0000
ENDCHAR

STARTCHAR a15d
ENCODING 41309
SWIDTH 481 0
DWIDTH 16 0
BBX 16 15 0 -2
BITMAP
0002
0004
000C
0008
0018
0018
0018
0018
0018
0018
0008
000C
0004
0002
0001
ENDCHAR

STARTCHAR a15e
ENCODING 41310
SWIDTH 481 0
DWIDTH 16 0
BBX 16 15 0 -2
BITMAP
4000
2000
3000
1000
1800
1800
1800
1800
1800
1800
1000
3000
2000
4000
8000
ENDCHAR

STARTCHAR a15f
ENCODING 41311
SWIDTH 481 0
DWIDTH 16 0
BBX 16 15 0 -2
BITMAP
0000
0000
0000
0000
0000
0000
0000
0FF0
3FFC
6006
4002
8001
0000
0000
0000
ENDCHAR

STARTCHAR a160
ENCODING 41312
SWIDTH 481 0
DWIDTH 16 0
BBX 16 15 0 -2
BITMAP
0000
0000
8001
4002
6006
381C
1FF8
07E0
0000
0000
0000
0000
0000
0000
0000
ENDCHAR

STARTCHAR a161
ENCODING 41313
SWIDTH 481 0
DWIDTH 16 0
BBX 16 15 0 -2
BITMAP
000F
001C
0018
0018
0018
0018
0018
0070
0010
0018
0018
0018
0018
001C
000F
ENDCHAR

STARTCHAR a162
ENCODING 41314
SWIDTH 481 0
DWIDTH 16 0
BBX 16 15 0 -2
BITMAP
F000
3800
1800
1800
1800
1800
1800
0E00
1800
1800
1800
1800
1800
3800
F000
ENDCHAR

STARTCHAR a163
ENCODING 41315
SWIDTH 481 0
DWIDTH 16 0
BBX 16 15 0 -2
BITMAP
0000
0000
0000
0000
0000
0000
0000
0180
3FFC
7E7E
C003
8001
0000
0000
0000
ENDCHAR

STARTCHAR a164
ENCODING 41316
SWIDTH 481 0
DWIDTH 16 0
BBX 16 15 0 -2
BITMAP
0000
0000
8001
C003
7E7E
3FFC
0180
0000
0000
0000
0000
0000
0000
0000
0000
ENDCHAR

STARTCHAR a165
ENCODING 41317
SWIDTH 481 0
DWIDTH 16 0
BBX 16 15 0 -2
BITMAP
000E
0018
0030
0030
0030
0030
0030
0030
0030
0030
0030
0030
0030
0018
000E
ENDCHAR

STARTCHAR a166
ENCODING 41318
SWIDTH 481 0
DWIDTH 16 0
BBX 16 15 0 -2
BITMAP
7000
1800
0C00
0C00
0C00
0C00
0C00
0C00
0C00
0C00
0C00
0C00
0C00
1800
7000
ENDCHAR

STARTCHAR a167
ENCODING 41319
SWIDTH 481 0
DWIDTH 16 0
BBX 16 15 0 -2
BITMAP
0000
0000
0000
0000
0000
0000
0000
3FF8
7FFC
C006
8002
8002
0000
0000
0000
ENDCHAR

STARTCHAR a168
ENCODING 41320
SWIDTH 481 0
DWIDTH 16 0
BBX 16 15 0 -2
BITMAP
0000
0000
0000
8002
8002
C006
7FFC
3FF8
0000
0000
0000
0000
0000
0000
0000
ENDCHAR

STARTCHAR a169
ENCODING 41321
SWIDTH 481 0
DWIDTH 16 0
BBX 16 15 0 -2
BITMAP
007E
007C
0078
0070
0070
0060
0060
0060
0060
0060
0070
0070
0078
007C
007E
ENDCHAR

STARTCHAR a16a
ENCODING 41322
SWIDTH 481 0
DWIDTH 16 0
BBX 16 15 0 -2
BITMAP
7E00
3E00
1E00
1E00
0E00
0E00
0E00
0E00
0E00
0E00
0E00
1E00
1E00
3E00
7E00
ENDCHAR

STARTCHAR a16b
ENCODING 41323
SWIDTH 481 0
DWIDTH 16 0
BBX 16 15 0 -2
BITMAP
0000
0000
0000
0000
0000
0000
0000
FFFE
FFFE
FFFE
F01E
C006
8002
0000
0000
ENDCHAR

STARTCHAR a16c
ENCODING 41324
SWIDTH 481 0
DWIDTH 16 0
BBX 16 15 0 -2
BITMAP
0000
0000
8002
C006
F01E
FFFE
FFFE
FFFE
0000
0000
0000
0000
0000
0000
0000
ENDCHAR

STARTCHAR a16d
ENCODING 41325
SWIDTH 481 0
DWIDTH 16 0
BBX 16 15 0 -2
BITMAP
006C
00D8
01B0
0360
06C0
0D80
1B00
1B00
0D80
06C0
0360
01B0
00D8
006C
0036
ENDCHAR

STARTCHAR a16e
ENCODING 41326
SWIDTH 481 0
DWIDTH 16 0
BBX 16 15 0 -2
BITMAP
3600
1B00
0D80
06C0
0360
01B0
00D8
00D8
01B0
0360
06C0
0D80
1B00
3600
6C00
ENDCHAR

STARTCHAR a16f
ENCODING 41327
SWIDTH 481 0
DWIDTH 16 0
BBX 16 15 0 -2
BITMAP
0000
0000
0380
07C0
0C60
1BB0
37D8
6C6C
D836
B01A
600C
C006
8002
0000
0000
ENDCHAR

STARTCHAR a170
ENCODING 41328
SWIDTH 481 0
DWIDTH 16 0
BBX 16 15 0 -2
BITMAP
0000
8002
C006
600C
B01A
D836
6C6C
37D8
1BB0
0C60
07C0
0380
0000
0000
0000
ENDCHAR

STARTCHAR a171
ENCODING 41329
SWIDTH 481 0
DWIDTH 16 0
BBX 16 15 0 -2
BITMAP
0002
0004
0004
0008
0008
0010
0010
0020
0010
0010
0008
0008
0004
0004
0002
ENDCHAR

STARTCHAR a172
ENCODING 41330
SWIDTH 481 0
DWIDTH 16 0
BBX 16 15 0 -2
BITMAP
4000
2000
2000
1000
1000
0800
0800
0400
0800
0800
1000
1000
2000
2000
4000
ENDCHAR

STARTCHAR a173
ENCODING 41331
SWIDTH 481 0
DWIDTH 16 0
BBX 16 15 0 -2
BITMAP
0000
0000
0000
0000
0000
0000
0000
0100
0380
06C0
0C60
3838
E00E
0000
0000
ENDCHAR

STARTCHAR a174
ENCODING 41332
SWIDTH 481 0
DWIDTH 16 0
BBX 16 15 0 -2
BITMAP
0000
0000
E00E
3838
0C60
06C0
0380
0100
0000
0000
0000
0000
0000
0000
0000
ENDCHAR

STARTCHAR a175
ENCODING 41333
SWIDTH 481 0
DWIDTH 16 0
BBX 16 15 0 -2
BITMAP
00FE
0080
0080
0080
0080
0080
0080
0080
0080
0080
0000
0000
0000
0000
0000
ENDCHAR

STARTCHAR a176
ENCODING 41334
SWIDTH 481 0
DWIDTH 16 0
BBX 16 15 0 -2
BITMAP
0000
0000
0000
0000
0000
0100
0100
0100
0100
0100
0100
0100
0100
0100
7F00
ENDCHAR

STARTCHAR a177
ENCODING 41335
SWIDTH 481 0
DWIDTH 16 0
BBX 16 15 0 -2
BITMAP
0000
0000
0000
0000
0000
0000
0000
7FFE
0002
0002
0002
0002
0002
0002
0000
ENDCHAR

STARTCHAR a178
ENCODING 41336
SWIDTH 481 0
DWIDTH 16 0
BBX 16 15 0 -2
BITMAP
6000
6000
6000
6000
6000
6000
7FFE
0000
0000
0000
0000
0000
0000
0000
0000
ENDCHAR

STARTCHAR a179
ENCODING 41337
SWIDTH 481 0
DWIDTH 16 0
BBX 16 15 0 -2
BITMAP
007E
0042
005E
0050
0050
0050
0050
0050
0050
0050
0050
0070
0000
0000
0000
ENDCHAR

STARTCHAR a17a
ENCODING 41338
SWIDTH 481 0
DWIDTH 16 0
BBX 16 15 0 -2
BITMAP
0000
0000
0000
0000
0700
0500
0500
0500
0500
0500
0500
0500
7D00
4100
7F00
ENDCHAR

STARTCHAR a17b
ENCODING 41339
SWIDTH 481 0
DWIDTH 16 0
BBX 16 15 0 -2
BITMAP
0000
0000
0000
0000
0000
0000
0000
7FFE
4002
7FFA
000A
000A
000A
000E
0000
ENDCHAR

STARTCHAR a17c
ENCODING 41340
SWIDTH 481 0
DWIDTH 16 0
BBX 16 15 0 -2
BITMAP
7000
5000
5000
5000
5FFE
4002
7FFE
0000
0000
0000
0000
0000
0000
0000
0000
ENDCHAR

STARTCHAR a17d
ENCODING 41341
SWIDTH 481 0
DWIDTH 16 0
BBX 16 15 0 -2
BITMAP
0000
0000
0000
0004
0008
0018
0018
0018
0018
0018
0008
0004
0000
0000
0000
ENDCHAR

STARTCHAR a17e
ENCODING 41342
SWIDTH 481 0
DWIDTH 16 0
BBX 16 15 0 -2
BITMAP
0000
0000
0000
2000
1000
1800
1800
1800
1800
1800
1000
2000
0000
0000
0000
ENDCHAR

STARTCHAR a1a1
ENCODING 41377
SWIDTH 481 0
DWIDTH 16 0
BBX 16 15 0 -2
BITMAP
0000
0000
000C
0010
0010
0010
0010
0020
0010
0010
0010
0010
000C
0000
0000
ENDCHAR

STARTCHAR a1a2
ENCODING 41378
SWIDTH 481 0
DWIDTH 16 0
BBX 16 15 0 -2
BITMAP
0000
0000
3000
0800
0800
0800
0800
0400
0800
0800
0800
0800
3000
0000
0000
ENDCHAR

STARTCHAR a1a3
ENCODING 41379
SWIDTH 481 0
DWIDTH 16 0
BBX 16 15 0 -2
BITMAP
0000
0000
0010
0020
0020
0020
0020
0020
0020
0020
0020
0010
0000
0000
0000
ENDCHAR

STARTCHAR a1a4
ENCODING 41380
SWIDTH 481 0
DWIDTH 16 0
BBX 16 15 0 -2
BITMAP
0000
0000
0800
0400
0400
0400
0400
0400
0400
0400
0400
0400
0800
0000
0000
ENDCHAR

STARTCHAR a1a5
ENCODING 41381
SWIDTH 481 0
DWIDTH 16 0
BBX 16 15 0 -2
BITMAP
0008
0010
0038
003C
0018
0000
0000
0000
0000
0000
0000
0000
0000
0000
0000
ENDCHAR

STARTCHAR a1a6
ENCODING 41382
SWIDTH 481 0
DWIDTH 16 0
BBX 16 15 0 -2
BITMAP
1800
3C00
1C00
0800
3000
0000
0000
0000
0000
0000
0000
0000
0000
0000
0000
ENDCHAR

STARTCHAR a1a7
ENCODING 41383
SWIDTH 481 0
DWIDTH 16 0
BBX 16 15 0 -2
BITMAP
0044
0088
0198
01DC
0198
0000
0000
0000
0000
0000
0000
0000
0000
0000
0000
ENDCHAR

STARTCHAR a1a8
ENCODING 41384
SWIDTH 481 0
DWIDTH 16 0
BBX 16 15 0 -2
BITMAP
7700
3300
2200
4400
0000
0000
0000
0000
0000
0000
0000
0000
0000
0000
0000
ENDCHAR

STARTCHAR a1a9
ENCODING 41385
SWIDTH 481 0
DWIDTH 16 0
BBX 16 15 0 -2
BITMAP
EE00
6600
2200
1100
0000
0000
0000
0000
0000
0000
0000
0000
0000
0000
0000
ENDCHAR

STARTCHAR a1aa
ENCODING 41386
SWIDTH 481 0
DWIDTH 16 0
BBX 16 15 0 -2
BITMAP
00EE
00CC
0088
0110
0000
0000
0000
0000
0000
0000
0000
0000
0000
0000
0000
ENDCHAR

STARTCHAR a1ab
ENCODING 41387
SWIDTH 481 0
DWIDTH 16 0
BBX 16 15 0 -2
BITMAP
0700
0380
00C0
0020
0000
0000
0000
0000
0000
0000
0000
0000
0000
0000
0000
ENDCHAR

STARTCHAR a1ac
ENCODING 41388
SWIDTH 481 0
DWIDTH 16 0
BBX 16 15 0 -2
BITMAP
00C0
01E0
01C0
0180
0300
0400
0000
0000
0000
0000
0000
0000
0000
0000
0000
ENDCHAR

STARTCHAR a1ad
ENCODING 41389
SWIDTH 481 0
DWIDTH 16 0
BBX 16 15 0 -2
BITMAP
0410
0410
0410
0410
1FFC
0410
0410
0410
0410
0410
1FFC
0410
0410
0410
0410
ENDCHAR

STARTCHAR a1ae
ENCODING 41390
SWIDTH 481 0
DWIDTH 16 0
BBX 16 15 0 -2
BITMAP
0700
0D80
18C0
18C0
0D80
0700
0E00
1B3C
3190
30D0
3070
3030
1878
0FCE
0000
ENDCHAR

STARTCHAR a1af
ENCODING 41391
SWIDTH 481 0
DWIDTH 16 0
BBX 16 15 0 -2
BITMAP
0100
2108
1110
0920
0540
0380
FFFE
0380
0540
0920
1110
2108
0100
0100
0000
ENDCHAR

STARTCHAR a1b0
ENCODING 41392
SWIDTH 481 0
DWIDTH 16 0
BBX 16 15 0 -2
BITMAP
0000
0000
318C
1998
0C30
0660
33C0
318C
03CC
0660
0C30
1998
318C
0000
0000
ENDCHAR

STARTCHAR a1b1
ENCODING 41393
SWIDTH 481 0
DWIDTH 16 0
BBX 16 15 0 -2
BITMAP
03C0
0460
0460
0600
0300
0380
04C0
0460
0320
01C0
00C0
0060
0620
0620
03C0
ENDCHAR

STARTCHAR a1b2
ENCODING 41394
SWIDTH 481 0
DWIDTH 16 0
BBX 16 15 0 -2
BITMAP
0000
0000
0000
0000
0210
0738
0738
0738
0E70
0C60
18C0
3180
4200
0000
0000
ENDCHAR

STARTCHAR a1b3
ENCODING 41395
SWIDTH 481 0
DWIDTH 16 0
BBX 16 15 0 -2
BITMAP
03C0
0420
1818
2004
2004
4002
4002
4002
4002
2004
2004
1008
0C30
03C0
0000
ENDCHAR

STARTCHAR a1b4
ENCODING 41396
SWIDTH 481 0
DWIDTH 16 0
BBX 16 15 0 -2
BITMAP
03C0
0FF0
1FF8
3FFC
3FFC
7FFE
7FFE
7FFE
7FFE
3FFC
3FFC
1FF8
0FF0
03C0
0000
ENDCHAR

STARTCHAR a1b5
ENCODING 41397
SWIDTH 481 0
DWIDTH 16 0
BBX 16 15 0 -2
BITMAP
0100
0280
0280
0440
0440
0820
0820
1010
1010
2008
2008
4004
FFFE
0000
0000
ENDCHAR

STARTCHAR a1b6
ENCODING 41398
SWIDTH 481 0
DWIDTH 16 0
BBX 16 15 0 -2
BITMAP
0000
0100
0380
07C0
07C0
0FE0
0FE0
1FF0
1FF0
3FF8
3FF8
7FFC
FFFE
0000
0000
ENDCHAR

STARTCHAR a1b7
ENCODING 41399
SWIDTH 481 0
DWIDTH 16 0
BBX 16 15 0 -2
BITMAP
03C0
0C30
1188
2664
2814
4812
500A
500A
4812
2814
2664
1188
0C30
03C0
0000
ENDCHAR

STARTCHAR a1b8
ENCODING 41400
SWIDTH 481 0
DWIDTH 16 0
BBX 16 15 0 -2
BITMAP
0100
0280
0280
0440
0440
FC7E
4004
2008
1010
0820
0920
1290
1450
2828
3018
ENDCHAR

STARTCHAR a1b9
ENCODING 41401
SWIDTH 481 0
DWIDTH 16 0
BBX 16 15 0 -2
BITMAP
0100
0380
0380
07C0
07C0
FFFE
7FFC
3FF8
1FF0
0FE0
0FE0
1EF0
1C70
3838
3018
ENDCHAR

STARTCHAR a1ba
ENCODING 41402
SWIDTH 481 0
DWIDTH 16 0
BBX 16 15 0 -2
BITMAP
0100
0380
06C0
0C60
1830
3018
600C
C006
600C
3018
1830
0C60
06C0
0380
0100
ENDCHAR

STARTCHAR a1bb
ENCODING 41403
SWIDTH 481 0
DWIDTH 16 0
BBX 16 15 0 -2
BITMAP
0100
0380
07C0
0FE0
1FF0
3FF8
7FFC
FFFE
7FFC
3FF8
1FF0
0FE0
07C0
0380
0100
ENDCHAR

STARTCHAR a1bc
ENCODING 41404
SWIDTH 481 0
DWIDTH 16 0
BBX 16 15 0 -2
BITMAP
7FFE
4002
4002
4002
4002
4002
4002
4002
4002
4002
4002
4002
4002
7FFE
0000
ENDCHAR

STARTCHAR a1bd
ENCODING 41405
SWIDTH 481 0
DWIDTH 16 0
BBX 16 15 0 -2
BITMAP
7FFE
7FFE
7FFE
7FFE
7FFE
7FFE
7FFE
7FFE
7FFE
7FFE
7FFE
7FFE
7FFE
7FFE
0000
ENDCHAR

STARTCHAR a1be
ENCODING 41406
SWIDTH 481 0
DWIDTH 16 0
BBX 16 15 0 -2
BITMAP
0000
0000
FFFE
4004
4004
2008
2008
1010
1010
0820
0820
0440
0440
0280
0100
ENDCHAR

STARTCHAR a1bf
ENCODING 41407
SWIDTH 481 0
DWIDTH 16 0
BBX 16 15 0 -2
BITMAP
0000
0000
FFFE
7FFC
7FFC
3FF8
3FF8
1FF0
1FF0
0FE0
0FE0
07C0
07C0
0380
0100
ENDCHAR

STARTCHAR a1c0
ENCODING 41408
SWIDTH 481 0
DWIDTH 16 0
BBX 16 15 0 -2
BITMAP
03C0
0C30
1008
2004
2FF4
4082
4082
44E2
4482
2484
2FF4
1008
0C30
03C0
0000
ENDCHAR

STARTCHAR a1c1
ENCODING 41409
SWIDTH 481 0
DWIDTH 16 0
BBX 16 15 0 -2
BITMAP
3804
4408
8010
8020
8040
8480
4938
3244
0484
0904
1104
2108
4110
80E0
0000
ENDCHAR

STARTCHAR a1c2
ENCODING 41410
SWIDTH 481 0
DWIDTH 16 0
BBX 16 15 0 -2
BITMAP
FFFE
0000
0000
0000
0000
0000
0000
0000
0000
0000
0000
0000
0000
0000
0000
ENDCHAR

STARTCHAR a1c3
ENCODING 41411
SWIDTH 481 0
DWIDTH 16 0
BBX 16 15 0 -2
BITMAP
FFFE
0000
0000
0000
0000
0000
0000
0000
0000
0000
0000
0000
0000
0000
0000
ENDCHAR

STARTCHAR a1c4
ENCODING 41412
SWIDTH 481 0
DWIDTH 16 0
BBX 16 15 0 -2
BITMAP
0000
0000
0000
0000
0000
0000
0000
0000
0000
0000
0000
0000
0000
0000
FFFF
ENDCHAR

STARTCHAR a1c5
ENCODING 41413
SWIDTH 481 0
DWIDTH 16 0
BBX 16 15 0 -2
BITMAP
0000
0000
0000
0000
0000
0000
0000
0000
0000
0000
0000
0000
0000
0000
FFFF
ENDCHAR

STARTCHAR a1c6
ENCODING 41414
SWIDTH 481 0
DWIDTH 16 0
BBX 16 15 0 -2
BITMAP
71CE
0000
0000
0000
0000
0000
0000
0000
0000
0000
0000
0000
0000
0000
0000
ENDCHAR

STARTCHAR a1c7
ENCODING 41415
SWIDTH 481 0
DWIDTH 16 0
BBX 16 15 0 -2
BITMAP
7D9E
0000
0000
0000
0000
0000
0000
0000
0000
0000
0000
0000
0000
0000
0000
ENDCHAR

STARTCHAR a1c8
ENCODING 41416
SWIDTH 481 0
DWIDTH 16 0
BBX 16 15 0 -2
BITMAP
0000
0000
0000
0000
0000
0000
0000
0000
0000
0000
0000
0000
0000
0000
39CE
ENDCHAR

STARTCHAR a1c9
ENCODING 41417
SWIDTH 481 0
DWIDTH 16 0
BBX 16 15 0 -2
BITMAP
0000
0000
0000
0000
0000
0000
0000
0000
0000
0000
0000
0000
0000
0000
3DBC
ENDCHAR

STARTCHAR a1ca
ENCODING 41418
SWIDTH 481 0
DWIDTH 16 0
BBX 16 15 0 -2
BITMAP
0000
0C30
1E78
33CC
6186
0000
0000
0000
0000
0000
0000
0000
0000
0000
0000
ENDCHAR

STARTCHAR a1cb
ENCODING 41419
SWIDTH 481 0
DWIDTH 16 0
BBX 16 15 0 -2
BITMAP
0000
1C38
3E7C
77EE
E3C7
0000
0000
0000
0000
0000
0000
0000
0000
0000
0000
ENDCHAR

STARTCHAR a1cc
ENCODING 41420
SWIDTH 481 0
DWIDTH 16 0
BBX 16 15 0 -2
BITMAP
0000
0000
0480
0480
1FE0
0480
0480
0480
1FE0
0480
0480
0000
0000
0000
0000
ENDCHAR

STARTCHAR a1cd
ENCODING 41421
SWIDTH 481 0
DWIDTH 16 0
BBX 16 15 0 -2
BITMAP
0E00
1100
1100
1100
1100
0A00
0400
0A20
1110
20A0
2040
10A0
0F1C
0000
0000
ENDCHAR

STARTCHAR a1ce
ENCODING 41422
SWIDTH 481 0
DWIDTH 16 0
BBX 16 15 0 -2
BITMAP
8610
C630
6660
36C0
1F80
0F00
0600
0600
0F00
1F80
36C0
6660
C630
8610
0000
ENDCHAR

STARTCHAR a1cf
ENCODING 41423
SWIDTH 481 0
DWIDTH 16 0
BBX 16 15 0 -2
BITMAP
0000
0180
0180
0180
0180
0180
3FFC
3FFC
0180
0180
0180
0180
0180
0000
0000
ENDCHAR

STARTCHAR a1d0
ENCODING 41424
SWIDTH 481 0
DWIDTH 16 0
BBX 16 15 0 -2
BITMAP
0000
0000
0000
0000
0000
0000
3FFC
3FFC
0000
0000
0000
0000
0000
0000
0000
ENDCHAR

STARTCHAR a1d1
ENCODING 41425
SWIDTH 481 0
DWIDTH 16 0
BBX 16 15 0 -2
BITMAP
0000
0000
180C
0C18
0630
0360
01C0
01C0
0360
0630
0C18
180C
0000
0000
0000
ENDCHAR

STARTCHAR a1d2
ENCODING 41426
SWIDTH 481 0
DWIDTH 16 0
BBX 16 15 0 -2
BITMAP
0000
0180
0180
0000
0000
0000
7FFE
7FFE
0000
0000
0180
0180
0000
0000
0000
ENDCHAR

STARTCHAR a1d3
ENCODING 41427
SWIDTH 481 0
DWIDTH 16 0
BBX 16 15 0 -2
BITMAP
0180
0180
0180
0180
0180
3FFC
3FFC
0180
0180
0180
0180
0000
3FFC
3FFC
0000
ENDCHAR

STARTCHAR a1d4
ENCODING 41428
SWIDTH 481 0
DWIDTH 16 0
BBX 16 15 0 -2
BITMAP
0000
0000
03FC
0200
0200
0600
0400
0400
4C00
6800
2800
3000
1000
0000
0000
ENDCHAR

STARTCHAR a1d5
ENCODING 41429
SWIDTH 481 0
DWIDTH 16 0
BBX 16 15 0 -2
BITMAP
0000
000C
0030
00C0
0300
0C00
3000
4000
3000
0C00
0300
00C0
0030
000C
0000
ENDCHAR

STARTCHAR a1d6
ENCODING 41430
SWIDTH 481 0
DWIDTH 16 0
BBX 16 15 0 -2
BITMAP
C000
3000
0C00
0300
00C0
0030
000C
0002
000C
0030
00C0
0300
0C00
3000
C000
ENDCHAR

STARTCHAR a1d7
ENCODING 41431
SWIDTH 481 0
DWIDTH 16 0
BBX 16 15 0 -2
BITMAP
0000
0000
0000
0000
3FFC
3FFC
0000
0000
3FFC
3FFC
0000
0000
0000
0000
0000
ENDCHAR

STARTCHAR a1d8
ENCODING 41432
SWIDTH 481 0
DWIDTH 16 0
BBX 16 15 0 -2
BITMAP
000C
0070
0380
1C00
6000
1C00
0380
0070
000C
0000
3FFC
0000
0000
3FFC
0000
ENDCHAR

STARTCHAR a1d9
ENCODING 41433
SWIDTH 481 0
DWIDTH 16 0
BBX 16 15 0 -2
BITMAP
6000
1C00
0380
0070
000C
0070
0380
1C00
6000
0000
7FFC
0000
0000
7FFC
0000
ENDCHAR

STARTCHAR a1da
ENCODING 41434
SWIDTH 481 0
DWIDTH 16 0
BBX 16 15 0 -2
BITMAP
0018
0010
0030
0020
3FFC
3FFC
00C0
0180
3FFC
3FFC
0300
0200
0600
0400
0C00
ENDCHAR

STARTCHAR a1db
ENCODING 41435
SWIDTH 481 0
DWIDTH 16 0
BBX 16 15 0 -2
BITMAP
0000
0000
0000
0000
3870
4488
8304
8304
4488
3870
0000
0000
0000
0000
0000
ENDCHAR

STARTCHAR a1dc
ENCODING 41436
SWIDTH 481 0
DWIDTH 16 0
BBX 16 15 0 -2
BITMAP
0000
0000
6000
6000
0000
FFFE
0000
0000
FFFE
0000
000C
000C
0000
0000
0000
ENDCHAR

STARTCHAR a1dd
ENCODING 41437
SWIDTH 481 0
DWIDTH 16 0
BBX 16 15 0 -2
BITMAP
0000
0000
0000
FFFE
0000
0000
FFFE
0000
0000
FFFE
0000
0000
0000
0000
0000
ENDCHAR

STARTCHAR a1de
ENCODING 41438
SWIDTH 481 0
DWIDTH 16 0
BBX 16 15 0 -2
BITMAP
0000
0000
0000
0080
0080
0080
07F0
0080
0080
0080
0080
0000
0000
0000
0000
ENDCHAR

STARTCHAR a1df
ENCODING 41439
SWIDTH 481 0
DWIDTH 16 0
BBX 16 15 0 -2
BITMAP
0000
0000
0000
0000
0000
0000
0FF0
0000
0000
0000
0000
0000
0000
0000
0000
ENDCHAR

STARTCHAR a1e0
ENCODING 41440
SWIDTH 481 0
DWIDTH 16 0
BBX 16 15 0 -2
BITMAP
0000
0000
0000
0180
0300
0600
0C00
1800
0C00
0600
0300
0180
0000
0000
0000
ENDCHAR

STARTCHAR a1e1
ENCODING 41441
SWIDTH 481 0
DWIDTH 16 0
BBX 16 15 0 -2
BITMAP
0000
0000
0000
0180
00C0
0060
0030
0018
0030
0060
00C0
0180
0000
0000
0000
ENDCHAR

STARTCHAR a1e2
ENCODING 41442
SWIDTH 481 0
DWIDTH 16 0
BBX 16 15 0 -2
BITMAP
0000
0000
0000
0000
0FF0
0000
0000
0000
0FF0
0000
0000
0000
0000
0000
0000
ENDCHAR

STARTCHAR a1e3
ENCODING 41443
SWIDTH 481 0
DWIDTH 16 0
BBX 16 15 0 -2
BITMAP
0000
0000
0000
0000
0000
1800
7E00
C30C
01F8
0060
0000
0000
0000
0000
0000
ENDCHAR

STARTCHAR a1e4
ENCODING 41444
SWIDTH 481 0
DWIDTH 16 0
BBX 16 15 0 -2
BITMAP
03C0
0660
0C30
1818
1008
300C
300C
2004
6006
6006
4002
4002
4002
0000
0000
ENDCHAR

STARTCHAR a1e5
ENCODING 41445
SWIDTH 481 0
DWIDTH 16 0
BBX 16 15 0 -2
BITMAP
0000
2004
2004
2004
2004
300C
300C
1008
1818
1818
0C30
0C30
0660
03C0
0000
ENDCHAR

STARTCHAR a1e6
ENCODING 41446
SWIDTH 481 0
DWIDTH 16 0
BBX 16 15 0 -2
BITMAP
0000
0000
0180
0180
0180
0180
0180
0180
0180
0180
7FFE
7FFE
0000
0000
0000
ENDCHAR

STARTCHAR a1e7
ENCODING 41447
SWIDTH 481 0
DWIDTH 16 0
BBX 16 15 0 -2
BITMAP
0000
000C
0018
0030
0060
00C0
0180
0300
0600
0C00
1800
3FFC
3FFC
0000
0000
ENDCHAR

STARTCHAR a1e8
ENCODING 41448
SWIDTH 481 0
DWIDTH 16 0
BBX 16 15 0 -2
BITMAP
0000
3000
3000
3000
3000
3000
3000
3000
3000
3000
3000
3FFC
3FFC
0000
0000
ENDCHAR

STARTCHAR a1e9
ENCODING 41449
SWIDTH 481 0
DWIDTH 16 0
BBX 16 15 0 -2
BITMAP
0000
0004
000C
001C
0034
0064
00C4
0184
0304
0604
0C04
1804
3FFC
0000
0000
ENDCHAR

STARTCHAR a1ea
ENCODING 41450
SWIDTH 481 0
DWIDTH 16 0
BBX 16 15 0 -2
BITMAP
C000
4000
4000
4000
4000
4E1A
5126
5124
5118
5110
513C
5142
EE42
0042
003C
ENDCHAR

STARTCHAR a1eb
ENCODING 41451
SWIDTH 481 0
DWIDTH 16 0
BBX 16 15 0 -2
BITMAP
E000
6000
6000
6000
6700
6378
638C
630C
630C
630C
630C
630C
F71E
0000
0000
ENDCHAR

STARTCHAR a1ec
ENCODING 41452
SWIDTH 481 0
DWIDTH 16 0
BBX 16 15 0 -2
BITMAP
0078
004C
0044
00C0
0080
0080
0180
0180
0100
0100
0300
2200
3200
1E00
0C00
ENDCHAR

STARTCHAR a1ed
ENCODING 41453
SWIDTH 481 0
DWIDTH 16 0
BBX 16 15 0 -2
BITMAP
0038
004C
0044
0040
01F0
0248
0444
0842
0444
0248
01F0
1040
1840
0E80
0700
ENDCHAR

STARTCHAR a1ee
ENCODING 41454
SWIDTH 481 0
DWIDTH 16 0
BBX 16 15 0 -2
BITMAP
0000
0000
1818
3C3C
1818
0000
0000
0000
0000
0180
03C0
0180
0000
0000
0000
ENDCHAR

STARTCHAR a1ef
ENCODING 41455
SWIDTH 481 0
DWIDTH 16 0
BBX 16 15 0 -2
BITMAP
0000
0180
03C0
0180
0000
0000
0000
0000
0000
0000
300C
781E
300C
0000
0000
ENDCHAR

STARTCHAR a1f0
ENCODING 41456
SWIDTH 481 0
DWIDTH 16 0
BBX 16 15 0 -2
BITMAP
07C0
0820
0820
0820
0820
0440
0380
0100
0100
7FFC
0100
0100
0100
0100
0100
ENDCHAR

STARTCHAR a1f1
ENCODING 41457
SWIDTH 481 0
DWIDTH 16 0
BBX 16 15 0 -2
BITMAP
0080
01C0
02A0
0490
0888
1084
0080
0080
01C0
0220
0410
0410
0410
0220
01C0
ENDCHAR

STARTCHAR a1f2
ENCODING 41458
SWIDTH 481 0
DWIDTH 16 0
BBX 16 15 0 -2
BITMAP
03C0
0FF0
1998
318C
2184
6186
7FFE
7FFE
6186
2184
318C
1998
0FF0
03C0
0000
ENDCHAR

STARTCHAR a1f3
ENCODING 41459
SWIDTH 481 0
DWIDTH 16 0
BBX 16 15 0 -2
BITMAP
03C0
0C30
1008
2004
2004
4182
43C2
43C2
4182
2004
2004
1008
0C30
03C0
0000
ENDCHAR

STARTCHAR a1f4
ENCODING 41460
SWIDTH 481 0
DWIDTH 16 0
BBX 16 15 0 -2
BITMAP
0180
03C0
07E0
0DB0
1998
318C
0180
0180
0180
0180
0180
0180
0180
0180
0180
ENDCHAR

STARTCHAR a1f5
ENCODING 41461
SWIDTH 481 0
DWIDTH 16 0
BBX 16 15 0 -2
BITMAP
0180
0180
0180
0180
0180
0180
0180
0180
2184
318C
1998
0DB0
07E0
03C0
0180
ENDCHAR

STARTCHAR a1f6
ENCODING 41462
SWIDTH 481 0
DWIDTH 16 0
BBX 16 15 0 -2
BITMAP
0000
0200
0600
0C00
1800
3000
7FFF
7FFF
3000
1800
0C00
0600
0200
0000
0000
ENDCHAR

STARTCHAR a1f7
ENCODING 41463
SWIDTH 481 0
DWIDTH 16 0
BBX 16 15 0 -2
BITMAP
0000
00C0
0060
0030
0018
000C
FFFE
FFFE
000C
0018
0030
0060
00C0
0000
0000
ENDCHAR

STARTCHAR a1f8
ENCODING 41464
SWIDTH 481 0
DWIDTH 16 0
BBX 16 15 0 -2
BITMAP
0000
3F80
3000
2800
2400
2200
2100
2080
0040
0020
0010
0008
0004
0000
0000
ENDCHAR

STARTCHAR a1f9
ENCODING 41465
SWIDTH 481 0
DWIDTH 16 0
BBX 16 15 0 -2
BITMAP
0000
01F8
0018
0028
0048
0088
0108
0200
0400
0800
1000
2000
4000
0000
0000
ENDCHAR

STARTCHAR a1fa
ENCODING 41466
SWIDTH 481 0
DWIDTH 16 0
BBX 16 15 0 -2
BITMAP
0004
0008
0010
0020
0040
0080
0100
4200
4400
4800
5000
6000
7E00
0000
0000
ENDCHAR

STARTCHAR a1fb
ENCODING 41467
SWIDTH 481 0
DWIDTH 16 0
BBX 16 15 0 -2
BITMAP
0000
2000
1000
0800
0400
0200
0100
0084
0044
0024
0014
000C
00FC
0000
0000
ENDCHAR

STARTCHAR a1fc
ENCODING 41468
SWIDTH 481 0
DWIDTH 16 0
BBX 16 15 0 -2
BITMAP
0340
0340
0340
0340
0340
0340
0340
0340
0340
0340
0340
0340
0340
0340
0340
ENDCHAR

STARTCHAR a1fd
ENCODING 41469
SWIDTH 481 0
DWIDTH 16 0
BBX 16 15 0 -2
BITMAP
0180
0180
0180
0180
0180
0180
0180
0180
0180
0180
0180
0180
0180
0180
0180
ENDCHAR

STARTCHAR a1fe
ENCODING 41470
SWIDTH 481 0
DWIDTH 16 0
BBX 16 15 0 -2
BITMAP
000C
0018
0030
0060
00C0
0180
0300
0600
0C00
1800
3000
6000
C000
8000
0000
ENDCHAR

STARTCHAR a240
ENCODING 41536
SWIDTH 481 0
DWIDTH 16 0
BBX 16 15 0 -2
BITMAP
C000
6000
3000
1800
0C00
0600
0300
0180
00C0
0060
0030
0018
000C
0006
0002
ENDCHAR

STARTCHAR a241
ENCODING 41537
SWIDTH 481 0
DWIDTH 16 0
BBX 16 15 0 -2
BITMAP
0010
0020
0020
0040
0040
0080
0080
0100
0100
0200
0200
0400
0400
0800
0800
ENDCHAR

STARTCHAR a242
ENCODING 41538
SWIDTH 481 0
DWIDTH 16 0
BBX 16 15 0 -2
BITMAP
0800
0400
0400
0200
0200
0100
0100
0080
0080
0040
0040
0020
0020
0010
0010
ENDCHAR

STARTCHAR a243
ENCODING 41539
SWIDTH 481 0
DWIDTH 16 0
BBX 16 15 0 -2
BITMAP
07E0
0DB0
1998
1998
1980
0D80
0780
01E0
01B0
0998
1D98
1998
0DB0
07E0
0180
ENDCHAR

STARTCHAR a244
ENCODING 41540
SWIDTH 481 0
DWIDTH 16 0
BBX 16 15 0 -2
BITMAP
7C3E
300C
1818
0C30
0660
03C0
3FFC
0180
0180
3FFC
0180
0180
0180
07E0
0000
ENDCHAR

STARTCHAR a245
ENCODING 41541
SWIDTH 481 0
DWIDTH 16 0
BBX 16 15 0 -2
BITMAP
7FFE
7FFE
0000
0000
7FFE
7FFE
0180
0180
0180
0180
0180
0180
0180
0180
0180
ENDCHAR

STARTCHAR a246
ENCODING 41542
SWIDTH 481 0
DWIDTH 16 0
BBX 16 15 0 -2
BITMAP
0010
00F0
0328
044C
0C4C
0880
1880
1900
1900
0A00
0E00
0630
05E0
0800
0800
ENDCHAR

STARTCHAR a247
ENCODING 41543
SWIDTH 481 0
DWIDTH 16 0
BBX 16 15 0 -2
BITMAP
01E0
0310
0638
0638
0610
0600
3FC0
0600
0600
1E00
2704
2684
2678
1C00
0000
ENDCHAR

STARTCHAR a248
ENCODING 41544
SWIDTH 481 0
DWIDTH 16 0
BBX 16 15 0 -2
BITMAP
1C04
2208
4210
8220
8240
8480
8938
7244
0484
0904
1104
2108
4110
80E0
0000
ENDCHAR

STARTCHAR a249
ENCODING 41545
SWIDTH 481 0
DWIDTH 16 0
BBX 16 15 0 -2
BITMAP
07E0
1830
2008
23C4
4464
4864
4864
4864
4864
446C
23B8
2004
1838
07E0
0000
ENDCHAR

STARTCHAR a24a
ENCODING 41546
SWIDTH 481 0
DWIDTH 16 0
BBX 16 15 0 -2
BITMAP
3800
44F0
45FA
3B0E
0306
0602
0602
0600
0600
0600
0602
0306
038C
01FC
0070
ENDCHAR

STARTCHAR a24b
ENCODING 41547
SWIDTH 481 0
DWIDTH 16 0
BBX 16 15 0 -2
BITMAP
7000
8BFF
8903
7101
0101
0108
01F8
0118
0108
0100
0100
0100
0100
07C0
0000
ENDCHAR

STARTCHAR a24c
ENCODING 41548
SWIDTH 481 0
DWIDTH 16 0
BBX 16 15 0 -2
BITMAP
0100
0100
07C0
0960
0960
0900
0780
0140
0520
0920
0920
07C0
0100
0100
0000
ENDCHAR

STARTCHAR a24d
ENCODING 41549
SWIDTH 481 0
DWIDTH 16 0
BBX 16 15 0 -2
BITMAP
0000
0000
0008
0610
0920
1140
1280
0D60
0290
0510
0920
10C0
0000
0000
0000
ENDCHAR

STARTCHAR a24e
ENCODING 41550
SWIDTH 481 0
DWIDTH 16 0
BBX 16 15 0 -2
BITMAP
0000
0000
03E0
0410
0990
0A50
0A50
0A50
09D0
0864
0408
03F0
0000
0000
0000
ENDCHAR

STARTCHAR a24f
ENCODING 41551
SWIDTH 481 0
DWIDTH 16 0
BBX 16 15 0 -2
BITMAP
001C
00CC
00CC
000C
D1CC
7CCC
54CC
54CC
54CC
54CC
54CC
54CC
FFFE
0000
0000
ENDCHAR

STARTCHAR a250
ENCODING 41552
SWIDTH 481 0
DWIDTH 16 0
BBX 16 15 0 -2
BITMAP
0000
0000
0000
0000
D4D4
7C7C
5454
5454
5454
5454
5454
5454
FEFE
0000
0000
ENDCHAR

STARTCHAR a251
ENCODING 41553
SWIDTH 481 0
DWIDTH 16 0
BBX 16 15 0 -2
BITMAP
0000
0000
0000
0000
3C54
66FC
C654
C654
C054
C054
C254
6654
3CFE
0000
0000
ENDCHAR

STARTCHAR a252
ENCODING 41554
SWIDTH 481 0
DWIDTH 16 0
BBX 16 15 0 -2
BITMAP
C000
4000
4000
4000
4000
4ED4
447C
4854
5054
6854
4454
4254
E6FE
0000
0000
ENDCHAR

STARTCHAR a253
ENCODING 41555
SWIDTH 481 0
DWIDTH 16 0
BBX 16 15 0 -2
BITMAP
E782
4282
42C6
44C6
48C6
50EE
60AA
50AA
4892
4492
4282
4282
E7C6
0000
0000
ENDCHAR

STARTCHAR a254
ENCODING 41556
SWIDTH 481 0
DWIDTH 16 0
BBX 16 15 0 -2
BITMAP
0038
0044
0008
0010
0020
ED7C
5B00
4900
4900
4900
4900
4900
4900
FF80
0000
ENDCHAR

STARTCHAR a255
ENCODING 41557
SWIDTH 481 0
DWIDTH 16 0
BBX 16 15 0 -2
BITMAP
0000
0000
0000
0000
D470
7C8A
548A
548C
5488
5470
5460
5498
FE84
0084
0078
ENDCHAR

STARTCHAR a256
ENCODING 41558
SWIDTH 481 0
DWIDTH 16 0
BBX 16 15 0 -2
BITMAP
C000
4000
4000
4000
403A
4F46
4446
4844
5838
6C18
4424
4642
EFC2
0042
003C
ENDCHAR

STARTCHAR a257
ENCODING 41559
SWIDTH 481 0
DWIDTH 16 0
BBX 16 15 0 -2
BITMAP
0000
0000
0000
0000
3C3C
4646
8282
8282
8080
8080
8080
4242
3C3C
0000
0000
ENDCHAR

STARTCHAR a258
ENCODING 41560
SWIDTH 481 0
DWIDTH 16 0
BBX 16 15 0 -2
BITMAP
3800
4400
4400
3800
0000
0000
0000
0000
0000
0000
0000
0000
0000
0000
0000
ENDCHAR

STARTCHAR a259
ENCODING 41561
SWIDTH 481 0
DWIDTH 16 0
BBX 16 15 0 -2
BITMAP
0810
0810
FF10
0810
7F7E
4110
4110
4110
7F10
3412
2412
6412
4412
C402
87FE
ENDCHAR

STARTCHAR a25a
ENCODING 41562
SWIDTH 481 0
DWIDTH 16 0
BBX 16 15 0 -2
BITMAP
0804
0808
FF90
0830
7F50
4110
41FE
4110
7F10
1410
3410
6412
4412
C402
87FE
ENDCHAR

STARTCHAR a25b
ENCODING 41563
SWIDTH 481 0
DWIDTH 16 0
BBX 16 15 0 -2
BITMAP
0800
0808
FFF0
0820
7FFC
4120
4120
41FE
7F20
1422
3422
2422
643E
C402
87FE
ENDCHAR

STARTCHAR a25c
ENCODING 41564
SWIDTH 481 0
DWIDTH 16 0
BBX 16 15 0 -2
BITMAP
0838
0808
FF48
0848
0984
7F02
4178
4128
4128
7F28
1448
348A
653A
C402
87FE
ENDCHAR

STARTCHAR a25d
ENCODING 41565
SWIDTH 481 0
DWIDTH 16 0
BBX 16 15 0 -2
BITMAP
08FC
0810
FF20
0840
7F7C
4144
4144
4144
7F7C
1444
3444
3446
647E
C402
87FE
ENDCHAR

STARTCHAR a25e
ENCODING 41566
SWIDTH 481 0
DWIDTH 16 0
BBX 16 15 0 -2
BITMAP
10FE
1080
FEBE
10AA
FEBE
82AA
82BE
8288
FE88
28FE
2908
6A7E
4802
C802
8FFE
ENDCHAR

STARTCHAR a25f
ENCODING 41567
SWIDTH 481 0
DWIDTH 16 0
BBX 16 15 0 -2
BITMAP
1024
FE3E
1224
1224
2424
45BC
8A40
0420
1BD8
E006
3FF8
2448
3FF8
2448
2458
ENDCHAR

STARTCHAR a260
ENCODING 41568
SWIDTH 481 0
DWIDTH 16 0
BBX 16 15 0 -2
BITMAP
FF00
4008
4430
7CE0
4420
65FC
5420
5C20
4C20
4420
4420
4C20
7422
C402
07FE
ENDCHAR

STARTCHAR a261
ENCODING 41569
SWIDTH 481 0
DWIDTH 16 0
BBX 16 15 0 -2
BITMAP
10FE
9280
54BE
54AA
38AA
FEBE
10AA
38AA
54BE
5488
5488
92FE
1088
1108
123E
ENDCHAR

STARTCHAR a262
ENCODING 41570
SWIDTH 481 0
DWIDTH 16 0
BBX 16 15 0 -2
BITMAP
0000
0000
0000
0000
0000
0000
0000
0000
0000
0000
0000
0000
0000
FFFF
FFFF
ENDCHAR

STARTCHAR a263
ENCODING 41571
SWIDTH 481 0
DWIDTH 16 0
BBX 16 15 0 -2
BITMAP
0000
0000
0000
0000
0000
0000
0000
0000
0000
0000
0000
FFFF
FFFF
FFFF
FFFF
ENDCHAR

STARTCHAR a264
ENCODING 41572
SWIDTH 481 0
DWIDTH 16 0
BBX 16 15 0 -2
BITMAP
0000
0000
0000
0000
0000
0000
0000
0000
0000
FFFF
FFFF
FFFF
FFFF
FFFF
FFFF
ENDCHAR

STARTCHAR a265
ENCODING 41573
SWIDTH 481 0
DWIDTH 16 0
BBX 16 15 0 -2
BITMAP
0000
0000
0000
0000
0000
0000
0000
FFFF
FFFF
FFFF
FFFF
FFFF
FFFF
FFFF
FFFF
ENDCHAR

STARTCHAR a266
ENCODING 41574
SWIDTH 481 0
DWIDTH 16 0
BBX 16 15 0 -2
BITMAP
0000
0000
0000
0000
0000
FFFF
FFFF
FFFF
FFFF
FFFF
FFFF
FFFF
FFFF
FFFF
FFFF
ENDCHAR

STARTCHAR a267
ENCODING 41575
SWIDTH 481 0
DWIDTH 16 0
BBX 16 15 0 -2
BITMAP
0000
0000
0000
FFFF
FFFF
FFFF
FFFF
FFFF
FFFF
FFFF
FFFF
FFFF
FFFF
FFFF
FFFF
ENDCHAR

STARTCHAR a268
ENCODING 41576
SWIDTH 481 0
DWIDTH 16 0
BBX 16 15 0 -2
BITMAP
0000
FFFF
FFFF
FFFF
FFFF
FFFF
FFFF
FFFF
FFFF
FFFF
FFFF
FFFF
FFFF
FFFF
FFFF
ENDCHAR

STARTCHAR a269
ENCODING 41577
SWIDTH 481 0
DWIDTH 16 0
BBX 16 15 0 -2
BITMAP
FFFF
FFFF
FFFF
FFFF
FFFF
FFFF
FFFF
FFFF
FFFF
FFFF
FFFF
FFFF
FFFF
FFFF
FFFF
ENDCHAR

STARTCHAR a26a
ENCODING 41578
SWIDTH 481 0
DWIDTH 16 0
BBX 16 15 0 -2
BITMAP
C000
C000
C000
C000
C000
C000
C000
C000
C000
C000
C000
C000
C000
C000
C000
ENDCHAR

STARTCHAR a26b
ENCODING 41579
SWIDTH 481 0
DWIDTH 16 0
BBX 16 15 0 -2
BITMAP
F000
F000
F000
F000
F000
F000
F000
F000
F000
F000
F000
F000
F000
F000
F000
ENDCHAR

STARTCHAR a26c
ENCODING 41580
SWIDTH 481 0
DWIDTH 16 0
BBX 16 15 0 -2
BITMAP
FC00
FC00
FC00
FC00
FC00
FC00
FC00
FC00
FC00
FC00
FC00
FC00
FC00
FC00
FC00
ENDCHAR

STARTCHAR a26d
ENCODING 41581
SWIDTH 481 0
DWIDTH 16 0
BBX 16 15 0 -2
BITMAP
FF00
FF00
FF00
FF00
FF00
FF00
FF00
FF00
FF00
FF00
FF00
FF00
FF00
FF00
FF00
ENDCHAR

STARTCHAR a26e
ENCODING 41582
SWIDTH 481 0
DWIDTH 16 0
BBX 16 15 0 -2
BITMAP
FFC0
FFC0
FFC0
FFC0
FFC0
FFC0
FFC0
FFC0
FFC0
FFC0
FFC0
FFC0
FFC0
FFC0
FFC0
ENDCHAR

STARTCHAR a26f
ENCODING 41583
SWIDTH 481 0
DWIDTH 16 0
BBX 16 15 0 -2
BITMAP
FFF0
FFF0
FFF0
FFF0
FFF0
FFF0
FFF0
FFF0
FFF0
FFF0
FFF0
FFF0
FFF0
FFF0
FFF0
ENDCHAR

STARTCHAR a270
ENCODING 41584
SWIDTH 481 0
DWIDTH 16 0
BBX 16 15 0 -2
BITMAP
FFFC
FFFC
FFFC
FFFC
FFFC
FFFC
FFFC
FFFC
FFFC
FFFC
FFFC
FFFC
FFFC
FFFC
FFFC
ENDCHAR

STARTCHAR a271
ENCODING 41585
SWIDTH 481 0
DWIDTH 16 0
BBX 16 15 0 -2
BITMAP
0180
0180
0180
0180
0180
0180
FFFF
FFFF
0180
0180
0180
0180
0180
0180
0180
ENDCHAR

STARTCHAR a272
ENCODING 41586
SWIDTH 481 0
DWIDTH 16 0
BBX 16 15 0 -2
BITMAP
0180
0180
0180
0180
0180
0180
FFFF
FFFF
0000
0000
0000
0000
0000
0000
0000
ENDCHAR

STARTCHAR a273
ENCODING 41587
SWIDTH 481 0
DWIDTH 16 0
BBX 16 15 0 -2
BITMAP
0000
0000
0000
0000
0000
0000
FFFF
FFFF
0180
0180
0180
0180
0180
0180
0180
ENDCHAR

STARTCHAR a274
ENCODING 41588
SWIDTH 481 0
DWIDTH 16 0
BBX 16 15 0 -2
BITMAP
0180
0180
0180
0180
0180
0180
FF80
FF80
0180
0180
0180
0180
0180
0180
0180
ENDCHAR

STARTCHAR a275
ENCODING 41589
SWIDTH 481 0
DWIDTH 16 0
BBX 16 15 0 -2
BITMAP
0180
0180
0180
0180
0180
0180
01FF
01FF
0180
0180
0180
0180
0180
0180
0180
ENDCHAR

STARTCHAR a276
ENCODING 41590
SWIDTH 481 0
DWIDTH 16 0
BBX 16 15 0 -2
BITMAP
FFFF
0000
0000
0000
0000
0000
0000
0000
0000
0000
0000
0000
0000
0000
0000
ENDCHAR

STARTCHAR a277
ENCODING 41591
SWIDTH 481 0
DWIDTH 16 0
BBX 16 15 0 -2
BITMAP
0000
0000
0000
0000
0000
0000
FFFF
FFFF
0000
0000
0000
0000
0000
0000
0000
ENDCHAR

STARTCHAR a278
ENCODING 41592
SWIDTH 481 0
DWIDTH 16 0
BBX 16 15 0 -2
BITMAP
0180
0180
0180
0180
0180
0180
0180
0180
0180
0180
0180
0180
0180
0180
0180
ENDCHAR

STARTCHAR a279
ENCODING 41593
SWIDTH 481 0
DWIDTH 16 0
BBX 16 15 0 -2
BITMAP
0003
0003
0003
0003
0003
0003
0003
0003
0003
0003
0003
0003
0003
0003
0003
ENDCHAR

STARTCHAR a27a
ENCODING 41594
SWIDTH 481 0
DWIDTH 16 0
BBX 16 15 0 -2
BITMAP
0000
0000
0000
0000
0000
0000
01FF
01FF
0180
0180
0180
0180
0180
0180
0180
ENDCHAR

STARTCHAR a27b
ENCODING 41595
SWIDTH 481 0
DWIDTH 16 0
BBX 16 15 0 -2
BITMAP
0000
0000
0000
0000
0000
0000
FF80
FF80
0180
0180
0180
0180
0180
0180
0180
ENDCHAR

STARTCHAR a27c
ENCODING 41596
SWIDTH 481 0
DWIDTH 16 0
BBX 16 15 0 -2
BITMAP
0180
0180
0180
0180
0180
0180
01FF
01FF
0000
0000
0000
0000
0000
0000
0000
ENDCHAR

STARTCHAR a27d
ENCODING 41597
SWIDTH 481 0
DWIDTH 16 0
BBX 16 15 0 -2
BITMAP
0180
0180
0180
0180
0180
0180
FF80
FF80
0000
0000
0000
0000
0000
0000
0000
ENDCHAR

STARTCHAR a27e
ENCODING 41598
SWIDTH 481 0
DWIDTH 16 0
BBX 16 15 0 -2
BITMAP
0000
0000
0000
0000
0000
0000
0000
001E
007E
00E0
00C0
0180
0180
0180
0180
ENDCHAR

STARTCHAR a2a1
ENCODING 41633
SWIDTH 481 0
DWIDTH 16 0
BBX 16 15 0 -2
BITMAP
0000
0000
0000
0000
0000
0000
0000
F000
FC00
0E00
0600
0300
0300
0300
0300
ENDCHAR

STARTCHAR a2a2
ENCODING 41634
SWIDTH 481 0
DWIDTH 16 0
BBX 16 15 0 -2
BITMAP
0180
0180
0180
00C0
00E0
007E
001E
0000
0000
0000
0000
0000
0000
0000
0000
ENDCHAR

STARTCHAR a2a3
ENCODING 41635
SWIDTH 481 0
DWIDTH 16 0
BBX 16 15 0 -2
BITMAP
0300
0300
0300
0600
0E00
FC00
F000
0000
0000
0000
0000
0000
0000
0000
0000
ENDCHAR

STARTCHAR a2a4
ENCODING 41636
SWIDTH 481 0
DWIDTH 16 0
BBX 16 15 0 -2
BITMAP
0000
0000
0000
FFFF
FFFF
0000
0000
0000
0000
0000
FFFF
FFFF
0000
0000
0000
ENDCHAR

STARTCHAR a2a5
ENCODING 41637
SWIDTH 481 0
DWIDTH 16 0
BBX 16 15 0 -2
BITMAP
0180
0180
0180
01FF
01FF
0180
0180
0180
0180
0180
01FF
01FF
0180
0180
0180
ENDCHAR

STARTCHAR a2a6
ENCODING 41638
SWIDTH 481 0
DWIDTH 16 0
BBX 16 15 0 -2
BITMAP
0180
0180
0180
FFFF
FFFF
0180
0180
0180
0180
0180
FFFF
FFFF
0180
0180
0180
ENDCHAR

STARTCHAR a2a7
ENCODING 41639
SWIDTH 481 0
DWIDTH 16 0
BBX 16 15 0 -2
BITMAP
0180
0180
0180
FF80
FF80
0180
0180
0180
0180
0180
FF80
FF80
0180
0180
0180
ENDCHAR

STARTCHAR a2a8
ENCODING 41640
SWIDTH 481 0
DWIDTH 16 0
BBX 16 15 0 -2
BITMAP
0001
0003
0007
000F
001F
003F
007F
00FF
01FF
03FF
07FF
0FFF
1FFF
3FFF
7FFF
ENDCHAR

STARTCHAR a2a9
ENCODING 41641
SWIDTH 481 0
DWIDTH 16 0
BBX 16 15 0 -2
BITMAP
8000
C000
E000
F000
F800
FC00
FE00
FF00
FF80
FFC0
FFE0
FFF0
FFF8
FFFC
FFFE
ENDCHAR

STARTCHAR a2aa
ENCODING 41642
SWIDTH 481 0
DWIDTH 16 0
BBX 16 15 0 -2
BITMAP
7FFF
3FFF
1FFF
0FFF
07FF
03FF
01FF
00FF
007F
003F
001F
000F
0007
0003
0001
ENDCHAR

STARTCHAR a2ab
ENCODING 41643
SWIDTH 481 0
DWIDTH 16 0
BBX 16 15 0 -2
BITMAP
FFFE
FFFC
FFF8
FFF0
FFE0
FFC0
FF80
FF00
FE00
FC00
F800
F000
E000
C000
8000
ENDCHAR

STARTCHAR a2ac
ENCODING 41644
SWIDTH 481 0
DWIDTH 16 0
BBX 16 15 0 -2
BITMAP
0003
0006
000C
0018
0030
0060
00C0
0180
0300
0600
0C00
1800
3000
6000
C000
ENDCHAR

STARTCHAR a2ad
ENCODING 41645
SWIDTH 481 0
DWIDTH 16 0
BBX 16 15 0 -2
BITMAP
C000
6000
3000
1800
0C00
0600
0300
0180
00C0
0060
0030
0018
000C
0006
0003
ENDCHAR

STARTCHAR a2ae
ENCODING 41646
SWIDTH 481 0
DWIDTH 16 0
BBX 16 15 0 -2
BITMAP
C003
6006
300C
1818
0C30
0660
03C0
0180
03C0
0660
0C30
1818
300C
6006
C003
ENDCHAR

STARTCHAR a2af
ENCODING 41647
SWIDTH 481 0
DWIDTH 16 0
BBX 16 15 0 -2
BITMAP
07F0
0C18
180C
181C
183C
186C
18CC
198C
1B0C
1E0C
1C0C
180C
0C18
07F0
0000
ENDCHAR

STARTCHAR a2b0
ENCODING 41648
SWIDTH 481 0
DWIDTH 16 0
BBX 16 15 0 -2
BITMAP
0180
0380
0780
0180
0180
0180
0180
0180
0180
0180
0180
0180
0180
0FF0
0000
ENDCHAR

STARTCHAR a2b1
ENCODING 41649
SWIDTH 481 0
DWIDTH 16 0
BBX 16 15 0 -2
BITMAP
07F0
0C18
180C
180C
181C
0038
00E0
0180
0700
0C00
1804
1804
1FFC
1FFC
0000
ENDCHAR

STARTCHAR a2b2
ENCODING 41650
SWIDTH 481 0
DWIDTH 16 0
BBX 16 15 0 -2
BITMAP
03E0
0C18
180C
180C
0018
0070
01E0
0070
0018
000C
180C
180C
0C18
03E0
0000
ENDCHAR

STARTCHAR a2b3
ENCODING 41651
SWIDTH 481 0
DWIDTH 16 0
BBX 16 15 0 -2
BITMAP
0060
00E0
01E0
0360
0660
0C60
1860
3060
6060
6060
7FFC
0060
0060
01F8
0000
ENDCHAR

STARTCHAR a2b4
ENCODING 41652
SWIDTH 481 0
DWIDTH 16 0
BBX 16 15 0 -2
BITMAP
1FF8
1FF8
1800
1800
1800
1BE0
1C18
180C
000C
000C
180C
180C
0C18
03E0
0000
ENDCHAR

STARTCHAR a2b5
ENCODING 41653
SWIDTH 481 0
DWIDTH 16 0
BBX 16 15 0 -2
BITMAP
03F0
0C18
1818
1800
1800
1800
1BF0
1C18
180C
180C
180C
180C
0C18
07E0
0000
ENDCHAR

STARTCHAR a2b6
ENCODING 41654
SWIDTH 481 0
DWIDTH 16 0
BBX 16 15 0 -2
BITMAP
1FFC
1FFC
100C
100C
0018
0030
0060
00C0
0180
0180
0180
0180
0180
0180
0000
ENDCHAR

STARTCHAR a2b7
ENCODING 41655
SWIDTH 481 0
DWIDTH 16 0
BBX 16 15 0 -2
BITMAP
03C0
0C30
1818
1818
1818
0C30
07E0
0C30
1818
300C
300C
300C
1818
07E0
0000
ENDCHAR

STARTCHAR a2b8
ENCODING 41656
SWIDTH 481 0
DWIDTH 16 0
BBX 16 15 0 -2
BITMAP
03C0
0C30
1818
180C
180C
180C
181C
0C3C
03CC
000C
1818
1C18
0C30
03C0
0000
ENDCHAR

STARTCHAR a2b9
ENCODING 41657
SWIDTH 481 0
DWIDTH 16 0
BBX 16 15 0 -2
BITMAP
0FF0
0180
0180
0180
0180
0180
0180
0180
0180
0180
0180
0180
0FF0
0000
0000
ENDCHAR

STARTCHAR a2ba
ENCODING 41658
SWIDTH 481 0
DWIDTH 16 0
BBX 16 15 0 -2
BITMAP
0FF8
0360
0360
0360
0360
0360
0360
0360
0360
0360
0360
0360
0FF8
0000
0000
ENDCHAR

STARTCHAR a2bb
ENCODING 41659
SWIDTH 481 0
DWIDTH 16 0
BBX 16 15 0 -2
BITMAP
3FF8
0DB0
0DB0
0DB0
0DB0
0DB0
0DB0
0DB0
0DB0
0DB0
0DB0
0DB0
3FF8
0000
0000
ENDCHAR

STARTCHAR a2bc
ENCODING 41660
SWIDTH 481 0
DWIDTH 16 0
BBX 16 15 0 -2
BITMAP
FE0E
6404
6404
6404
6208
6208
6208
6110
6110
6110
60A0
60A0
F840
0000
0000
ENDCHAR

STARTCHAR a2bd
ENCODING 41661
SWIDTH 481 0
DWIDTH 16 0
BBX 16 15 0 -2
BITMAP
F83E
2008
2008
2008
2008
1010
1010
0820
0820
0440
0280
0280
0100
0000
0000
ENDCHAR

STARTCHAR a2be
ENCODING 41662
SWIDTH 481 0
DWIDTH 16 0
BBX 16 15 0 -2
BITMAP
E1DE
408C
408C
408C
408C
408C
618C
210C
330C
120C
1E0C
0C0C
0C1E
0000
0000
ENDCHAR

STARTCHAR a2bf
ENCODING 41663
SWIDTH 481 0
DWIDTH 16 0
BBX 16 15 0 -2
BITMAP
F1FE
4094
4094
4094
4094
6194
2114
2114
3314
1214
1E14
0C14
0C3E
0000
0000
ENDCHAR

STARTCHAR a2c0
ENCODING 41664
SWIDTH 481 0
DWIDTH 16 0
BBX 16 15 0 -2
BITMAP
E3FE
4154
4154
4154
4154
4154
6354
2254
2254
2254
3654
1454
08FE
0000
0000
ENDCHAR

STARTCHAR a2c1
ENCODING 41665
SWIDTH 481 0
DWIDTH 16 0
BBX 16 15 0 -2
BITMAP
FE0E
6404
660C
6318
61B0
60E0
6040
60E0
61B0
6318
660C
6404
FE0E
0000
0000
ENDCHAR

STARTCHAR a2c2
ENCODING 41666
SWIDTH 481 0
DWIDTH 16 0
BBX 16 15 0 -2
BITMAP
781E
300C
1818
0C30
0660
03C0
0180
03C0
0660
0C30
1818
300C
781E
0000
0000
ENDCHAR

STARTCHAR a2c3
ENCODING 41667
SWIDTH 481 0
DWIDTH 16 0
BBX 16 15 0 -2
BITMAP
0180
0180
0180
0180
0180
0180
0180
0180
0180
0180
0180
0180
0180
0180
0080
ENDCHAR

STARTCHAR a2c4
ENCODING 41668
SWIDTH 481 0
DWIDTH 16 0
BBX 16 15 0 -2
BITMAP
0060
0260
0660
0660
0660
0660
0660
0660
0660
0660
0660
0660
0260
0060
0020
ENDCHAR

STARTCHAR a2c5
ENCODING 41669
SWIDTH 481 0
DWIDTH 16 0
BBX 16 15 0 -2
BITMAP
0018
0818
1818
1898
1998
1998
1998
1998
1998
1998
1998
1898
0818
0018
0008
ENDCHAR

STARTCHAR a2c6
ENCODING 41670
SWIDTH 481 0
DWIDTH 16 0
BBX 16 15 0 -2
BITMAP
0000
600C
3018
1830
0C60
06C0
0380
0380
06C0
0C60
1830
3018
600C
0000
0000
ENDCHAR

STARTCHAR a2c7
ENCODING 41671
SWIDTH 481 0
DWIDTH 16 0
BBX 16 15 0 -2
BITMAP
0000
0198
0198
0330
0360
03C0
01C0
0360
0630
0630
0630
0630
0660
03C0
0000
ENDCHAR

STARTCHAR a2c8
ENCODING 41672
SWIDTH 481 0
DWIDTH 16 0
BBX 16 15 0 -2
BITMAP
0000
0000
0100
0180
0180
0180
0188
3FFC
3FFE
0000
0000
0000
0000
0000
0000
ENDCHAR

STARTCHAR a2c9
ENCODING 41673
SWIDTH 481 0
DWIDTH 16 0
BBX 16 15 0 -2
BITMAP
0000
0100
0180
0180
0188
7FFC
7FFE
0000
0020
1FF0
1FF8
0000
0000
0000
0000
ENDCHAR

STARTCHAR a2ca
ENCODING 41674
SWIDTH 481 0
DWIDTH 16 0
BBX 16 15 0 -2
BITMAP
0200
0300
0300
0320
7FF0
7FF8
0000
0000
1FE0
1FE0
0000
0008
FFFC
FFFE
0000
ENDCHAR

STARTCHAR a2cb
ENCODING 41675
SWIDTH 481 0
DWIDTH 16 0
BBX 16 15 0 -2
BITMAP
0100
0300
0600
0FF8
1FFC
1818
0C30
0660
03C0
0180
03C0
0670
1C3E
380C
0000
ENDCHAR

STARTCHAR a2cc
ENCODING 41676
SWIDTH 481 0
DWIDTH 16 0
BBX 16 15 0 -2
BITMAP
0180
0180
0180
0180
0180
0184
3FFE
0180
0180
0180
0180
0180
0180
0180
0000
ENDCHAR

STARTCHAR a2cd
ENCODING 41677
SWIDTH 481 0
DWIDTH 16 0
BBX 16 15 0 -2
BITMAP
0880
0CC0
0EE0
0CC0
0CC0
0CC8
FFFC
FFFE
0CC0
0CC0
0CC0
0CC0
0CC0
0000
0000
ENDCHAR

STARTCHAR a2ce
ENCODING 41678
SWIDTH 481 0
DWIDTH 16 0
BBX 16 15 0 -2
BITMAP
0000
3330
3330
3330
3330
FFFC
FFFE
3330
3330
3330
3330
3330
3320
0000
0000
ENDCHAR

STARTCHAR a2cf
ENCODING 41679
SWIDTH 481 0
DWIDTH 16 0
BBX 16 15 0 -2
BITMAP
0180
0180
03C0
03C0
0660
0660
0C30
0C30
0FF0
1818
1818
300C
300C
781E
0000
ENDCHAR

STARTCHAR a2d0
ENCODING 41680
SWIDTH 481 0
DWIDTH 16 0
BBX 16 15 0 -2
BITMAP
1FC0
0C30
0C18
0C18
0C18
0C30
0FE0
0C30
0C18
0C0C
0C0C
0C0C
0C18
1FE0
0000
ENDCHAR

STARTCHAR a2d1
ENCODING 41681
SWIDTH 481 0
DWIDTH 16 0
BBX 16 15 0 -2
BITMAP
03C4
0C34
181C
300C
3004
3000
3000
3000
3000
3004
300C
1818
0C30
03C0
0000
ENDCHAR

STARTCHAR a2d2
ENCODING 41682
SWIDTH 481 0
DWIDTH 16 0
BBX 16 15 0 -2
BITMAP
3FC0
1870
181C
180C
180C
180C
180C
180C
180C
180C
180C
1818
1870
3FC0
0000
ENDCHAR

STARTCHAR a2d3
ENCODING 41683
SWIDTH 481 0
DWIDTH 16 0
BBX 16 15 0 -2
BITMAP
1FF8
0C18
0C08
0C00
0C40
0C40
0FC0
0C40
0C40
0C00
0C00
0C08
0C18
1FF8
0000
ENDCHAR

STARTCHAR a2d4
ENCODING 41684
SWIDTH 481 0
DWIDTH 16 0
BBX 16 15 0 -2
BITMAP
1FF8
0C18
0C08
0C00
0C40
0C40
0FC0
0C40
0C40
0C00
0C00
0C00
0C00
1E00
0000
ENDCHAR

STARTCHAR a2d5
ENCODING 41685
SWIDTH 481 0
DWIDTH 16 0
BBX 16 15 0 -2
BITMAP
07C8
0C38
1818
3008
3008
3000
3000
303C
3018
3018
3018
1838
0C78
07D8
0000
ENDCHAR

STARTCHAR a2d6
ENCODING 41686
SWIDTH 481 0
DWIDTH 16 0
BBX 16 15 0 -2
BITMAP
3C3C
1818
1818
1818
1818
1818
1FF8
1818
1818
1818
1818
1818
1818
3C3C
0000
ENDCHAR

STARTCHAR a2d7
ENCODING 41687
SWIDTH 481 0
DWIDTH 16 0
BBX 16 15 0 -2
BITMAP
07E0
0180
0180
0180
0180
0180
0180
0180
0180
0180
0180
0180
0180
07E0
0000
ENDCHAR

STARTCHAR a2d8
ENCODING 41688
SWIDTH 481 0
DWIDTH 16 0
BBX 16 15 0 -2
BITMAP
00F8
0030
0030
0030
0030
0030
0030
0030
0030
1830
1830
1870
0CE0
0780
0000
ENDCHAR

STARTCHAR a2d9
ENCODING 41689
SWIDTH 481 0
DWIDTH 16 0
BBX 16 15 0 -2
BITMAP
3C7C
1830
1860
18C0
1980
1B00
1E00
1F00
1980
18C0
1860
1830
1818
3C3E
0000
ENDCHAR

STARTCHAR a2da
ENCODING 41690
SWIDTH 481 0
DWIDTH 16 0
BBX 16 15 0 -2
BITMAP
1E00
0C00
0C00
0C00
0C00
0C00
0C00
0C00
0C00
0C00
0C04
0C0C
0C1C
1FFC
0000
ENDCHAR

STARTCHAR a2db
ENCODING 41691
SWIDTH 481 0
DWIDTH 16 0
BBX 16 15 0 -2
BITMAP
F01E
701C
783C
783C
6C6C
6C6C
644C
66CC
66CC
628C
638C
610C
600C
F03E
0000
ENDCHAR

STARTCHAR a2dc
ENCODING 41692
SWIDTH 481 0
DWIDTH 16 0
BBX 16 15 0 -2
BITMAP
E03C
7018
7818
7C18
6E18
6718
6398
61D8
60F8
6078
6038
6018
6018
F03C
0000
ENDCHAR

STARTCHAR a2dd
ENCODING 41693
SWIDTH 481 0
DWIDTH 16 0
BBX 16 15 0 -2
BITMAP
07E0
1C38
381C
300C
300C
300C
300C
300C
300C
300C
300C
381C
1C38
07E0
0000
ENDCHAR

STARTCHAR a2de
ENCODING 41694
SWIDTH 481 0
DWIDTH 16 0
BBX 16 15 0 -2
BITMAP
1FE0
0C38
0C1C
0C0C
0C0C
0C1C
0C38
0FE0
0C00
0C00
0C00
0C00
0C00
1E00
0000
ENDCHAR

STARTCHAR a2df
ENCODING 41695
SWIDTH 481 0
DWIDTH 16 0
BBX 16 15 0 -2
BITMAP
0FC0
3870
7038
6018
6018
6018
6018
6018
6018
6018
6798
70F8
3870
0FF6
001C
ENDCHAR

STARTCHAR a2e0
ENCODING 41696
SWIDTH 481 0
DWIDTH 16 0
BBX 16 15 0 -2
BITMAP
1FC0
0C70
0C38
0C18
0C18
0C38
0C70
0FE0
0DC0
0CC0
0C60
0C30
0C18
1E3E
0000
ENDCHAR

STARTCHAR a2e1
ENCODING 41697
SWIDTH 481 0
DWIDTH 16 0
BBX 16 15 0 -2
BITMAP
07E8
0C38
1818
1808
0C00
0700
01C0
0070
0018
100C
180C
1C0C
1618
13F0
0000
ENDCHAR

STARTCHAR a2e2
ENCODING 41698
SWIDTH 481 0
DWIDTH 16 0
BBX 16 15 0 -2
BITMAP
3FFC
399C
318C
2184
0180
0180
0180
0180
0180
0180
0180
0180
0180
03C0
0000
ENDCHAR

STARTCHAR a2e3
ENCODING 41699
SWIDTH 481 0
DWIDTH 16 0
BBX 16 15 0 -2
BITMAP
3C3C
1818
1818
1818
1818
1818
1818
1818
1818
1818
1818
1818
0E70
07E0
0000
ENDCHAR

STARTCHAR a2e4
ENCODING 41700
SWIDTH 481 0
DWIDTH 16 0
BBX 16 15 0 -2
BITMAP
783C
3018
3018
3018
3018
3018
3018
3018
3018
1830
0C60
06C0
0380
0100
0000
ENDCHAR

STARTCHAR a2e5
ENCODING 41701
SWIDTH 481 0
DWIDTH 16 0
BBX 16 15 0 -2
BITMAP
E38E
4104
4104
638C
238C
2288
2288
36D8
36D8
1450
1C70
0820
0820
0820
0000
ENDCHAR

STARTCHAR a2e6
ENCODING 41702
SWIDTH 481 0
DWIDTH 16 0
BBX 16 15 0 -2
BITMAP
F83E
3018
1830
0C60
0440
06C0
0380
0100
0380
06C0
0C60
1830
3018
F83E
0000
ENDCHAR

STARTCHAR a2e7
ENCODING 41703
SWIDTH 481 0
DWIDTH 16 0
BBX 16 15 0 -2
BITMAP
781E
300C
1818
0C30
0660
03C0
0180
0180
0180
0180
0180
0180
0180
03C0
0000
ENDCHAR

STARTCHAR a2e8
ENCODING 41704
SWIDTH 481 0
DWIDTH 16 0
BBX 16 15 0 -2
BITMAP
1FFC
180C
100C
0018
0030
0060
00C0
0180
0300
0600
0C00
1804
300C
3FFC
0000
ENDCHAR

STARTCHAR a2e9
ENCODING 41705
SWIDTH 481 0
DWIDTH 16 0
BBX 16 15 0 -2
BITMAP
0000
0000
0000
0000
0000
07C0
1860
0060
07E0
0C60
1860
1860
18E8
0FB0
0000
ENDCHAR

STARTCHAR a2ea
ENCODING 41706
SWIDTH 481 0
DWIDTH 16 0
BBX 16 15 0 -2
BITMAP
1C00
0C00
0C00
0C00
0C00
0FE0
0E30
0C18
0C18
0C18
0C18
0C18
0E30
1FE0
0000
ENDCHAR

STARTCHAR a2eb
ENCODING 41707
SWIDTH 481 0
DWIDTH 16 0
BBX 16 15 0 -2
BITMAP
0000
0000
0000
0000
0000
07E0
0C30
1830
1830
1800
1800
1800
0C10
07E0
0000
ENDCHAR

STARTCHAR a2ec
ENCODING 41708
SWIDTH 481 0
DWIDTH 16 0
BBX 16 15 0 -2
BITMAP
0038
0018
0018
0018
0018
07D8
0C38
1818
1818
1818
1818
1818
0C38
07D8
0000
ENDCHAR

STARTCHAR a2ed
ENCODING 41709
SWIDTH 481 0
DWIDTH 16 0
BBX 16 15 0 -2
BITMAP
0000
0000
0000
0000
0000
07E0
0C30
1818
1818
1FF8
1800
1800
0C18
07F0
0000
ENDCHAR

STARTCHAR a2ee
ENCODING 41710
SWIDTH 481 0
DWIDTH 16 0
BBX 16 15 0 -2
BITMAP
01E0
0330
0330
0300
0300
1FE0
0300
0300
0300
0300
0300
0300
0300
0780
0000
ENDCHAR

STARTCHAR a2ef
ENCODING 41711
SWIDTH 481 0
DWIDTH 16 0
BBX 16 15 0 -2
BITMAP
0000
0000
0000
0000
07D8
0C70
0C60
0C60
07C0
0380
0C60
1830
1830
0C60
07C0
ENDCHAR

STARTCHAR a2f0
ENCODING 41712
SWIDTH 481 0
DWIDTH 16 0
BBX 16 15 0 -2
BITMAP
1C00
0C00
0C00
0C00
0C00
0DE0
0F30
0E18
0C18
0C18
0C18
0C18
0C18
1E3C
0000
ENDCHAR

STARTCHAR a2f1
ENCODING 41713
SWIDTH 481 0
DWIDTH 16 0
BBX 16 15 0 -2
BITMAP
0000
0180
0180
0000
0000
0380
0180
0180
0180
0180
0180
0180
0180
03C0
0000
ENDCHAR

STARTCHAR a2f2
ENCODING 41714
SWIDTH 481 0
DWIDTH 16 0
BBX 16 15 0 -2
BITMAP
00C0
00C0
0000
0000
01C0
00C0
00C0
00C0
00C0
00C0
0CC0
0CC0
0CC0
0780
0000
ENDCHAR

STARTCHAR a2f3
ENCODING 41715
SWIDTH 481 0
DWIDTH 16 0
BBX 16 15 0 -2
BITMAP
1C00
0C00
0C00
0C00
0C00
0CF8
0C60
0CC0
0D80
0FC0
0E60
0C30
0C18
1E3E
0000
ENDCHAR

STARTCHAR a2f4
ENCODING 41716
SWIDTH 481 0
DWIDTH 16 0
BBX 16 15 0 -2
BITMAP
0380
0180
0180
0180
0180
0180
0180
0180
0180
0180
0180
0180
0180
03C0
0000
ENDCHAR

STARTCHAR a2f5
ENCODING 41717
SWIDTH 481 0
DWIDTH 16 0
BBX 16 15 0 -2
BITMAP
0000
0000
0000
0000
0000
6F78
39CC
318C
318C
318C
318C
318C
318C
79CE
0000
ENDCHAR

STARTCHAR a2f6
ENCODING 41718
SWIDTH 481 0
DWIDTH 16 0
BBX 16 15 0 -2
BITMAP
0000
0000
0000
0000
0000
1BE0
0E30
0C30
0C30
0C30
0C30
0C30
0C30
1E78
0000
ENDCHAR

STARTCHAR a2f7
ENCODING 41719
SWIDTH 481 0
DWIDTH 16 0
BBX 16 15 0 -2
BITMAP
0000
0000
0000
0000
0000
07E0
0C30
1818
1818
1818
1818
1818
0C30
07E0
0000
ENDCHAR

STARTCHAR a2f8
ENCODING 41720
SWIDTH 481 0
DWIDTH 16 0
BBX 16 15 0 -2
BITMAP
0000
0000
0000
0000
0000
1BE0
0E30
0C18
0C18
0C18
0E30
0FE0
0C00
0C00
1E00
ENDCHAR

STARTCHAR a2f9
ENCODING 41721
SWIDTH 481 0
DWIDTH 16 0
BBX 16 15 0 -2
BITMAP
0000
0000
0000
0000
0000
07C0
0C70
1830
1830
1830
0C70
07F0
0030
0030
0078
ENDCHAR

STARTCHAR a2fa
ENCODING 41722
SWIDTH 481 0
DWIDTH 16 0
BBX 16 15 0 -2
BITMAP
0000
0000
0000
0000
0000
0DE0
0770
0630
0600
0600
0600
0600
0600
0F00
0000
ENDCHAR

STARTCHAR a2fb
ENCODING 41723
SWIDTH 481 0
DWIDTH 16 0
BBX 16 15 0 -2
BITMAP
0000
0000
0000
0000
0000
07E0
0C70
0C10
0700
0180
00E0
0830
0C30
07E0
0000
ENDCHAR

STARTCHAR a2fc
ENCODING 41724
SWIDTH 481 0
DWIDTH 16 0
BBX 16 15 0 -2
BITMAP
0000
0000
0300
0300
0300
1FE0
0300
0300
0300
0300
0300
0330
0370
03E0
0180
ENDCHAR

STARTCHAR a2fd
ENCODING 41725
SWIDTH 481 0
DWIDTH 16 0
BBX 16 15 0 -2
BITMAP
0000
0000
0000
0000
0000
1C70
0C30
0C30
0C30
0C30
0C30
0C30
0C70
07DC
0000
ENDCHAR

STARTCHAR a2fe
ENCODING 41726
SWIDTH 481 0
DWIDTH 16 0
BBX 16 15 0 -2
BITMAP
0000
0000
0000
0000
0000
1E3C
0C18
0630
0630
0360
0360
01C0
01C0
0080
0000
ENDCHAR

STARTCHAR a340
ENCODING 41792
SWIDTH 481 0
DWIDTH 16 0
BBX 16 15 0 -2
BITMAP
0000
0000
0000
0000
0000
739C
2108
2108
2108
2108
2288
1450
0820
0820
0000
ENDCHAR

STARTCHAR a341
ENCODING 41793
SWIDTH 481 0
DWIDTH 16 0
BBX 16 15 0 -2
BITMAP
0000
0000
0000
0000
0000
3E7C
0C30
0660
03C0
0180
03C0
0660
0C30
3E7C
0000
ENDCHAR

STARTCHAR a342
ENCODING 41794
SWIDTH 481 0
DWIDTH 16 0
BBX 16 15 0 -2
BITMAP
0000
0000
0000
0000
0000
1E3C
0C18
0630
0330
01E0
00E0
00C0
1980
1B80
0F00
ENDCHAR

STARTCHAR a343
ENCODING 41795
SWIDTH 481 0
DWIDTH 16 0
BBX 16 15 0 -2
BITMAP
0000
0000
0000
0000
0000
0FF0
0C30
0860
00C0
0180
0300
0608
0C18
0FF8
0000
ENDCHAR

STARTCHAR a344
ENCODING 41796
SWIDTH 481 0
DWIDTH 16 0
BBX 16 15 0 -2
BITMAP
0080
01C0
01C0
0360
0360
0360
0630
0630
07F0
0C18
0C18
180C
180C
3C1E
0000
ENDCHAR

STARTCHAR a345
ENCODING 41797
SWIDTH 481 0
DWIDTH 16 0
BBX 16 15 0 -2
BITMAP
1FE0
0C70
0C18
0C18
0C18
0C30
0FE0
0C30
0C18
0C0C
0C0C
0C0C
0C18
1FF0
0000
ENDCHAR

STARTCHAR a346
ENCODING 41798
SWIDTH 481 0
DWIDTH 16 0
BBX 16 15 0 -2
BITMAP
1FFC
0C1C
0C0C
0C04
0C00
0C00
0C00
0C00
0C00
0C00
0C00
0C00
0C00
1E00
0000
ENDCHAR

STARTCHAR a347
ENCODING 41799
SWIDTH 481 0
DWIDTH 16 0
BBX 16 15 0 -2
BITMAP
0180
0180
03C0
0240
0660
0420
0C30
0810
1818
1008
300C
2004
6006
7FFE
0000
ENDCHAR

STARTCHAR a348
ENCODING 41800
SWIDTH 481 0
DWIDTH 16 0
BBX 16 15 0 -2
BITMAP
1FF8
0C18
0C08
0C00
0C40
0C40
0FC0
0C40
0C40
0C00
0C00
0C08
0C18
1FF8
0000
ENDCHAR

STARTCHAR a349
ENCODING 41801
SWIDTH 481 0
DWIDTH 16 0
BBX 16 15 0 -2
BITMAP
1FFE
180E
100C
0018
0030
0060
00C0
0180
0300
0600
0C00
1804
300C
3FFC
0000
ENDCHAR

STARTCHAR a34a
ENCODING 41802
SWIDTH 481 0
DWIDTH 16 0
BBX 16 15 0 -2
BITMAP
3C3C
1818
1818
1818
1818
1818
1FF8
1818
1818
1818
1818
1818
1818
3C3C
0000
ENDCHAR

STARTCHAR a34b
ENCODING 41803
SWIDTH 481 0
DWIDTH 16 0
BBX 16 15 0 -2
BITMAP
0000
07C0
1C70
3018
3018
3458
37D8
37D8
3458
3018
3018
1C70
07C0
0000
0000
ENDCHAR

STARTCHAR a34c
ENCODING 41804
SWIDTH 481 0
DWIDTH 16 0
BBX 16 15 0 -2
BITMAP
07E0
0180
0180
0180
0180
0180
0180
0180
0180
0180
0180
0180
0180
07E0
0000
ENDCHAR

STARTCHAR a34d
ENCODING 41805
SWIDTH 481 0
DWIDTH 16 0
BBX 16 15 0 -2
BITMAP
3C3C
1818
1830
1860
18C0
1980
1B00
1F80
1CC0
1860
1830
1818
180C
3C1E
0000
ENDCHAR

STARTCHAR a34e
ENCODING 41806
SWIDTH 481 0
DWIDTH 16 0
BBX 16 15 0 -2
BITMAP
0180
0180
03C0
0660
0660
0660
0C30
0C30
1818
1818
300C
300C
6006
700E
0000
ENDCHAR

STARTCHAR a34f
ENCODING 41807
SWIDTH 481 0
DWIDTH 16 0
BBX 16 15 0 -2
BITMAP
700E
381C
381C
3C3C
342C
342C
366C
366C
324C
324C
33CC
318C
318C
781E
0000
ENDCHAR

STARTCHAR a350
ENCODING 41808
SWIDTH 481 0
DWIDTH 16 0
BBX 16 15 0 -2
BITMAP
3C1E
1C0C
1E0C
1F0C
1B0C
198C
19CC
18CC
186C
187C
183C
181C
181C
3C0C
0000
ENDCHAR

STARTCHAR a351
ENCODING 41809
SWIDTH 481 0
DWIDTH 16 0
BBX 16 15 0 -2
BITMAP
0FFC
1FF8
1008
0000
0000
0408
0FF0
1020
0000
0000
0000
1004
1FFC
3FF8
0000
ENDCHAR

STARTCHAR a352
ENCODING 41810
SWIDTH 481 0
DWIDTH 16 0
BBX 16 15 0 -2
BITMAP
0000
07E0
1C38
300C
300C
300C
300C
300C
300C
300C
300C
300C
1C38
07E0
0000
ENDCHAR

STARTCHAR a353
ENCODING 41811
SWIDTH 481 0
DWIDTH 16 0
BBX 16 15 0 -2
BITMAP
3FFC
1818
1818
1818
1818
1818
1818
1818
1818
1818
1818
1818
1818
3C3C
0000
ENDCHAR

STARTCHAR a354
ENCODING 41812
SWIDTH 481 0
DWIDTH 16 0
BBX 16 15 0 -2
BITMAP
1FE0
0C38
0C1C
0C0C
0C0C
0C1C
0C38
0FE0
0C00
0C00
0C00
0C00
0C00
1E00
0000
ENDCHAR

STARTCHAR a355
ENCODING 41813
SWIDTH 481 0
DWIDTH 16 0
BBX 16 15 0 -2
BITMAP
1FFC
1FFC
0C0C
0604
0300
0180
00C0
00C0
0180
0300
0604
0C0C
1FFC
1FFC
0000
ENDCHAR

STARTCHAR a356
ENCODING 41814
SWIDTH 481 0
DWIDTH 16 0
BBX 16 15 0 -2
BITMAP
3FFC
399C
318C
2184
0180
0180
0180
0180
0180
0180
0180
0180
0180
03C0
0000
ENDCHAR

STARTCHAR a357
ENCODING 41815
SWIDTH 481 0
DWIDTH 16 0
BBX 16 15 0 -2
BITMAP
0E70
1FF8
31CC
318C
318C
0180
0180
0180
0180
0180
0180
0180
0180
03C0
0000
ENDCHAR

STARTCHAR a358
ENCODING 41816
SWIDTH 481 0
DWIDTH 16 0
BBX 16 15 0 -2
BITMAP
03C0
0180
07E0
1DB8
318C
6186
6186
6186
6186
318C
1DB8
07E0
0180
03C0
0000
ENDCHAR

STARTCHAR a359
ENCODING 41817
SWIDTH 481 0
DWIDTH 16 0
BBX 16 15 0 -2
BITMAP
7C1E
300C
1818
0C30
0660
03C0
0180
0180
03C0
0660
0C30
1818
300C
7C3E
0000
ENDCHAR

STARTCHAR a35a
ENCODING 41818
SWIDTH 481 0
DWIDTH 16 0
BBX 16 15 0 -2
BITMAP
63C6
F18F
9999
1998
1998
1998
1998
1998
0DB0
0DB0
07E0
0180
0180
03C0
0000
ENDCHAR

STARTCHAR a35b
ENCODING 41819
SWIDTH 481 0
DWIDTH 16 0
BBX 16 15 0 -2
BITMAP
03C0
0660
0C30
1818
1818
1818
1818
1818
0C30
0660
0660
3666
3E7E
0000
0000
ENDCHAR

STARTCHAR a35c
ENCODING 41820
SWIDTH 481 0
DWIDTH 16 0
BBX 16 15 0 -2
BITMAP
0000
0000
0000
0000
0000
03CE
0778
0C30
1830
1830
1830
1870
0CD8
078E
0000
ENDCHAR

STARTCHAR a35d
ENCODING 41821
SWIDTH 481 0
DWIDTH 16 0
BBX 16 15 0 -2
BITMAP
00F0
0198
030C
070C
0618
0C30
0DE0
0C60
1C30
1818
1818
3C30
33E0
3000
3000
ENDCHAR

STARTCHAR a35e
ENCODING 41822
SWIDTH 481 0
DWIDTH 16 0
BBX 16 15 0 -2
BITMAP
0000
0000
0000
0000
0000
0630
0F70
19E0
10C0
00C0
01C0
0180
0380
0700
0000
ENDCHAR

STARTCHAR a35f
ENCODING 41823
SWIDTH 481 0
DWIDTH 16 0
BBX 16 15 0 -2
BITMAP
01E0
0330
0318
0188
00F0
01E0
0730
0630
0C30
0C30
0C30
0C70
0EE0
07C0
0000
ENDCHAR

STARTCHAR a360
ENCODING 41824
SWIDTH 481 0
DWIDTH 16 0
BBX 16 15 0 -2
BITMAP
0000
0000
0000
0000
0000
03E0
0630
0400
0780
0780
0C00
0C10
07F0
01C0
0000
ENDCHAR

STARTCHAR a361
ENCODING 41825
SWIDTH 481 0
DWIDTH 16 0
BBX 16 15 0 -2
BITMAP
0300
0620
0C60
07C0
0180
0300
0600
0C00
0C00
0C00
0F00
07C0
00E0
0CE0
07C0
ENDCHAR

STARTCHAR a362
ENCODING 41826
SWIDTH 481 0
DWIDTH 16 0
BBX 16 15 0 -2
BITMAP
0000
0000
0000
0000
0000
1DE0
3770
0630
0630
0C30
0C30
0C30
0C30
0C60
0060
ENDCHAR

STARTCHAR a363
ENCODING 41827
SWIDTH 481 0
DWIDTH 16 0
BBX 16 15 0 -2
BITMAP
01E0
0330
0630
0C18
0C18
1C18
1FF8
1818
1838
1830
1870
1C60
0CC0
0780
0000
ENDCHAR

STARTCHAR a364
ENCODING 41828
SWIDTH 481 0
DWIDTH 16 0
BBX 16 15 0 -2
BITMAP
0000
0000
0000
0000
0000
0180
0180
0300
0700
0600
0E20
0C60
0FC0
0700
0000
ENDCHAR

STARTCHAR a365
ENCODING 41829
SWIDTH 481 0
DWIDTH 16 0
BBX 16 15 0 -2
BITMAP
0000
0000
0000
0000
0C00
1E30
3670
26C0
0D80
0F80
0EC0
0CC8
1CF8
3870
0000
ENDCHAR

STARTCHAR a366
ENCODING 41830
SWIDTH 481 0
DWIDTH 16 0
BBX 16 15 0 -2
BITMAP
0000
0F00
0180
00C0
00C0
00C0
01C0
03C0
03C0
06C0
0660
0C30
0C3C
0C1C
0000
ENDCHAR

STARTCHAR a367
ENCODING 41831
SWIDTH 481 0
DWIDTH 16 0
BBX 16 15 0 -2
BITMAP
0000
0000
0000
0000
0000
0630
0630
0630
0630
0C30
0C60
0C64
0EFC
1BB8
0000
ENDCHAR

STARTCHAR a368
ENCODING 41832
SWIDTH 481 0
DWIDTH 16 0
BBX 16 15 0 -2
BITMAP
0000
0000
0000
0000
0000
0C18
0618
0718
0318
0330
0660
0660
07C0
0700
0000
ENDCHAR

STARTCHAR a369
ENCODING 41833
SWIDTH 481 0
DWIDTH 16 0
BBX 16 15 0 -2
BITMAP
01C0
0300
07F0
0600
0600
0300
03F0
0600
0C00
0C00
0700
03C0
00E0
0630
03E0
ENDCHAR

STARTCHAR a36a
ENCODING 41834
SWIDTH 481 0
DWIDTH 16 0
BBX 16 15 0 -2
BITMAP
0000
0000
0000
0000
0000
03E0
0630
0C18
1818
1818
1818
1830
0C60
07C0
0000
ENDCHAR

STARTCHAR a36b
ENCODING 41835
SWIDTH 481 0
DWIDTH 16 0
BBX 16 15 0 -2
BITMAP
0000
0000
0000
0000
0018
0FF8
1FF0
0660
0660
0660
0660
0E68
1C78
1870
0000
ENDCHAR

STARTCHAR a36c
ENCODING 41836
SWIDTH 481 0
DWIDTH 16 0
BBX 16 15 0 -2
BITMAP
0000
0000
0000
0000
0000
01E0
0730
0618
0C18
0C18
1C18
1C30
1FE0
1800
1800
ENDCHAR

STARTCHAR a36d
ENCODING 41837
SWIDTH 481 0
DWIDTH 16 0
BBX 16 15 0 -2
BITMAP
0000
0000
0000
0000
0004
03CC
0678
0C30
1830
1830
1830
1860
0CC0
0780
0000
ENDCHAR

STARTCHAR a36e
ENCODING 41838
SWIDTH 481 0
DWIDTH 16 0
BBX 16 15 0 -2
BITMAP
0000
0000
0000
0000
0030
07E0
1FC0
0300
0300
0600
0600
0E40
0FC0
0700
0000
ENDCHAR

STARTCHAR a36f
ENCODING 41839
SWIDTH 481 0
DWIDTH 16 0
BBX 16 15 0 -2
BITMAP
0000
0000
0000
0000
0000
0C70
0630
0630
0630
0630
0630
0630
0660
03C0
0000
ENDCHAR

STARTCHAR a370
ENCODING 41840
SWIDTH 481 0
DWIDTH 16 0
BBX 16 15 0 -2
BITMAP
0060
0060
0060
03E0
07F0
0CD8
18D8
19D8
1998
0DB0
0FE0
03C0
0300
0600
3C00
ENDCHAR

STARTCHAR a371
ENCODING 41841
SWIDTH 481 0
DWIDTH 16 0
BBX 16 15 0 -2
BITMAP
0000
0000
0000
0C18
1E38
1360
01C0
0180
0380
06C0
0CC4
38EC
3078
0000
0000
ENDCHAR

STARTCHAR a372
ENCODING 41842
SWIDTH 481 0
DWIDTH 16 0
BBX 16 15 0 -2
BITMAP
0060
0060
0060
0060
00E0
06C8
0CD8
1CD8
1998
1998
1DB8
0DB0
07E0
0300
0700
ENDCHAR

STARTCHAR a373
ENCODING 41843
SWIDTH 481 0
DWIDTH 16 0
BBX 16 15 0 -2
BITMAP
0000
0000
0000
0000
0000
0718
0C0C
180C
18CC
18CC
198C
198C
1DD8
0770
0000
ENDCHAR

STARTCHAR a374
ENCODING 41844
SWIDTH 481 0
DWIDTH 16 0
BBX 16 15 0 -2
BITMAP
0600
0600
0C00
1800
3FF8
1FFC
000C
000C
000C
0018
0030
0660
03C0
0180
0000
ENDCHAR

STARTCHAR a375
ENCODING 41845
SWIDTH 481 0
DWIDTH 16 0
BBX 16 15 0 -2
BITMAP
0600
0600
0C00
1830
3FF8
0030
1860
0CC0
0780
0300
0780
0EE0
1878
703C
0000
ENDCHAR

STARTCHAR a376
ENCODING 41846
SWIDTH 481 0
DWIDTH 16 0
BBX 16 15 0 -2
BITMAP
0000
0000
0018
3FFC
300C
300C
300C
300C
300C
300C
300C
300C
300C
0000
0000
ENDCHAR

STARTCHAR a377
ENCODING 41847
SWIDTH 481 0
DWIDTH 16 0
BBX 16 15 0 -2
BITMAP
0000
0000
2000
7FFC
6000
6000
6000
6000
6000
6000
6000
6000
7FFC
0000
0000
ENDCHAR

STARTCHAR a378
ENCODING 41848
SWIDTH 481 0
DWIDTH 16 0
BBX 16 15 0 -2
BITMAP
0E00
1C08
31FC
3FFE
0186
0186
030C
070C
0E18
1C18
3830
F0F0
6060
0060
0000
ENDCHAR

STARTCHAR a379
ENCODING 41849
SWIDTH 481 0
DWIDTH 16 0
BBX 16 15 0 -2
BITMAP
0180
01C0
01C0
2184
7FFE
2180
0180
0180
0300
0600
0C30
1FF8
1FFC
0C0C
0000
ENDCHAR

STARTCHAR a37a
ENCODING 41850
SWIDTH 481 0
DWIDTH 16 0
BBX 16 15 0 -2
BITMAP
0180
0FC0
0C60
00C0
0180
03F0
0118
0018
0030
0030
0020
0660
03C0
0180
0000
ENDCHAR

STARTCHAR a37b
ENCODING 41851
SWIDTH 481 0
DWIDTH 16 0
BBX 16 15 0 -2
BITMAP
0C00
0E60
1C60
30C8
3FFC
1FFE
0306
0306
060C
0C0C
1C18
3830
F070
61E0
00C0
ENDCHAR

STARTCHAR a37c
ENCODING 41852
SWIDTH 481 0
DWIDTH 16 0
BBX 16 15 0 -2
BITMAP
0000
0318
0318
0630
0C60
18C0
3180
3180
18C0
0C60
0630
0318
039C
0000
0000
ENDCHAR

STARTCHAR a37d
ENCODING 41853
SWIDTH 481 0
DWIDTH 16 0
BBX 16 15 0 -2
BITMAP
0018
7FFC
3F00
0300
0600
0FF0
0FF8
0018
0018
0030
0030
0C60
07C0
0380
0000
ENDCHAR

STARTCHAR a37e
ENCODING 41854
SWIDTH 481 0
DWIDTH 16 0
BBX 16 15 0 -2
BITMAP
0004
0FFE
1C00
0C00
0C00
0C00
0C00
0C00
0C00
0C00
0C00
1C00
3800
7000
0000
ENDCHAR

STARTCHAR a3a1
ENCODING 41889
SWIDTH 481 0
DWIDTH 16 0
BBX 16 15 0 -2
BITMAP
0030
1830
3830
1830
1830
1870
19F0
1FB0
1E30
0830
0030
0030
0030
0070
0020
ENDCHAR

STARTCHAR a3a2
ENCODING 41890
SWIDTH 481 0
DWIDTH 16 0
BBX 16 15 0 -2
BITMAP
0070
0070
00E0
01C0
0380
0700
0E00
1C00
0E00
0700
0380
01C0
00E0
0070
0000
ENDCHAR

STARTCHAR a3a3
ENCODING 41891
SWIDTH 481 0
DWIDTH 16 0
BBX 16 15 0 -2
BITMAP
0000
3FFC
3FFC
0180
0180
0180
0180
0180
0180
0180
0180
0180
0180
0180
0000
ENDCHAR

STARTCHAR a3a4
ENCODING 41892
SWIDTH 481 0
DWIDTH 16 0
BBX 16 15 0 -2
BITMAP
0000
00C0
30C6
18C6
18C6
18C6
18C6
1FFE
00C0
00C0
00C0
00C4
1FFE
0000
0000
ENDCHAR

STARTCHAR a3a5
ENCODING 41893
SWIDTH 481 0
DWIDTH 16 0
BBX 16 15 0 -2
BITMAP
00E0
0198
033C
0670
1CE0
01C0
03C0
0EC0
0CC0
00C0
00C0
00C0
00C0
01C0
0080
ENDCHAR

STARTCHAR a3a6
ENCODING 41894
SWIDTH 481 0
DWIDTH 16 0
BBX 16 15 0 -2
BITMAP
0408
0FFC
001C
0018
03F8
07F0
0600
0C00
0C00
1800
1800
3800
7000
6000
0000
ENDCHAR

STARTCHAR a3a7
ENCODING 41895
SWIDTH 481 0
DWIDTH 16 0
BBX 16 15 0 -2
BITMAP
0008
1FFC
100C
100C
130C
138C
11CC
10CC
100C
100C
100C
1FFC
0018
0000
0000
ENDCHAR

STARTCHAR a3a8
ENCODING 41896
SWIDTH 481 0
DWIDTH 16 0
BBX 16 15 0 -2
BITMAP
3FF8
0C1C
0C18
0C18
0D18
0DB8
0CF0
0C60
0C00
0C00
0C00
0C00
1C00
0800
0000
ENDCHAR

STARTCHAR a3a9
ENCODING 41897
SWIDTH 481 0
DWIDTH 16 0
BBX 16 15 0 -2
BITMAP
01C0
01C0
11FC
3FFC
3F80
0300
0670
07F8
0718
0038
0070
00E0
03C0
0380
0000
ENDCHAR

STARTCHAR a3aa
ENCODING 41898
SWIDTH 481 0
DWIDTH 16 0
BBX 16 15 0 -2
BITMAP
0000
0300
0380
0300
0300
0600
0600
0C20
0C30
1C18
39FC
FFFE
7E0E
6004
0000
ENDCHAR

STARTCHAR a3ab
ENCODING 41899
SWIDTH 481 0
DWIDTH 16 0
BBX 16 15 0 -2
BITMAP
0000
381C
1818
0C30
0660
03C0
0180
0180
0180
0180
0180
0180
0180
0380
0100
ENDCHAR

STARTCHAR a3ac
ENCODING 41900
SWIDTH 481 0
DWIDTH 16 0
BBX 16 15 0 -2
BITMAP
0000
3FFC
1FFC
0180
0180
0180
0780
1F00
3800
3000
3018
3838
1FF0
07C0
0000
ENDCHAR

STARTCHAR a3ad
ENCODING 41901
SWIDTH 481 0
DWIDTH 16 0
BBX 16 15 0 -2
BITMAP
0380
0180
0180
1FFC
3FFC
0180
0180
0780
1F00
3800
300C
300C
1818
0FF0
03C0
ENDCHAR

STARTCHAR a3ae
ENCODING 41902
SWIDTH 481 0
DWIDTH 16 0
BBX 16 15 0 -2
BITMAP
1860
38E0
1860
1860
FFFC
1860
1860
1860
1860
18E0
1840
1830
0FE0
0000
0000
ENDCHAR

STARTCHAR a3af
ENCODING 41903
SWIDTH 481 0
DWIDTH 16 0
BBX 16 15 0 -2
BITMAP
0008
1FFC
0C60
1860
30C0
3FF8
138C
070C
0E0C
1C18
3838
70F0
60E0
0040
0000
ENDCHAR

STARTCHAR a3b0
ENCODING 41904
SWIDTH 481 0
DWIDTH 16 0
BBX 16 15 0 -2
BITMAP
0000
0600
0F00
1F00
7D80
7180
00C0
00C0
0060
0060
0030
0038
001E
000C
0000
ENDCHAR

STARTCHAR a3b1
ENCODING 41905
SWIDTH 481 0
DWIDTH 16 0
BBX 16 15 0 -2
BITMAP
0300
0388
071C
3E18
1C30
1C60
0EC0
0780
0710
0E18
1CFC
3FFE
1C0C
0000
0000
ENDCHAR

STARTCHAR a3b2
ENCODING 41906
SWIDTH 481 0
DWIDTH 16 0
BBX 16 15 0 -2
BITMAP
0000
0018
1FFC
0018
0C30
0660
03C0
0180
03C0
0660
0C30
1818
700E
6006
0000
ENDCHAR

STARTCHAR a3b3
ENCODING 41907
SWIDTH 481 0
DWIDTH 16 0
BBX 16 15 0 -2
BITMAP
0000
3FF0
0618
0618
0C30
1860
1FF8
000C
000C
0018
0030
0060
01C0
0180
0000
ENDCHAR

STARTCHAR a3b4
ENCODING 41908
SWIDTH 481 0
DWIDTH 16 0
BBX 16 15 0 -2
BITMAP
0000
0C00
1C00
3000
6018
7FFC
0018
0018
0030
0030
0060
00E0
00C0
0000
0000
ENDCHAR

STARTCHAR a3b5
ENCODING 41909
SWIDTH 481 0
DWIDTH 16 0
BBX 16 15 0 -2
BITMAP
0180
0380
0180
0180
3FF8
0180
0100
0300
0280
06C0
0CC0
18C0
70C4
607E
0000
ENDCHAR

STARTCHAR a3b6
ENCODING 41910
SWIDTH 481 0
DWIDTH 16 0
BBX 16 15 0 -2
BITMAP
0000
0000
0000
0080
00C0
0180
0300
0600
0C00
1800
3010
3FF8
0000
0000
0000
ENDCHAR

STARTCHAR a3b7
ENCODING 41911
SWIDTH 481 0
DWIDTH 16 0
BBX 16 15 0 -2
BITMAP
0000
0080
09C0
08C0
08C0
08C0
08C0
08C0
08C0
08C0
18C0
30C0
607E
0000
0000
ENDCHAR

STARTCHAR a3b8
ENCODING 41912
SWIDTH 481 0
DWIDTH 16 0
BBX 16 15 0 -2
BITMAP
0000
0000
0000
0000
0000
0000
3FFC
3FFC
0000
0000
0000
0000
0000
0000
0000
ENDCHAR

STARTCHAR a3b9
ENCODING 41913
SWIDTH 481 0
DWIDTH 16 0
BBX 16 15 0 -2
BITMAP
0000
1008
381C
1830
0C60
06C0
0380
0380
06C0
0C60
1830
701C
600C
0000
0000
ENDCHAR

STARTCHAR a3ba
ENCODING 41914
SWIDTH 481 0
DWIDTH 16 0
BBX 16 15 0 -2
BITMAP
0000
0000
300C
300C
300C
300C
300C
300C
300C
300C
300C
300C
3FFC
0008
0000
ENDCHAR

STARTCHAR a3bb
ENCODING 41915
SWIDTH 481 0
DWIDTH 16 0
BBX 16 15 0 -2
BITMAP
0000
0000
0000
0000
0000
0180
01C0
0180
0000
0000
0000
0000
0000
0000
0000
ENDCHAR

STARTCHAR a3bc
ENCODING 41916
SWIDTH 481 0
DWIDTH 16 0
BBX 16 15 0 -2
BITMAP
0000
0000
0000
0000
0000
0000
0000
0000
0000
0000
0000
0000
0000
0000
0000
ENDCHAR

STARTCHAR a3bd
ENCODING 41917
SWIDTH 481 0
DWIDTH 16 0
BBX 16 15 0 -2
BITMAP
0000
0000
0000
0000
0010
0060
01C0
0380
0700
0600
0400
0000
0000
0000
0000
ENDCHAR

STARTCHAR a3be
ENCODING 41918
SWIDTH 481 0
DWIDTH 16 0
BBX 16 15 0 -2
BITMAP
0000
0000
0000
000C
0018
0630
0660
06C0
0780
0700
0600
0000
0000
0000
0000
ENDCHAR

STARTCHAR a3bf
ENCODING 41919
SWIDTH 481 0
DWIDTH 16 0
BBX 16 15 0 -2
BITMAP
0000
0000
0000
0000
0700
0780
03C0
00C0
0060
0020
0010
0000
0000
0000
0000
ENDCHAR

STARTCHAR a440
ENCODING 42048
SWIDTH 481 0
DWIDTH 16 0
BBX 16 15 0 -2
BITMAP
0000
0000
0000
0000
0000
0000
0004
FFFE
0000
0000
0000
0000
0000
0000
0000
ENDCHAR

STARTCHAR a441
ENCODING 42049
SWIDTH 481 0
DWIDTH 16 0
BBX 16 15 0 -2
BITMAP
0000
7FF0
0020
0040
0080
0100
0200
0400
0800
1000
2000
4004
4004
3FFC
0000
ENDCHAR

STARTCHAR a442
ENCODING 42050
SWIDTH 481 0
DWIDTH 16 0
BBX 16 15 0 -2
BITMAP
0004
FFFE
0100
0100
0100
0100
0100
0100
0100
0100
0100
0100
0500
0200
0000
ENDCHAR

STARTCHAR a443
ENCODING 42051
SWIDTH 481 0
DWIDTH 16 0
BBX 16 15 0 -2
BITMAP
0400
0400
0400
0400
0404
FFFE
0400
0400
0400
0400
0400
0400
0400
03FC
0000
ENDCHAR

STARTCHAR a444
ENCODING 42052
SWIDTH 481 0
DWIDTH 16 0
BBX 16 15 0 -2
BITMAP
0020
7FF0
0820
0840
0884
08FE
0804
0804
1004
1004
2004
4088
8050
0020
0000
ENDCHAR

STARTCHAR a445
ENCODING 42053
SWIDTH 481 0
DWIDTH 16 0
BBX 16 15 0 -2
BITMAP
0800
0800
0840
FFE0
0840
0840
0840
0840
0840
0840
1040
1042
2042
C03E
0000
ENDCHAR

STARTCHAR a446
ENCODING 42054
SWIDTH 481 0
DWIDTH 16 0
BBX 16 15 0 -2
BITMAP
0004
FFFE
0010
0020
0040
0180
0080
0080
0080
0080
0080
0480
0280
0100
0000
ENDCHAR

STARTCHAR a447
ENCODING 42055
SWIDTH 481 0
DWIDTH 16 0
BBX 16 15 0 -2
BITMAP
0000
0000
0010
3FF8
0000
0000
0000
0000
0000
0000
0000
0004
FFFE
0000
0000
ENDCHAR

STARTCHAR a448
ENCODING 42056
SWIDTH 481 0
DWIDTH 16 0
BBX 16 15 0 -2
BITMAP
0100
0100
0100
0100
0100
0100
0280
0280
0440
0440
0820
1010
200E
4004
0000
ENDCHAR

STARTCHAR a449
ENCODING 42057
SWIDTH 481 0
DWIDTH 16 0
BBX 16 15 0 -2
BITMAP
1040
1040
1040
1040
1040
1040
1040
1040
1040
1040
1042
2042
4042
807E
0000
ENDCHAR

STARTCHAR a44a
ENCODING 42058
SWIDTH 481 0
DWIDTH 16 0
BBX 16 15 0 -2
BITMAP
0400
0200
0100
0100
0280
0280
0440
0440
0820
0820
1010
2010
400E
8004
0000
ENDCHAR

STARTCHAR a44b
ENCODING 42059
SWIDTH 481 0
DWIDTH 16 0
BBX 16 15 0 -2
BITMAP
0040
0460
0440
0440
0440
0440
0440
0820
0820
0820
1010
1008
200E
4004
0000
ENDCHAR

STARTCHAR a44c
ENCODING 42060
SWIDTH 481 0
DWIDTH 16 0
BBX 16 15 0 -2
BITMAP
0820
0FF0
0820
0820
0820
0820
0820
0820
0820
0820
0822
1022
2022
C01E
0000
ENDCHAR

STARTCHAR a44d
ENCODING 42061
SWIDTH 481 0
DWIDTH 16 0
BBX 16 15 0 -2
BITMAP
0004
FFFE
0204
0204
0204
0204
0204
0204
0404
0804
0804
1044
2028
4010
0000
ENDCHAR

STARTCHAR a44e
ENCODING 42062
SWIDTH 481 0
DWIDTH 16 0
BBX 16 15 0 -2
BITMAP
0004
FFFE
0004
0004
0044
0084
0104
0204
0404
0804
3004
E044
0028
0010
0000
ENDCHAR

STARTCHAR a44f
ENCODING 42063
SWIDTH 481 0
DWIDTH 16 0
BBX 16 15 0 -2
BITMAP
0200
0200
0204
FFFE
0204
0204
0204
0204
0404
0404
0804
1044
2028
C010
0000
ENDCHAR

STARTCHAR a450
ENCODING 42064
SWIDTH 481 0
DWIDTH 16 0
BBX 16 15 0 -2
BITMAP
4000
4000
4020
4020
40E0
4180
4200
4C00
7000
4000
4002
4002
4002
3FFE
0000
ENDCHAR

STARTCHAR a451
ENCODING 42065
SWIDTH 481 0
DWIDTH 16 0
BBX 16 15 0 -2
BITMAP
0100
0100
0100
0100
0104
FFFE
0100
0100
0100
0100
0100
0100
0100
0100
0000
ENDCHAR

STARTCHAR a452
ENCODING 42066
SWIDTH 481 0
DWIDTH 16 0
BBX 16 15 0 -2
BITMAP
0200
0200
0200
0200
0280
0260
0230
0210
0200
0200
0200
0200
0200
0200
0000
ENDCHAR

STARTCHAR a453
ENCODING 42067
SWIDTH 481 0
DWIDTH 16 0
BBX 16 15 0 -2
BITMAP
0010
7FF8
1010
1020
0820
0840
0440
0280
0100
0280
0440
0830
300E
C004
0000
ENDCHAR

STARTCHAR a454
ENCODING 42068
SWIDTH 481 0
DWIDTH 16 0
BBX 16 15 0 -2
BITMAP
0000
0008
7FFC
0000
0000
0000
0010
3FF8
0000
0000
0000
0004
FFFE
0000
0000
ENDCHAR

STARTCHAR a455
ENCODING 42069
SWIDTH 481 0
DWIDTH 16 0
BBX 16 15 0 -2
BITMAP
0004
FFFE
0200
0200
0280
0240
0230
0210
0200
0200
0200
0200
0200
0200
0000
ENDCHAR

STARTCHAR a456
ENCODING 42070
SWIDTH 481 0
DWIDTH 16 0
BBX 16 15 0 -2
BITMAP
0040
0040
0044
FFFE
0040
0840
0840
0440
0280
0100
0280
0460
181E
E004
0000
ENDCHAR

STARTCHAR a457
ENCODING 42071
SWIDTH 481 0
DWIDTH 16 0
BBX 16 15 0 -2
BITMAP
0100
0100
0100
0100
0110
01F8
0100
0100
0100
0100
0100
0100
0104
FFFE
0000
ENDCHAR

STARTCHAR a458
ENCODING 42072
SWIDTH 481 0
DWIDTH 16 0
BBX 16 15 0 -2
BITMAP
2010
1030
0C40
0480
0100
0100
0100
0100
0100
0100
0100
0100
0100
0100
0000
ENDCHAR

STARTCHAR a459
ENCODING 42073
SWIDTH 481 0
DWIDTH 16 0
BBX 16 15 0 -2
BITMAP
0200
0200
0220
7FF0
0220
0220
0220
0520
05A0
04A2
0822
0822
301E
C000
0000
ENDCHAR

STARTCHAR a45a
ENCODING 42074
SWIDTH 481 0
DWIDTH 16 0
BBX 16 15 0 -2
BITMAP
0020
0FF0
0820
0820
0A20
0920
09A0
08A0
0820
0822
1022
1022
201E
4000
0000
ENDCHAR

STARTCHAR a45b
ENCODING 42075
SWIDTH 481 0
DWIDTH 16 0
BBX 16 15 0 -2
BITMAP
0400
0420
07F0
0820
1020
2040
0040
0080
0140
0220
0420
0810
300E
C004
0000
ENDCHAR

STARTCHAR a45c
ENCODING 42076
SWIDTH 481 0
DWIDTH 16 0
BBX 16 15 0 -2
BITMAP
0100
0200
0400
0800
1020
2040
C080
0100
0200
0400
0810
1008
FFFC
0002
0000
ENDCHAR

STARTCHAR a45d
ENCODING 42077
SWIDTH 481 0
DWIDTH 16 0
BBX 16 15 0 -2
BITMAP
0100
0108
111C
11E8
1708
3908
D110
1120
1100
1100
1102
1002
1002
0FFE
0000
ENDCHAR

STARTCHAR a45e
ENCODING 42078
SWIDTH 481 0
DWIDTH 16 0
BBX 16 15 0 -2
BITMAP
0800
1008
1FFC
2000
4020
9FF0
0040
0080
0100
0200
0402
0802
1002
0FFE
0000
ENDCHAR

STARTCHAR a45f
ENCODING 42079
SWIDTH 481 0
DWIDTH 16 0
BBX 16 15 0 -2
BITMAP
0010
3FF8
0100
0100
0104
FFFE
0100
0100
0100
0100
0100
0100
0500
0200
0000
ENDCHAR

STARTCHAR a460
ENCODING 42080
SWIDTH 481 0
DWIDTH 16 0
BBX 16 15 0 -2
BITMAP
0200
0100
0100
0004
FFFE
1000
1000
1000
1000
1000
1000
1000
1008
0FFC
0000
ENDCHAR

STARTCHAR a461
ENCODING 42081
SWIDTH 481 0
DWIDTH 16 0
BBX 16 15 0 -2
BITMAP
0004
FFFE
0440
0440
0440
0440
0440
0440
0440
0840
0842
1042
203E
C000
0000
ENDCHAR

STARTCHAR a462
ENCODING 42082
SWIDTH 481 0
DWIDTH 16 0
BBX 16 15 0 -2
BITMAP
0004
7FFE
0104
0104
2104
1904
0D04
0304
0204
0204
0404
0844
1028
6010
0000
ENDCHAR

STARTCHAR a463
ENCODING 42083
SWIDTH 481 0
DWIDTH 16 0
BBX 16 15 0 -2
BITMAP
1000
1004
3FFE
2004
4004
8004
0404
0204
0304
0104
0004
0044
0028
0010
0000
ENDCHAR

STARTCHAR a464
ENCODING 42084
SWIDTH 481 0
DWIDTH 16 0
BBX 16 15 0 -2
BITMAP
0020
00F0
3F00
0100
0100
0104
FFFE
0100
0100
0100
0100
0100
0100
0100
0000
ENDCHAR

STARTCHAR a465
ENCODING 42085
SWIDTH 481 0
DWIDTH 16 0
BBX 16 15 0 -2
BITMAP
0008
3FFC
0008
1208
1110
0910
0420
02C0
0100
0280
0440
0830
300E
C004
0000
ENDCHAR

STARTCHAR a466
ENCODING 42086
SWIDTH 481 0
DWIDTH 16 0
BBX 16 15 0 -2
BITMAP
0000
0000
0010
3FF8
2010
2010
2010
2010
2010
2010
2010
3FF0
2010
0000
0000
ENDCHAR

STARTCHAR a467
ENCODING 42087
SWIDTH 481 0
DWIDTH 16 0
BBX 16 15 0 -2
BITMAP
0100
0100
0100
0100
0108
7FFC
0100
0100
0100
0100
0100
0100
0104
FFFE
0000
ENDCHAR

STARTCHAR a468
ENCODING 42088
SWIDTH 481 0
DWIDTH 16 0
BBX 16 15 0 -2
BITMAP
0100
0100
0100
0100
0104
FFFE
0100
0100
0100
0100
0100
0100
0110
3FF8
0000
ENDCHAR

STARTCHAR a469
ENCODING 42089
SWIDTH 481 0
DWIDTH 16 0
BBX 16 15 0 -2
BITMAP
0200
0208
07FC
0408
0808
1010
2410
4320
0140
0180
0200
0400
1800
6000
0000
ENDCHAR

STARTCHAR a46a
ENCODING 42090
SWIDTH 481 0
DWIDTH 16 0
BBX 16 15 0 -2
BITMAP
0100
0100
0100
0104
FFFE
0100
0100
0280
0240
0440
0420
0810
100E
6004
0000
ENDCHAR

STARTCHAR a46b
ENCODING 42091
SWIDTH 481 0
DWIDTH 16 0
BBX 16 15 0 -2
BITMAP
0100
0100
0200
0204
FFFE
0420
0820
1020
0C40
0280
0180
0660
1818
6008
0000
ENDCHAR

STARTCHAR a46c
ENCODING 42092
SWIDTH 481 0
DWIDTH 16 0
BBX 16 15 0 -2
BITMAP
0010
3FF8
0020
0040
0180
0104
FFFE
0100
0100
0100
0100
0100
0500
0200
0000
ENDCHAR

STARTCHAR a46d
ENCODING 42093
SWIDTH 481 0
DWIDTH 16 0
BBX 16 15 0 -2
BITMAP
3FF0
0020
0040
0180
0108
0130
01C0
0700
1900
6100
4100
0100
0500
0200
0000
ENDCHAR

STARTCHAR a46e
ENCODING 42094
SWIDTH 481 0
DWIDTH 16 0
BBX 16 15 0 -2
BITMAP
3FF0
0020
0040
1180
0900
0500
0300
0100
0180
0140
0130
010C
0500
0200
0000
ENDCHAR

STARTCHAR a46f
ENCODING 42095
SWIDTH 481 0
DWIDTH 16 0
BBX 16 15 0 -2
BITMAP
0040
0040
0040
0044
FFFE
0040
0840
0440
0440
0040
0040
0040
0140
0080
0000
ENDCHAR

STARTCHAR a470
ENCODING 42096
SWIDTH 481 0
DWIDTH 16 0
BBX 16 15 0 -2
BITMAP
0100
0100
0100
0100
0100
0920
1910
2108
4104
8102
0100
0100
0500
0200
0000
ENDCHAR

STARTCHAR a471
ENCODING 42097
SWIDTH 481 0
DWIDTH 16 0
BBX 16 15 0 -2
BITMAP
0200
0200
0200
FFFE
0280
0280
0280
0480
0480
0480
0882
1082
2082
C07E
0000
ENDCHAR

STARTCHAR a472
ENCODING 42098
SWIDTH 481 0
DWIDTH 16 0
BBX 16 15 0 -2
BITMAP
0008
3FFC
2008
2008
2008
3FF8
2008
2000
2000
2000
2000
4000
4000
8000
0000
ENDCHAR

STARTCHAR a473
ENCODING 42099
SWIDTH 481 0
DWIDTH 16 0
BBX 16 15 0 -2
BITMAP
0100
0100
0100
0100
0100
4104
4104
4104
4104
4104
4104
4104
7FFC
4004
0000
ENDCHAR

STARTCHAR a474
ENCODING 42100
SWIDTH 481 0
DWIDTH 16 0
BBX 16 15 0 -2
BITMAP
0004
1004
1084
1084
1084
1084
1084
1084
1084
1084
1084
2004
4004
0004
0000
ENDCHAR

STARTCHAR a475
ENCODING 42101
SWIDTH 481 0
DWIDTH 16 0
BBX 16 15 0 -2
BITMAP
0000
0008
7FFC
0100
0100
0100
0100
0100
0100
0100
0100
0100
0104
FFFE
0000
ENDCHAR

STARTCHAR a476
ENCODING 42102
SWIDTH 481 0
DWIDTH 16 0
BBX 16 15 0 -2
BITMAP
0008
FFFC
0008
0008
0008
0008
7FF8
4008
4000
4000
4002
4002
4002
3FFE
0000
ENDCHAR

STARTCHAR a477
ENCODING 42103
SWIDTH 481 0
DWIDTH 16 0
BBX 16 15 0 -2
BITMAP
0008
FFFC
0008
0008
4008
4008
7FF8
4008
4000
4000
4002
4002
4002
3FFE
0000
ENDCHAR

STARTCHAR a478
ENCODING 42104
SWIDTH 481 0
DWIDTH 16 0
BBX 16 15 0 -2
BITMAP
0010
FFF8
4010
4010
4010
4010
7FF0
4010
4000
4000
4002
4002
4002
3FFE
0000
ENDCHAR

STARTCHAR a479
ENCODING 42105
SWIDTH 481 0
DWIDTH 16 0
BBX 16 15 0 -2
BITMAP
0100
0100
0108
3FFC
2108
2108
2108
2108
2108
2128
2110
0100
0100
0100
0000
ENDCHAR

STARTCHAR a47a
ENCODING 42106
SWIDTH 481 0
DWIDTH 16 0
BBX 16 15 0 -2
BITMAP
0010
3FF8
0100
0100
0100
0104
FFFE
0100
0100
0100
0100
0100
0100
0100
0000
ENDCHAR

STARTCHAR a47b
ENCODING 42107
SWIDTH 481 0
DWIDTH 16 0
BBX 16 15 0 -2
BITMAP
0820
0820
0820
0820
0824
FFFE
0820
0820
0820
0820
1020
2020
4020
8020
0000
ENDCHAR

STARTCHAR a47c
ENCODING 42108
SWIDTH 481 0
DWIDTH 16 0
BBX 16 15 0 -2
BITMAP
0200
0240
0220
03FE
FE00
0200
0100
0100
0080
0080
0044
0024
001C
0008
0000
ENDCHAR

STARTCHAR a47d
ENCODING 42109
SWIDTH 481 0
DWIDTH 16 0
BBX 16 15 0 -2
BITMAP
0010
7FF8
0010
0010
7FF0
4000
8008
FFFC
0008
0008
0008
0010
0660
0180
0000
ENDCHAR

STARTCHAR a47e
ENCODING 42110
SWIDTH 481 0
DWIDTH 16 0
BBX 16 15 0 -2
BITMAP
0080
0080
0084
FFFE
0080
0180
0180
0280
0480
0880
1080
6080
0280
0100
0000
ENDCHAR

STARTCHAR a4a1
ENCODING 42145
SWIDTH 481 0
DWIDTH 16 0
BBX 16 15 0 -2
BITMAP
0020
3FF0
0420
0420
0420
0420
0424
FFFE
0840
0840
0840
0840
0848
7FFC
0000
ENDCHAR

STARTCHAR a4a2
ENCODING 42146
SWIDTH 481 0
DWIDTH 16 0
BBX 16 15 0 -2
BITMAP
0004
FFFE
0100
0110
21F8
2100
2104
3FFE
0004
0004
0004
0004
0098
0060
0000
ENDCHAR

STARTCHAR a4a3
ENCODING 42147
SWIDTH 481 0
DWIDTH 16 0
BBX 16 15 0 -2
BITMAP
0004
FFFE
0080
0100
0100
0340
0520
0918
110C
2104
4100
0100
0100
0100
0000
ENDCHAR

STARTCHAR a4a4
ENCODING 42148
SWIDTH 481 0
DWIDTH 16 0
BBX 16 15 0 -2
BITMAP
0100
0100
0104
7FFE
4104
4104
4104
7FFC
4104
0100
0100
0100
0100
0100
0000
ENDCHAR

STARTCHAR a4a5
ENCODING 42149
SWIDTH 481 0
DWIDTH 16 0
BBX 16 15 0 -2
BITMAP
0100
0120
01F0
3F00
0100
0110
3FF8
0100
0104
FFFE
0100
0100
0100
0100
0000
ENDCHAR

STARTCHAR a4a6
ENCODING 42150
SWIDTH 481 0
DWIDTH 16 0
BBX 16 15 0 -2
BITMAP
0010
1FF8
1010
1210
1110
1110
1010
FFFE
1010
1010
1010
1010
2050
4020
0000
ENDCHAR

STARTCHAR a4a7
ENCODING 42151
SWIDTH 481 0
DWIDTH 16 0
BBX 16 15 0 -2
BITMAP
0200
0100
0010
7FF8
0020
0040
0080
0100
0200
0C00
3000
4800
07FE
0000
0000
ENDCHAR

STARTCHAR a4a8
ENCODING 42152
SWIDTH 481 0
DWIDTH 16 0
BBX 16 15 0 -2
BITMAP
0010
3FF8
0410
0410
FFFE
0410
0410
3FF0
0410
0400
0800
1000
2000
4000
0000
ENDCHAR

STARTCHAR a4a9
ENCODING 42153
SWIDTH 481 0
DWIDTH 16 0
BBX 16 15 0 -2
BITMAP
0020
3FF0
0040
0280
0184
FFFE
0104
0108
0100
0100
0100
0100
0500
0200
0000
ENDCHAR

STARTCHAR a4aa
ENCODING 42154
SWIDTH 481 0
DWIDTH 16 0
BBX 16 15 0 -2
BITMAP
0020
1FF0
0000
0000
0004
FFFE
0200
0400
0420
0810
1008
7FFC
2002
0002
0000
ENDCHAR

STARTCHAR a4ab
ENCODING 42155
SWIDTH 481 0
DWIDTH 16 0
BBX 16 15 0 -2
BITMAP
0820
0820
0820
7FFC
0820
0820
0824
FFFE
0820
0820
1020
1020
2020
4020
0000
ENDCHAR

STARTCHAR a4ac
ENCODING 42156
SWIDTH 481 0
DWIDTH 16 0
BBX 16 15 0 -2
BITMAP
0008
7FFC
0800
0800
0820
0FF0
0820
0820
1020
3FE0
1040
0080
0084
FFFE
0000
ENDCHAR

STARTCHAR a4ad
ENCODING 42157
SWIDTH 481 0
DWIDTH 16 0
BBX 16 15 0 -2
BITMAP
0008
7FFC
0200
0200
0200
0210
3FF8
0410
0410
0410
0810
0810
0810
FFFE
0000
ENDCHAR

STARTCHAR a4ae
ENCODING 42158
SWIDTH 481 0
DWIDTH 16 0
BBX 16 15 0 -2
BITMAP
0200
0104
FFFE
0000
0020
0FF0
0820
0820
0820
0820
1022
1022
2022
401E
0000
ENDCHAR

STARTCHAR a4af
ENCODING 42159
SWIDTH 481 0
DWIDTH 16 0
BBX 16 15 0 -2
BITMAP
0800
0808
17FC
1000
3000
5000
9000
1000
1000
1004
1FFE
1000
1000
1000
0000
ENDCHAR

STARTCHAR a4b0
ENCODING 42160
SWIDTH 481 0
DWIDTH 16 0
BBX 16 15 0 -2
BITMAP
0840
0840
1040
1040
3044
5FFE
9040
1040
1040
1040
1040
1040
1040
1040
0000
ENDCHAR

STARTCHAR a4b1
ENCODING 42161
SWIDTH 481 0
DWIDTH 16 0
BBX 16 15 0 -2
BITMAP
0800
0804
0BFE
1020
1020
3020
5020
9020
1020
1020
1020
1120
10A0
1040
0000
ENDCHAR

STARTCHAR a4b2
ENCODING 42162
SWIDTH 481 0
DWIDTH 16 0
BBX 16 15 0 -2
BITMAP
0440
0440
0840
0840
1050
304C
5046
9042
1040
1040
1040
1040
1040
1040
0000
ENDCHAR

STARTCHAR a4b3
ENCODING 42163
SWIDTH 481 0
DWIDTH 16 0
BBX 16 15 0 -2
BITMAP
0900
0900
1110
17F8
3110
5110
9110
1110
1110
1210
1212
1412
180E
1000
0000
ENDCHAR

STARTCHAR a4b4
ENCODING 42164
SWIDTH 481 0
DWIDTH 16 0
BBX 16 15 0 -2
BITMAP
1000
1008
27FC
2108
6110
A124
213E
2104
2104
2204
2204
2444
2428
2810
0000
ENDCHAR

STARTCHAR a4b5
ENCODING 42165
SWIDTH 481 0
DWIDTH 16 0
BBX 16 15 0 -2
BITMAP
0100
0280
0440
0820
1010
2FEE
C004
0000
1FF0
0010
0020
0040
0080
0100
0000
ENDCHAR

STARTCHAR a4b6
ENCODING 42166
SWIDTH 481 0
DWIDTH 16 0
BBX 16 15 0 -2
BITMAP
0100
0280
0440
0820
1010
244E
C444
0440
0440
0840
0840
0840
1040
2040
0000
ENDCHAR

STARTCHAR a4b7
ENCODING 42167
SWIDTH 481 0
DWIDTH 16 0
BBX 16 15 0 -2
BITMAP
0008
3FFC
2000
2080
2080
2080
2080
2140
2220
2220
4410
4808
900E
2004
0000
ENDCHAR

STARTCHAR a4b8
ENCODING 42168
SWIDTH 481 0
DWIDTH 16 0
BBX 16 15 0 -2
BITMAP
0010
3FF8
0000
0004
FFFE
0440
0440
0440
0440
0840
0842
1042
2042
C03E
0000
ENDCHAR

STARTCHAR a4b9
ENCODING 42169
SWIDTH 481 0
DWIDTH 16 0
BBX 16 15 0 -2
BITMAP
0200
0440
0820
1010
7FF8
2488
0488
0480
0880
0880
1082
1082
2082
C07E
0000
ENDCHAR

STARTCHAR a4ba
ENCODING 42170
SWIDTH 481 0
DWIDTH 16 0
BBX 16 15 0 -2
BITMAP
0600
0300
0104
7FFE
4104
4104
4284
4444
4834
5014
4004
4004
4014
4008
0000
ENDCHAR

STARTCHAR a4bb
ENCODING 42171
SWIDTH 481 0
DWIDTH 16 0
BBX 16 15 0 -2
BITMAP
0400
0200
0300
0104
FFFE
0000
0000
0440
0C20
0810
1018
100C
200C
4004
0000
ENDCHAR

STARTCHAR a4bc
ENCODING 42172
SWIDTH 481 0
DWIDTH 16 0
BBX 16 15 0 -2
BITMAP
0440
0820
0820
1010
2010
5FEE
8404
0820
1FF0
0020
0020
0220
0140
0080
0000
ENDCHAR

STARTCHAR a4bd
ENCODING 42173
SWIDTH 481 0
DWIDTH 16 0
BBX 16 15 0 -2
BITMAP
00C0
0480
0440
0840
0820
1010
210E
C104
0200
0400
0840
1020
3FF0
1010
0000
ENDCHAR

STARTCHAR a4be
ENCODING 42174
SWIDTH 481 0
DWIDTH 16 0
BBX 16 15 0 -2
BITMAP
0004
7FFE
4004
8008
0040
07E0
0440
0440
0440
0440
0840
0842
3042
C03E
0000
ENDCHAR

STARTCHAR a4bf
ENCODING 42175
SWIDTH 481 0
DWIDTH 16 0
BBX 16 15 0 -2
BITMAP
8002
9012
8822
8442
8282
8102
8282
8442
8822
901A
A00A
8002
FFFE
8002
0000
ENDCHAR

STARTCHAR a4c0
ENCODING 42176
SWIDTH 481 0
DWIDTH 16 0
BBX 16 15 0 -2
BITMAP
0080
0480
0440
0820
1010
2008
5FEE
8424
0420
0420
0820
0820
1140
2080
0000
ENDCHAR

STARTCHAR a4c1
ENCODING 42177
SWIDTH 481 0
DWIDTH 16 0
BBX 16 15 0 -2
BITMAP
2000
2004
21FE
2044
3E44
E044
2044
2044
2044
2444
2884
3104
0228
0C10
0000
ENDCHAR

STARTCHAR a4c2
ENCODING 42178
SWIDTH 481 0
DWIDTH 16 0
BBX 16 15 0 -2
BITMAP
0004
4104
2104
1124
1224
0A24
0424
0A24
0924
1104
1084
2084
C014
0008
0000
ENDCHAR

STARTCHAR a4c3
ENCODING 42179
SWIDTH 481 0
DWIDTH 16 0
BBX 16 15 0 -2
BITMAP
0800
0804
0FFE
1004
2004
CFE4
0004
0004
0FE4
0004
0004
0044
0028
0010
0000
ENDCHAR

STARTCHAR a4c4
ENCODING 42180
SWIDTH 481 0
DWIDTH 16 0
BBX 16 15 0 -2
BITMAP
0800
0804
0FFE
1004
2204
4404
8404
0884
1044
3FC4
1044
0004
0028
0010
0000
ENDCHAR

STARTCHAR a4c5
ENCODING 42181
SWIDTH 481 0
DWIDTH 16 0
BBX 16 15 0 -2
BITMAP
1000
1000
1004
1FFE
2444
4444
8444
0844
0884
1084
2104
4204
0428
0810
0000
ENDCHAR

STARTCHAR a4c6
ENCODING 42182
SWIDTH 481 0
DWIDTH 16 0
BBX 16 15 0 -2
BITMAP
0880
0880
1080
1080
3084
50FE
9080
1080
1080
1080
1082
1082
107E
1000
0000
ENDCHAR

STARTCHAR a4c7
ENCODING 42183
SWIDTH 481 0
DWIDTH 16 0
BBX 16 15 0 -2
BITMAP
0008
FFFC
4440
4440
4440
4440
4440
4440
4440
483C
5000
4004
3FFE
0000
0000
ENDCHAR

STARTCHAR a4c8
ENCODING 42184
SWIDTH 481 0
DWIDTH 16 0
BBX 16 15 0 -2
BITMAP
0800
0810
0FF8
1100
2100
4100
0104
FFFE
0100
0100
0100
0100
0100
0100
0000
ENDCHAR

STARTCHAR a4c9
ENCODING 42185
SWIDTH 481 0
DWIDTH 16 0
BBX 16 15 0 -2
BITMAP
0120
07A0
7C20
0420
0420
0424
FFFE
0420
0420
0820
0820
1020
2020
0020
0000
ENDCHAR

STARTCHAR a4ca
ENCODING 42186
SWIDTH 481 0
DWIDTH 16 0
BBX 16 15 0 -2
BITMAP
1110
1110
1110
1110
1110
1114
FFFE
1110
1110
1110
1110
2110
2110
4010
0000
ENDCHAR

STARTCHAR a4cb
ENCODING 42187
SWIDTH 481 0
DWIDTH 16 0
BBX 16 15 0 -2
BITMAP
0200
0100
0004
FFFE
0100
0100
0140
0120
0110
0110
0100
0100
0100
0100
0000
ENDCHAR

STARTCHAR a4cc
ENCODING 42188
SWIDTH 481 0
DWIDTH 16 0
BBX 16 15 0 -2
BITMAP
0004
3FFE
2000
2010
27F8
2410
2410
2410
2490
2460
2402
2402
4402
83FE
0000
ENDCHAR

STARTCHAR a4cd
ENCODING 42189
SWIDTH 481 0
DWIDTH 16 0
BBX 16 15 0 -2
BITMAP
0400
0404
FFFE
0400
0FF0
0810
1420
1220
2140
4080
8140
0630
180E
6004
0000
ENDCHAR

STARTCHAR a4ce
ENCODING 42190
SWIDTH 481 0
DWIDTH 16 0
BBX 16 15 0 -2
BITMAP
0020
7FF0
0820
0840
0840
0FF8
1408
1210
1110
20A0
20C0
4130
860E
1804
0000
ENDCHAR

STARTCHAR a4cf
ENCODING 42191
SWIDTH 481 0
DWIDTH 16 0
BBX 16 15 0 -2
BITMAP
0008
3FFC
2000
2000
3FF8
2408
2210
2220
2140
2080
4140
4230
840E
1804
0000
ENDCHAR

STARTCHAR a4d0
ENCODING 42192
SWIDTH 481 0
DWIDTH 16 0
BBX 16 15 0 -2
BITMAP
0000
0010
3FF8
0100
0100
0100
0104
FFFE
0100
0100
0100
0100
0110
3FF8
0000
ENDCHAR

STARTCHAR a4d1
ENCODING 42193
SWIDTH 481 0
DWIDTH 16 0
BBX 16 15 0 -2
BITMAP
0008
7FFC
0100
0100
0104
FFFE
0100
0280
0440
0440
0820
1010
200E
C004
0000
ENDCHAR

STARTCHAR a4d2
ENCODING 42194
SWIDTH 481 0
DWIDTH 16 0
BBX 16 15 0 -2
BITMAP
0100
0108
7FFC
0100
0104
FFFE
0100
0280
0280
0440
0440
0830
100E
6004
0000
ENDCHAR

STARTCHAR a4d3
ENCODING 42195
SWIDTH 481 0
DWIDTH 16 0
BBX 16 15 0 -2
BITMAP
0100
0100
0100
0104
FFFE
0100
0100
0280
0280
0440
0640
0930
310E
C004
0000
ENDCHAR

STARTCHAR a4d4
ENCODING 42196
SWIDTH 481 0
DWIDTH 16 0
BBX 16 15 0 -2
BITMAP
0010
01F8
3F00
0100
0100
0104
FFFE
0100
0280
0440
0420
0810
300E
C004
0000
ENDCHAR

STARTCHAR a4d5
ENCODING 42197
SWIDTH 481 0
DWIDTH 16 0
BBX 16 15 0 -2
BITMAP
0240
7F40
0240
0440
0840
0840
0B40
1C40
E840
0842
0842
0842
2842
103E
0000
ENDCHAR

STARTCHAR a4d6
ENCODING 42198
SWIDTH 481 0
DWIDTH 16 0
BBX 16 15 0 -2
BITMAP
0100
0100
0920
0910
110C
2100
4110
0110
0120
0040
0080
0100
0200
7C00
0000
ENDCHAR

STARTCHAR a4d7
ENCODING 42199
SWIDTH 481 0
DWIDTH 16 0
BBX 16 15 0 -2
BITMAP
0100
0120
0110
0104
FFFE
0280
0280
0480
0480
0880
0882
1082
2082
407E
0000
ENDCHAR

STARTCHAR a4d8
ENCODING 42200
SWIDTH 481 0
DWIDTH 16 0
BBX 16 15 0 -2
BITMAP
0010
1FF8
1010
1010
1FF0
1410
1400
1200
1100
1080
2040
2030
400E
8004
0000
ENDCHAR

STARTCHAR a4d9
ENCODING 42201
SWIDTH 481 0
DWIDTH 16 0
BBX 16 15 0 -2
BITMAP
0100
0100
0104
FFFE
0100
2108
2108
2108
3FF8
2108
0100
0102
0102
00FE
0000
ENDCHAR

STARTCHAR a4da
ENCODING 42202
SWIDTH 481 0
DWIDTH 16 0
BBX 16 15 0 -2
BITMAP
0008
7FFC
4108
4108
4108
4108
7FF8
4008
4000
4000
4000
4002
4002
3FFE
0000
ENDCHAR

STARTCHAR a4db
ENCODING 42203
SWIDTH 481 0
DWIDTH 16 0
BBX 16 15 0 -2
BITMAP
0804
11FE
1004
2204
2204
4404
FC04
0804
1004
2404
4204
FF44
4128
0110
0000
ENDCHAR

STARTCHAR a4dc
ENCODING 42204
SWIDTH 481 0
DWIDTH 16 0
BBX 16 15 0 -2
BITMAP
0000
0820
0820
0824
FFFE
0820
0820
0820
0820
0820
0820
0820
0FE0
0820
0000
ENDCHAR

STARTCHAR a4dd
ENCODING 42205
SWIDTH 481 0
DWIDTH 16 0
BBX 16 15 0 -2
BITMAP
7FF8
0210
0210
7FF0
4210
4204
7FFC
4204
0204
0204
0248
0230
0200
0200
0000
ENDCHAR

STARTCHAR a4de
ENCODING 42206
SWIDTH 481 0
DWIDTH 16 0
BBX 16 15 0 -2
BITMAP
0108
7F8C
0108
0108
3F08
2008
4008
FF08
0108
0108
0108
1108
0A08
0408
0000
ENDCHAR

STARTCHAR a4df
ENCODING 42207
SWIDTH 481 0
DWIDTH 16 0
BBX 16 15 0 -2
BITMAP
0100
0080
00C0
0880
0800
2808
2804
2802
4802
8802
0810
0810
07F0
0000
0000
ENDCHAR

STARTCHAR a4e0
ENCODING 42208
SWIDTH 481 0
DWIDTH 16 0
BBX 16 15 0 -2
BITMAP
0480
0440
0404
04FE
FF00
0420
0430
0240
0280
0100
0280
0C44
7034
000C
0000
ENDCHAR

STARTCHAR a4e1
ENCODING 42209
SWIDTH 481 0
DWIDTH 16 0
BBX 16 15 0 -2
BITMAP
0030
01C0
3E04
3FFE
2004
2004
2004
3FFC
2004
2000
2000
4000
4000
8000
0000
ENDCHAR

STARTCHAR a4e2
ENCODING 42210
SWIDTH 481 0
DWIDTH 16 0
BBX 16 15 0 -2
BITMAP
0010
00F8
7F00
0100
0110
3FF8
0100
0104
FFFE
0100
0100
0100
0900
0600
0000
ENDCHAR

STARTCHAR a4e3
ENCODING 42211
SWIDTH 481 0
DWIDTH 16 0
BBX 16 15 0 -2
BITMAP
0840
0840
0840
FF40
0840
0A40
0C40
3840
C840
0840
0842
0842
283E
1000
0000
ENDCHAR

STARTCHAR a4e4
ENCODING 42212
SWIDTH 481 0
DWIDTH 16 0
BBX 16 15 0 -2
BITMAP
0100
0104
FFFE
0100
1FF0
0820
0820
0440
0280
0100
0280
0C60
301E
C004
0000
ENDCHAR

STARTCHAR a4e5
ENCODING 42213
SWIDTH 481 0
DWIDTH 16 0
BBX 16 15 0 -2
BITMAP
0200
0104
FFFE
1010
0820
0420
0440
0280
0100
0280
0460
0810
300E
C004
0000
ENDCHAR

STARTCHAR a4e6
ENCODING 42214
SWIDTH 481 0
DWIDTH 16 0
BBX 16 15 0 -2
BITMAP
0840
0640
0240
1040
0C40
0440
0044
007E
FFC0
0040
0040
0040
0040
0040
0000
ENDCHAR

STARTCHAR a4e7
ENCODING 42215
SWIDTH 481 0
DWIDTH 16 0
BBX 16 15 0 -2
BITMAP
0010
0038
1FC0
1000
1004
1FFE
1040
1040
1040
1040
2040
2040
4040
0040
0000
ENDCHAR

STARTCHAR a4e8
ENCODING 42216
SWIDTH 481 0
DWIDTH 16 0
BBX 16 15 0 -2
BITMAP
0400
0300
0104
FFFE
0400
0410
07F8
0410
0410
0810
1010
2010
4120
80C0
0000
ENDCHAR

STARTCHAR a4e9
ENCODING 42217
SWIDTH 481 0
DWIDTH 16 0
BBX 16 15 0 -2
BITMAP
0010
3FF8
2010
2010
2010
2010
3FF0
2010
2010
2010
2010
2010
3FF0
2010
0000
ENDCHAR

STARTCHAR a4ea
ENCODING 42218
SWIDTH 481 0
DWIDTH 16 0
BBX 16 15 0 -2
BITMAP
0000
0000
0004
7FFE
4004
4004
4004
7FFC
4004
4004
4004
7FFC
4004
0000
0000
ENDCHAR

STARTCHAR a4eb
ENCODING 42219
SWIDTH 481 0
DWIDTH 16 0
BBX 16 15 0 -2
BITMAP
0010
1FF8
1010
1010
1FF0
1010
1010
1FF0
1010
1010
1010
1010
2050
4020
0000
ENDCHAR

STARTCHAR a4ec
ENCODING 42220
SWIDTH 481 0
DWIDTH 16 0
BBX 16 15 0 -2
BITMAP
0100
0100
0104
FFFE
0100
0380
0340
0520
0910
1108
210E
C104
0100
0100
0000
ENDCHAR

STARTCHAR a4ed
ENCODING 42221
SWIDTH 481 0
DWIDTH 16 0
BBX 16 15 0 -2
BITMAP
0800
0808
1FFC
1008
2110
4120
8100
0280
0280
0440
0820
1010
200E
C004
0000
ENDCHAR

STARTCHAR a4ee
ENCODING 42222
SWIDTH 481 0
DWIDTH 16 0
BBX 16 15 0 -2
BITMAP
0100
0100
0100
1100
1100
1110
11F8
1100
1100
1100
1100
1100
1104
FFFE
0000
ENDCHAR

STARTCHAR a4ef
ENCODING 42223
SWIDTH 481 0
DWIDTH 16 0
BBX 16 15 0 -2
BITMAP
0004
FFFE
0200
0208
07FC
0C08
0A10
1190
20A0
4040
0080
0300
0C00
3000
0000
ENDCHAR

STARTCHAR a4f0
ENCODING 42224
SWIDTH 481 0
DWIDTH 16 0
BBX 16 15 0 -2
BITMAP
0010
1FF8
1110
1110
1110
1110
FFFE
1110
2210
2210
3FFC
0810
1050
0020
0000
ENDCHAR

STARTCHAR a4f1
ENCODING 42225
SWIDTH 481 0
DWIDTH 16 0
BBX 16 15 0 -2
BITMAP
0080
4080
4080
4080
4080
4484
7EFE
4080
4080
4080
4082
4682
5882
707E
0000
ENDCHAR

STARTCHAR a4f2
ENCODING 42226
SWIDTH 481 0
DWIDTH 16 0
BBX 16 15 0 -2
BITMAP
0040
01E0
3E00
0200
0220
3FF0
0200
0208
FFFC
0200
0200
0202
0202
01FE
0000
ENDCHAR

STARTCHAR a4f3
ENCODING 42227
SWIDTH 481 0
DWIDTH 16 0
BBX 16 15 0 -2
BITMAP
0020
20F0
3F00
2100
2100
2108
3FFC
2080
2040
2040
2222
2412
280A
3006
0000
ENDCHAR

STARTCHAR a4f4
ENCODING 42228
SWIDTH 481 0
DWIDTH 16 0
BBX 16 15 0 -2
BITMAP
0100
0100
0108
0118
7D20
05C0
0580
0960
1110
210E
4104
8100
0500
0200
0000
ENDCHAR

STARTCHAR a4f5
ENCODING 42229
SWIDTH 481 0
DWIDTH 16 0
BBX 16 15 0 -2
BITMAP
0100
0100
0100
4108
6118
3130
0940
0100
0280
0440
0820
1010
200E
4004
0000
ENDCHAR

STARTCHAR a4f6
ENCODING 42230
SWIDTH 481 0
DWIDTH 16 0
BBX 16 15 0 -2
BITMAP
0010
0078
1F80
1120
1120
1120
1120
1120
1110
2110
2108
410E
8104
0100
0000
ENDCHAR

STARTCHAR a4f7
ENCODING 42231
SWIDTH 481 0
DWIDTH 16 0
BBX 16 15 0 -2
BITMAP
0820
1010
200C
4024
0820
0440
0440
0280
0100
0280
0440
0830
300E
C004
0000
ENDCHAR

STARTCHAR a4f8
ENCODING 42232
SWIDTH 481 0
DWIDTH 16 0
BBX 16 15 0 -2
BITMAP
1030
0C40
0280
0100
02C0
0C30
7028
0840
0440
0280
0280
0C60
301E
C004
0000
ENDCHAR

STARTCHAR a4f9
ENCODING 42233
SWIDTH 481 0
DWIDTH 16 0
BBX 16 15 0 -2
BITMAP
1010
1010
1010
1010
1FF0
1000
1000
1FF0
1010
1010
1010
1010
2010
4010
0000
ENDCHAR

STARTCHAR a4fa
ENCODING 42234
SWIDTH 481 0
DWIDTH 16 0
BBX 16 15 0 -2
BITMAP
0008
3FFC
2040
2040
2044
3FFE
0140
0240
0440
0840
3040
C040
0140
0080
0000
ENDCHAR

STARTCHAR a4fb
ENCODING 42235
SWIDTH 481 0
DWIDTH 16 0
BBX 16 15 0 -2
BITMAP
0100
1100
1110
1FF8
2100
4100
0104
FFFE
0100
0100
0100
0100
0100
0100
0000
ENDCHAR

STARTCHAR a4fc
ENCODING 42236
SWIDTH 481 0
DWIDTH 16 0
BBX 16 15 0 -2
BITMAP
0140
0130
0110
0104
FFFE
0100
0100
0280
0280
0440
0420
0810
100E
6004
0000
ENDCHAR

STARTCHAR a4fd
ENCODING 42237
SWIDTH 481 0
DWIDTH 16 0
BBX 16 15 0 -2
BITMAP
0008
7FFC
0100
0100
0100
0100
0110
3FF8
0100
0100
0100
0100
0104
FFFE
0000
ENDCHAR

STARTCHAR a4fe
ENCODING 42238
SWIDTH 481 0
DWIDTH 16 0
BBX 16 15 0 -2
BITMAP
0004
FFFE
0100
0100
0104
7FFE
4104
4184
4244
4424
4824
4004
4014
4008
0000
ENDCHAR

STARTCHAR a540
ENCODING 42304
SWIDTH 481 0
DWIDTH 16 0
BBX 16 15 0 -2
BITMAP
0110
2110
2110
2110
FFFE
2110
2110
2110
2110
21F0
2110
2000
2000
1FFC
0000
ENDCHAR

STARTCHAR a541
ENCODING 42305
SWIDTH 481 0
DWIDTH 16 0
BBX 16 15 0 -2
BITMAP
0008
7FFC
0080
0100
0300
0560
0910
1108
2104
4104
0100
0100
0104
FFFE
0000
ENDCHAR

STARTCHAR a542
ENCODING 42306
SWIDTH 481 0
DWIDTH 16 0
BBX 16 15 0 -2
BITMAP
0000
1FE0
1020
1020
1020
1FE0
1020
1020
1FE0
1020
1020
1020
1024
FFFE
0000
ENDCHAR

STARTCHAR a543
ENCODING 42307
SWIDTH 481 0
DWIDTH 16 0
BBX 16 15 0 -2
BITMAP
0020
0070
0180
1E00
1000
1010
1FF8
1040
1040
1040
1040
1040
1044
FFFE
0000
ENDCHAR

STARTCHAR a544
ENCODING 42308
SWIDTH 481 0
DWIDTH 16 0
BBX 16 15 0 -2
BITMAP
0200
0100
0108
7FFC
0100
0100
0100
0110
3FF8
0100
0100
0100
0104
FFFE
0000
ENDCHAR

STARTCHAR a545
ENCODING 42309
SWIDTH 481 0
DWIDTH 16 0
BBX 16 15 0 -2
BITMAP
0800
0804
0FFE
1200
2210
43F8
8200
0200
0208
03FC
0200
0200
0200
0200
0000
ENDCHAR

STARTCHAR a546
ENCODING 42310
SWIDTH 481 0
DWIDTH 16 0
BBX 16 15 0 -2
BITMAP
0018
7FE0
0200
0180
0080
3FF8
0010
0060
0180
0600
0800
3000
4800
07FE
0000
ENDCHAR

STARTCHAR a547
ENCODING 42311
SWIDTH 481 0
DWIDTH 16 0
BBX 16 15 0 -2
BITMAP
0018
3FE0
0100
1110
0D30
0540
0104
FFFE
0100
0100
0100
0100
0500
0200
0000
ENDCHAR

STARTCHAR a548
ENCODING 42312
SWIDTH 481 0
DWIDTH 16 0
BBX 16 15 0 -2
BITMAP
0010
2010
2010
2010
2210
2110
2190
2090
2410
2820
3030
6048
C18C
8606
0000
ENDCHAR

STARTCHAR a549
ENCODING 42313
SWIDTH 481 0
DWIDTH 16 0
BBX 16 15 0 -2
BITMAP
0810
0810
1010
1010
37FE
5010
9010
1110
1090
1090
1010
1010
1050
1020
0000
ENDCHAR

STARTCHAR a54a
ENCODING 42314
SWIDTH 481 0
DWIDTH 16 0
BBX 16 15 0 -2
BITMAP
0BFC
0808
1010
1020
3040
5044
9FFE
1020
1020
1020
1020
1020
1140
1080
0000
ENDCHAR

STARTCHAR a54b
ENCODING 42315
SWIDTH 481 0
DWIDTH 16 0
BBX 16 15 0 -2
BITMAP
0840
0840
1040
1044
37FE
5040
9040
1040
1040
1040
1048
13FC
1000
1000
0000
ENDCHAR

STARTCHAR a54c
ENCODING 42316
SWIDTH 481 0
DWIDTH 16 0
BBX 16 15 0 -2
BITMAP
0840
0840
1040
1248
327C
53C8
9E48
1248
1250
1240
1242
1202
11FE
1000
0000
ENDCHAR

STARTCHAR a54d
ENCODING 42317
SWIDTH 481 0
DWIDTH 16 0
BBX 16 15 0 -2
BITMAP
0820
0820
1024
17FE
3020
5120
9120
10A0
10A0
1040
1060
1090
110E
1604
0000
ENDCHAR

STARTCHAR a54e
ENCODING 42318
SWIDTH 481 0
DWIDTH 16 0
BBX 16 15 0 -2
BITMAP
0880
08A0
0890
1090
1084
30FE
5F80
9040
1040
1020
1012
1012
100A
1006
0000
ENDCHAR

STARTCHAR a54f
ENCODING 42319
SWIDTH 481 0
DWIDTH 16 0
BBX 16 15 0 -2
BITMAP
0100
0280
0440
0820
1010
2FEE
C004
1FF0
0010
0020
0440
0280
0100
0080
0000
ENDCHAR

STARTCHAR a550
ENCODING 42320
SWIDTH 481 0
DWIDTH 16 0
BBX 16 15 0 -2
BITMAP
1040
1040
2040
2444
6444
A444
2444
2444
2444
2444
2444
27FC
2404
2000
0000
ENDCHAR

STARTCHAR a551
ENCODING 42321
SWIDTH 481 0
DWIDTH 16 0
BBX 16 15 0 -2
BITMAP
0800
0804
0FFE
1044
3044
5244
9144
1144
1084
1084
1104
1204
1428
1810
0000
ENDCHAR

STARTCHAR a552
ENCODING 42322
SWIDTH 481 0
DWIDTH 16 0
BBX 16 15 0 -2
BITMAP
0080
0104
FFFE
0200
0440
0830
3FF8
0448
0440
0440
0842
0842
1042
603E
0000
ENDCHAR

STARTCHAR a553
ENCODING 42323
SWIDTH 481 0
DWIDTH 16 0
BBX 16 15 0 -2
BITMAP
0008
3FFC
2008
2008
2008
3FF8
0440
0440
0440
0840
0842
1042
2042
403E
0000
ENDCHAR

STARTCHAR a554
ENCODING 42324
SWIDTH 481 0
DWIDTH 16 0
BBX 16 15 0 -2
BITMAP
0100
0108
3FFC
2108
2108
3FF8
2108
2108
FFFE
2008
2008
2008
2028
2010
0000
ENDCHAR

STARTCHAR a555
ENCODING 42325
SWIDTH 481 0
DWIDTH 16 0
BBX 16 15 0 -2
BITMAP
0008
1FFC
1248
1248
1248
1248
FFFE
1248
1248
1248
1248
1248
1248
1018
0000
ENDCHAR

STARTCHAR a556
ENCODING 42326
SWIDTH 481 0
DWIDTH 16 0
BBX 16 15 0 -2
BITMAP
0400
07F0
0820
1440
2280
0100
02C0
0C30
310E
C0C4
0040
0100
00C0
0040
0000
ENDCHAR

STARTCHAR a557
ENCODING 42327
SWIDTH 481 0
DWIDTH 16 0
BBX 16 15 0 -2
BITMAP
0000
0004
7C7E
4444
4444
4444
4444
4444
47C4
4004
4004
4004
7FFC
0000
0000
ENDCHAR

STARTCHAR a558
ENCODING 42328
SWIDTH 481 0
DWIDTH 16 0
BBX 16 15 0 -2
BITMAP
0100
0100
2108
2108
2108
3FF8
2108
0100
4104
4104
4104
4104
7FFC
4004
0000
ENDCHAR

STARTCHAR a559
ENCODING 42329
SWIDTH 481 0
DWIDTH 16 0
BBX 16 15 0 -2
BITMAP
0000
0FE0
0820
0820
0820
0824
783E
4004
4004
4004
4004
4004
7FFC
0000
0000
ENDCHAR

STARTCHAR a55a
ENCODING 42330
SWIDTH 481 0
DWIDTH 16 0
BBX 16 15 0 -2
BITMAP
0104
3F84
0404
0424
0424
04A4
FFE4
0424
0424
0424
0404
0404
0414
0408
0000
ENDCHAR

STARTCHAR a55b
ENCODING 42331
SWIDTH 481 0
DWIDTH 16 0
BBX 16 15 0 -2
BITMAP
1000
1000
1000
127C
FF44
1244
1244
1244
1244
1244
1244
2244
4A7C
8444
0000
ENDCHAR

STARTCHAR a55c
ENCODING 42332
SWIDTH 481 0
DWIDTH 16 0
BBX 16 15 0 -2
BITMAP
0080
0880
FC80
1084
17FE
1084
1084
1084
1D04
F104
4104
0244
0428
0810
0000
ENDCHAR

STARTCHAR a55d
ENCODING 42333
SWIDTH 481 0
DWIDTH 16 0
BBX 16 15 0 -2
BITMAP
0800
0808
1FFC
1008
2008
5F88
9088
1088
1F88
1008
1032
1002
1002
0FFE
0000
ENDCHAR

STARTCHAR a55e
ENCODING 42334
SWIDTH 481 0
DWIDTH 16 0
BBX 16 15 0 -2
BITMAP
0800
0804
1FFE
1244
2244
4A44
8644
0544
08C4
1134
2214
4404
0828
0010
0000
ENDCHAR

STARTCHAR a55f
ENCODING 42335
SWIDTH 481 0
DWIDTH 16 0
BBX 16 15 0 -2
BITMAP
0440
0440
0440
0444
7C7E
0440
0440
0440
0440
0440
0442
0C42
3442
C03E
0000
ENDCHAR

STARTCHAR a560
ENCODING 42336
SWIDTH 481 0
DWIDTH 16 0
BBX 16 15 0 -2
BITMAP
0008
FFFC
4080
4080
4088
5FFC
4888
4888
4888
48A8
4890
4080
4084
7FFE
0000
ENDCHAR

STARTCHAR a561
ENCODING 42337
SWIDTH 481 0
DWIDTH 16 0
BBX 16 15 0 -2
BITMAP
0810
0838
0BC0
1040
3040
5044
9FFE
1040
1040
1040
1040
1040
1040
1040
0000
ENDCHAR

STARTCHAR a562
ENCODING 42338
SWIDTH 481 0
DWIDTH 16 0
BBX 16 15 0 -2
BITMAP
2108
1118
0920
0100
3FF8
0100
0100
0104
FFFE
0100
0100
0100
0100
0100
0000
ENDCHAR

STARTCHAR a563
ENCODING 42339
SWIDTH 481 0
DWIDTH 16 0
BBX 16 15 0 -2
BITMAP
0100
0108
7FFC
0100
0920
0920
0824
FFFE
0820
0820
0820
1020
2020
0020
0000
ENDCHAR

STARTCHAR a564
ENCODING 42340
SWIDTH 481 0
DWIDTH 16 0
BBX 16 15 0 -2
BITMAP
0200
0220
03F0
0200
0204
FFFE
0200
0200
0280
0260
0230
0210
0200
0200
0000
ENDCHAR

STARTCHAR a565
ENCODING 42341
SWIDTH 481 0
DWIDTH 16 0
BBX 16 15 0 -2
BITMAP
0200
0208
03FC
0200
0200
0200
0208
7FFC
4008
4008
4008
4008
7FF8
4008
0000
ENDCHAR

STARTCHAR a566
ENCODING 42342
SWIDTH 481 0
DWIDTH 16 0
BBX 16 15 0 -2
BITMAP
0400
0E04
707E
4244
4244
4244
4244
4E64
7254
0248
0440
1840
6040
0040
0000
ENDCHAR

STARTCHAR a567
ENCODING 42343
SWIDTH 481 0
DWIDTH 16 0
BBX 16 15 0 -2
BITMAP
0018
3FE0
2004
3FFE
2000
2010
27F8
2410
2490
2450
4420
4402
8402
03FE
0000
ENDCHAR

STARTCHAR a568
ENCODING 42344
SWIDTH 481 0
DWIDTH 16 0
BBX 16 15 0 -2
BITMAP
0100
0108
7FFC
0100
0100
0104
FFFE
0200
0200
0420
0810
1008
7FFC
0004
0000
ENDCHAR

STARTCHAR a569
ENCODING 42345
SWIDTH 481 0
DWIDTH 16 0
BBX 16 15 0 -2
BITMAP
0004
FFFE
0008
0008
1F88
1088
1088
1088
1F88
1088
0008
0008
0050
0020
0000
ENDCHAR

STARTCHAR a56a
ENCODING 42346
SWIDTH 481 0
DWIDTH 16 0
BBX 16 15 0 -2
BITMAP
0100
0100
0104
FFFE
0100
0100
0110
1FF8
1010
1010
1010
1010
1FF0
1010
0000
ENDCHAR

STARTCHAR a56b
ENCODING 42347
SWIDTH 481 0
DWIDTH 16 0
BBX 16 15 0 -2
BITMAP
0200
0204
FFFE
0400
0400
0800
0808
1FFC
2808
4808
8808
0808
0FF8
0808
0000
ENDCHAR

STARTCHAR a56c
ENCODING 42348
SWIDTH 481 0
DWIDTH 16 0
BBX 16 15 0 -2
BITMAP
0008
3FFC
0408
0408
0808
0888
1050
2020
4FF8
0808
0808
0808
0FF8
0808
0000
ENDCHAR

STARTCHAR a56d
ENCODING 42349
SWIDTH 481 0
DWIDTH 16 0
BBX 16 15 0 -2
BITMAP
0004
FBFE
8820
8820
8820
8820
8820
8820
8820
F820
8820
0020
0120
00C0
0000
ENDCHAR

STARTCHAR a56e
ENCODING 42350
SWIDTH 481 0
DWIDTH 16 0
BBX 16 15 0 -2
BITMAP
0004
09FE
FC84
8884
8884
8884
8884
8884
F8C4
88A8
0090
0080
0080
0080
0000
ENDCHAR

STARTCHAR a56f
ENCODING 42351
SWIDTH 481 0
DWIDTH 16 0
BBX 16 15 0 -2
BITMAP
0004
09FE
FC44
8844
8844
8844
8844
8844
F884
8904
0204
0444
0828
0010
0000
ENDCHAR

STARTCHAR a570
ENCODING 42352
SWIDTH 481 0
DWIDTH 16 0
BBX 16 15 0 -2
BITMAP
0004
F9FE
8804
8804
8814
8824
8844
8884
FB04
8A04
0004
0044
0028
0010
0000
ENDCHAR

STARTCHAR a571
ENCODING 42353
SWIDTH 481 0
DWIDTH 16 0
BBX 16 15 0 -2
BITMAP
FFFE
0002
0042
7FE2
0002
0082
3FC2
2082
2082
2082
3F82
20A2
0014
0008
0000
ENDCHAR

STARTCHAR a572
ENCODING 42354
SWIDTH 481 0
DWIDTH 16 0
BBX 16 15 0 -2
BITMAP
0008
7FFC
4000
4020
47F0
4420
4420
4420
4420
47E0
4420
4000
4004
7FFE
0000
ENDCHAR

STARTCHAR a573
ENCODING 42355
SWIDTH 481 0
DWIDTH 16 0
BBX 16 15 0 -2
BITMAP
0004
0004
FC84
8484
8484
8484
8484
8484
8484
FCFC
8404
0004
0004
0004
0000
ENDCHAR

STARTCHAR a574
ENCODING 42356
SWIDTH 481 0
DWIDTH 16 0
BBX 16 15 0 -2
BITMAP
0010
1FF8
1010
1010
1FF0
0200
0204
7FFE
0204
0404
0404
0844
1028
6010
0000
ENDCHAR

STARTCHAR a575
ENCODING 42357
SWIDTH 481 0
DWIDTH 16 0
BBX 16 15 0 -2
BITMAP
0008
3FFC
2008
2008
2008
2008
3FF8
2008
0000
0440
0C20
1018
200C
4004
0000
ENDCHAR

STARTCHAR a576
ENCODING 42358
SWIDTH 481 0
DWIDTH 16 0
BBX 16 15 0 -2
BITMAP
0100
0108
3FFC
2108
2108
3FF8
2108
0900
0500
0200
0580
0860
301E
C004
0000
ENDCHAR

STARTCHAR a577
ENCODING 42359
SWIDTH 481 0
DWIDTH 16 0
BBX 16 15 0 -2
BITMAP
0100
0900
FD00
8908
8918
8930
8940
8980
8B00
8900
F900
8902
0102
00FE
0000
ENDCHAR

STARTCHAR a578
ENCODING 42360
SWIDTH 481 0
DWIDTH 16 0
BBX 16 15 0 -2
BITMAP
0200
0400
0820
1010
2008
FFFC
0002
0000
3FF8
2008
2008
2008
3FF8
2008
0000
ENDCHAR

STARTCHAR a579
ENCODING 42361
SWIDTH 481 0
DWIDTH 16 0
BBX 16 15 0 -2
BITMAP
1000
1004
1FFE
2004
4044
9FE4
0844
0844
0844
0FC4
0844
0004
0028
0010
0000
ENDCHAR

STARTCHAR a57a
ENCODING 42362
SWIDTH 481 0
DWIDTH 16 0
BBX 16 15 0 -2
BITMAP
0020
0120
0930
FD20
8920
8920
8920
8920
8920
FA10
8A18
040E
0804
1000
0000
ENDCHAR

STARTCHAR a57b
ENCODING 42363
SWIDTH 481 0
DWIDTH 16 0
BBX 16 15 0 -2
BITMAP
0040
0840
FC40
8844
8BFE
8844
8844
8844
F884
8904
0104
0204
0428
0810
0000
ENDCHAR

STARTCHAR a57c
ENCODING 42364
SWIDTH 481 0
DWIDTH 16 0
BBX 16 15 0 -2
BITMAP
0000
0004
FFFE
4444
4444
4444
4444
4444
483C
5004
4004
7FFC
4004
0000
0000
ENDCHAR

STARTCHAR a57d
ENCODING 42365
SWIDTH 481 0
DWIDTH 16 0
BBX 16 15 0 -2
BITMAP
0004
FFFE
4004
4104
4104
4104
4104
4184
4244
4424
4814
4004
7FFC
4004
0000
ENDCHAR

STARTCHAR a57e
ENCODING 42366
SWIDTH 481 0
DWIDTH 16 0
BBX 16 15 0 -2
BITMAP
0840
0840
1040
1F40
2160
2150
6248
9246
0A42
0440
0840
1040
2040
0040
0000
ENDCHAR

STARTCHAR a5a1
ENCODING 42401
SWIDTH 481 0
DWIDTH 16 0
BBX 16 15 0 -2
BITMAP
0100
0110
1FF8
1110
1110
1110
1110
FFFE
0100
0280
0440
0830
300E
C004
0000
ENDCHAR

STARTCHAR a5a2
ENCODING 42402
SWIDTH 481 0
DWIDTH 16 0
BBX 16 15 0 -2
BITMAP
0100
1100
1110
1FF8
2100
4100
0104
FFFE
0100
0280
0440
0830
100E
6004
0000
ENDCHAR

STARTCHAR a5a3
ENCODING 42403
SWIDTH 481 0
DWIDTH 16 0
BBX 16 15 0 -2
BITMAP
1000
11FC
1004
FE84
2284
2284
4284
2488
1450
0820
1450
2288
410E
0604
0000
ENDCHAR

STARTCHAR a5a4
ENCODING 42404
SWIDTH 481 0
DWIDTH 16 0
BBX 16 15 0 -2
BITMAP
1008
17FC
1088
FC88
2490
2490
24BC
4904
2904
1104
2A04
4A04
8428
0810
0000
ENDCHAR

STARTCHAR a5a5
ENCODING 42405
SWIDTH 481 0
DWIDTH 16 0
BBX 16 15 0 -2
BITMAP
3FF0
0820
0824
087E
1004
17C4
2054
4088
0100
FFFE
0100
0100
0500
0200
0000
ENDCHAR

STARTCHAR a5a6
ENCODING 42406
SWIDTH 481 0
DWIDTH 16 0
BBX 16 15 0 -2
BITMAP
0200
0104
7FFE
4004
8008
0800
0820
0860
0980
0E00
0808
0808
0808
07F8
0000
ENDCHAR

STARTCHAR a5a7
ENCODING 42407
SWIDTH 481 0
DWIDTH 16 0
BBX 16 15 0 -2
BITMAP
0008
3FFC
2008
2008
3FF8
2400
2400
2400
27F8
2400
2402
4402
4402
83FE
0000
ENDCHAR

STARTCHAR a5a8
ENCODING 42408
SWIDTH 481 0
DWIDTH 16 0
BBX 16 15 0 -2
BITMAP
0010
7FF8
1000
1000
1020
1FF0
1020
1020
1020
1FE0
1020
1000
1008
FFFC
0000
ENDCHAR

STARTCHAR a5a9
ENCODING 42409
SWIDTH 481 0
DWIDTH 16 0
BBX 16 15 0 -2
BITMAP
0004
03FE
FC40
1040
1080
1104
11FE
1004
1C04
F004
4004
0044
0028
0010
0000
ENDCHAR

STARTCHAR a5aa
ENCODING 42410
SWIDTH 481 0
DWIDTH 16 0
BBX 16 15 0 -2
BITMAP
0200
0200
0208
FFFC
0400
0400
0810
0FF8
1080
2080
4080
8080
0084
7FFE
0000
ENDCHAR

STARTCHAR a5ab
ENCODING 42411
SWIDTH 481 0
DWIDTH 16 0
BBX 16 15 0 -2
BITMAP
0200
0100
0004
FFFE
0100
0108
3FFC
2108
2108
2108
2128
2110
0100
0100
0000
ENDCHAR

STARTCHAR a5ac
ENCODING 42412
SWIDTH 481 0
DWIDTH 16 0
BBX 16 15 0 -2
BITMAP
0200
0208
FFFC
0400
0900
1108
3FFC
5108
9108
1108
1128
1110
0100
0100
0000
ENDCHAR

STARTCHAR a5ad
ENCODING 42413
SWIDTH 481 0
DWIDTH 16 0
BBX 16 15 0 -2
BITMAP
0008
7FFC
0100
1110
0910
0920
0104
FFFE
0100
0100
0100
0100
0100
0100
0000
ENDCHAR

STARTCHAR a5ae
ENCODING 42414
SWIDTH 481 0
DWIDTH 16 0
BBX 16 15 0 -2
BITMAP
0040
1040
1040
2044
25FE
4444
F844
1044
2044
4884
FC84
4504
0228
0410
0000
ENDCHAR

STARTCHAR a5af
ENCODING 42415
SWIDTH 481 0
DWIDTH 16 0
BBX 16 15 0 -2
BITMAP
0300
0440
0820
3FF0
0010
0440
0444
FFFE
0440
0440
0840
0840
1040
2040
0000
ENDCHAR

STARTCHAR a5b0
ENCODING 42416
SWIDTH 481 0
DWIDTH 16 0
BBX 16 15 0 -2
BITMAP
0420
FE30
0420
0420
7C20
4020
4020
7C40
0480
0490
0508
0BFC
4902
3002
0000
ENDCHAR

STARTCHAR a5b1
ENCODING 42417
SWIDTH 481 0
DWIDTH 16 0
BBX 16 15 0 -2
BITMAP
0440
0448
7FFC
0448
0448
3FF8
2440
2444
3FFE
0444
0854
3048
C040
0040
0000
ENDCHAR

STARTCHAR a5b2
ENCODING 42418
SWIDTH 481 0
DWIDTH 16 0
BBX 16 15 0 -2
BITMAP
0200
0120
0130
0820
4848
4846
4882
8900
0A08
0C08
1808
2808
47F8
0000
0000
ENDCHAR

STARTCHAR a5b3
ENCODING 42419
SWIDTH 481 0
DWIDTH 16 0
BBX 16 15 0 -2
BITMAP
0080
0090
0088
3FFE
2080
2084
2048
2048
2030
2020
4060
4092
830A
0006
0000
ENDCHAR

STARTCHAR a5b4
ENCODING 42420
SWIDTH 481 0
DWIDTH 16 0
BBX 16 15 0 -2
BITMAP
1000
1004
13FE
FC20
1020
1420
1820
3020
D020
1020
1020
1020
50A0
2040
0000
ENDCHAR

STARTCHAR a5b5
ENCODING 42421
SWIDTH 481 0
DWIDTH 16 0
BBX 16 15 0 -2
BITMAP
1000
1000
13FC
FC88
1088
1490
18BE
3082
D102
1102
1202
1222
5414
2008
0000
ENDCHAR

STARTCHAR a5b6
ENCODING 42422
SWIDTH 481 0
DWIDTH 16 0
BBX 16 15 0 -2
BITMAP
1000
1020
1130
FD20
1120
1520
1920
3120
D120
1210
1218
140E
5804
2000
0000
ENDCHAR

STARTCHAR a5b7
ENCODING 42423
SWIDTH 481 0
DWIDTH 16 0
BBX 16 15 0 -2
BITMAP
1040
1040
1040
FE40
1060
1458
184C
3044
D040
1040
1040
1040
5040
2040
0000
ENDCHAR

STARTCHAR a5b8
ENCODING 42424
SWIDTH 481 0
DWIDTH 16 0
BBX 16 15 0 -2
BITMAP
0018
3FE0
2000
2008
3FFC
2080
2080
20E0
20B0
2090
4080
4080
8080
0080
0000
ENDCHAR

STARTCHAR a5b9
ENCODING 42425
SWIDTH 481 0
DWIDTH 16 0
BBX 16 15 0 -2
BITMAP
0010
1FF8
1010
1010
1010
1FF0
1010
1010
1010
1FF0
0000
0000
0004
FFFE
0000
ENDCHAR

STARTCHAR a5ba
ENCODING 42426
SWIDTH 481 0
DWIDTH 16 0
BBX 16 15 0 -2
BITMAP
0100
0110
0108
0104
FFFE
0100
1110
1110
1110
1110
2110
C11E
0100
0100
0000
ENDCHAR

STARTCHAR a5bb
ENCODING 42427
SWIDTH 481 0
DWIDTH 16 0
BBX 16 15 0 -2
BITMAP
0100
0100
0108
7FFC
0540
0540
0540
0920
0920
1110
2FEE
C104
0100
0100
0000
ENDCHAR

STARTCHAR a5bc
ENCODING 42428
SWIDTH 481 0
DWIDTH 16 0
BBX 16 15 0 -2
BITMAP
0100
0110
3FF8
0100
0104
FFFE
0380
0540
0920
1110
210E
4104
0100
0100
0000
ENDCHAR

STARTCHAR a5bd
ENCODING 42429
SWIDTH 481 0
DWIDTH 16 0
BBX 16 15 0 -2
BITMAP
0100
0104
FFFE
0100
0108
7FFC
0380
0540
0920
1118
210E
C104
0100
0100
0000
ENDCHAR

STARTCHAR a5be
ENCODING 42430
SWIDTH 481 0
DWIDTH 16 0
BBX 16 15 0 -2
BITMAP
0840
0840
0840
FF40
0840
1840
1C40
2A40
2A40
4840
0842
0842
083E
0800
0000
ENDCHAR

STARTCHAR a5bf
ENCODING 42431
SWIDTH 481 0
DWIDTH 16 0
BBX 16 15 0 -2
BITMAP
0008
7FFC
0100
0100
0100
0100
1110
11F8
1100
1100
1100
1100
1104
FFFE
0000
ENDCHAR

STARTCHAR a5c0
ENCODING 42432
SWIDTH 481 0
DWIDTH 16 0
BBX 16 15 0 -2
BITMAP
0010
1FF8
1210
1190
1090
1010
FFFE
1210
1190
2090
3FFC
0010
00A0
0040
0000
ENDCHAR

STARTCHAR a5c1
ENCODING 42433
SWIDTH 481 0
DWIDTH 16 0
BBX 16 15 0 -2
BITMAP
7FF8
4010
4010
7FF0
4200
4208
7FFC
4200
4100
4100
4880
5042
6032
400E
0000
ENDCHAR

STARTCHAR a5c2
ENCODING 42434
SWIDTH 481 0
DWIDTH 16 0
BBX 16 15 0 -2
BITMAP
0010
00F8
3F80
2080
2084
3FFE
2080
2040
2040
2420
2820
7012
200A
1FC6
0000
ENDCHAR

STARTCHAR a5c3
ENCODING 42435
SWIDTH 481 0
DWIDTH 16 0
BBX 16 15 0 -2
BITMAP
0200
0100
1F00
0108
0118
7DA0
05C0
0540
0920
1110
210E
4104
0500
0200
0000
ENDCHAR

STARTCHAR a5c4
ENCODING 42436
SWIDTH 481 0
DWIDTH 16 0
BBX 16 15 0 -2
BITMAP
4040
3040
1040
8040
6044
27FE
0840
1040
2040
E040
2040
2040
2040
2040
0000
ENDCHAR

STARTCHAR a5c5
ENCODING 42437
SWIDTH 481 0
DWIDTH 16 0
BBX 16 15 0 -2
BITMAP
4000
3004
17FE
8040
6040
2040
0840
1040
2040
E040
2040
2040
2140
2080
0000
ENDCHAR

STARTCHAR a5c6
ENCODING 42438
SWIDTH 481 0
DWIDTH 16 0
BBX 16 15 0 -2
BITMAP
4000
27FC
1204
0204
8204
4204
2228
0210
0A00
1200
2200
C204
4204
41FE
0000
ENDCHAR

STARTCHAR a5c7
ENCODING 42439
SWIDTH 481 0
DWIDTH 16 0
BBX 16 15 0 -2
BITMAP
4408
29FC
1108
2908
4908
8908
1948
2930
4900
8900
0902
0902
50FE
2000
0000
ENDCHAR

STARTCHAR a5c8
ENCODING 42440
SWIDTH 481 0
DWIDTH 16 0
BBX 16 15 0 -2
BITMAP
0200
0104
FFFE
0200
0420
0840
3080
0900
0600
0420
0810
1008
7FFC
0004
0000
ENDCHAR

STARTCHAR a5c9
ENCODING 42441
SWIDTH 481 0
DWIDTH 16 0
BBX 16 15 0 -2
BITMAP
0008
7FFC
0100
0100
0100
0110
3FF8
0100
0140
0130
0110
0104
FFFE
0000
0000
ENDCHAR

STARTCHAR a5ca
ENCODING 42442
SWIDTH 481 0
DWIDTH 16 0
BBX 16 15 0 -2
BITMAP
0010
0078
1F80
1240
1240
1240
1240
1220
2220
2290
2248
42A6
4324
8000
0000
ENDCHAR

STARTCHAR a5cb
ENCODING 42443
SWIDTH 481 0
DWIDTH 16 0
BBX 16 15 0 -2
BITMAP
0008
7FFC
0800
0800
0820
0FF0
0820
0A20
0920
0920
1020
1F22
F022
401E
0000
ENDCHAR

STARTCHAR a5cc
ENCODING 42444
SWIDTH 481 0
DWIDTH 16 0
BBX 16 15 0 -2
BITMAP
0820
0820
0824
FFFE
0820
0820
0820
0FE0
0820
0820
0820
0820
0FE0
0820
0000
ENDCHAR

STARTCHAR a5cd
ENCODING 42445
SWIDTH 481 0
DWIDTH 16 0
BBX 16 15 0 -2
BITMAP
0100
1100
1108
3FFC
2100
4100
8100
0110
3FF8
0100
0100
0100
0104
FFFE
0000
ENDCHAR

STARTCHAR a5ce
ENCODING 42446
SWIDTH 481 0
DWIDTH 16 0
BBX 16 15 0 -2
BITMAP
0008
3FFC
2108
2108
3FF8
2108
2108
3FF8
2108
2108
2108
4108
4128
8010
0000
ENDCHAR

STARTCHAR a5cf
ENCODING 42447
SWIDTH 481 0
DWIDTH 16 0
BBX 16 15 0 -2
BITMAP
0008
3FFC
2108
2108
3FF8
2108
2108
3FF8
2108
2108
2128
2112
4102
80FE
0000
ENDCHAR

STARTCHAR a5d0
ENCODING 42448
SWIDTH 481 0
DWIDTH 16 0
BBX 16 15 0 -2
BITMAP
0004
7FFE
4104
4104
4104
4104
7FFC
4104
4104
4104
4104
4104
7FFC
4004
0000
ENDCHAR

STARTCHAR a5d1
ENCODING 42449
SWIDTH 481 0
DWIDTH 16 0
BBX 16 15 0 -2
BITMAP
0100
0100
0100
0104
7FFE
4104
4104
4104
7FFC
4104
4104
4104
7FFC
4004
0000
ENDCHAR

STARTCHAR a5d2
ENCODING 42450
SWIDTH 481 0
DWIDTH 16 0
BBX 16 15 0 -2
BITMAP
0004
7FFE
4104
4104
7FFC
4104
4104
7FFC
4104
0100
0100
0100
0100
0100
0000
ENDCHAR

STARTCHAR a5d3
ENCODING 42451
SWIDTH 481 0
DWIDTH 16 0
BBX 16 15 0 -2
BITMAP
0100
0100
0108
3FFC
2108
2108
3FF8
2108
2108
3FF8
2108
0100
0100
0100
0000
ENDCHAR

STARTCHAR a5d4
ENCODING 42452
SWIDTH 481 0
DWIDTH 16 0
BBX 16 15 0 -2
BITMAP
0008
7FFC
0108
0110
0900
0910
09F8
1100
1900
2500
2300
4100
8080
007E
0000
ENDCHAR

STARTCHAR a5d5
ENCODING 42453
SWIDTH 481 0
DWIDTH 16 0
BBX 16 15 0 -2
BITMAP
0200
0400
0808
3FFC
2008
2008
2008
3FF8
2008
2008
2008
2008
3FF8
2008
0000
ENDCHAR

STARTCHAR a5d6
ENCODING 42454
SWIDTH 481 0
DWIDTH 16 0
BBX 16 15 0 -2
BITMAP
0080
0080
3FFE
2082
2084
2FF8
2008
2410
2220
2140
2080
4160
461E
9804
0000
ENDCHAR

STARTCHAR a5d7
ENCODING 42455
SWIDTH 481 0
DWIDTH 16 0
BBX 16 15 0 -2
BITMAP
0000
0008
7FFC
2448
2448
2448
2448
2448
2448
2448
2448
2448
FFFE
0000
0000
ENDCHAR

STARTCHAR a5d8
ENCODING 42456
SWIDTH 481 0
DWIDTH 16 0
BBX 16 15 0 -2
BITMAP
0010
3FF8
2010
2010
2010
3FF0
2010
2010
3FF0
2010
2010
2010
3FF0
2010
0000
ENDCHAR

STARTCHAR a5d9
ENCODING 42457
SWIDTH 481 0
DWIDTH 16 0
BBX 16 15 0 -2
BITMAP
1FF0
0020
0240
0180
0084
FFFE
0184
0288
0480
0880
1080
2080
0280
0100
0000
ENDCHAR

STARTCHAR a5da
ENCODING 42458
SWIDTH 481 0
DWIDTH 16 0
BBX 16 15 0 -2
BITMAP
1000
1010
1FF8
1100
2100
4100
0104
FFFE
0100
0280
0440
0820
101C
6008
0000
ENDCHAR

STARTCHAR a5db
ENCODING 42459
SWIDTH 481 0
DWIDTH 16 0
BBX 16 15 0 -2
BITMAP
0004
FFFE
0200
0400
0400
0808
1FFC
2808
4808
8808
0808
0808
0FF8
0808
0000
ENDCHAR

STARTCHAR a5dc
ENCODING 42460
SWIDTH 481 0
DWIDTH 16 0
BBX 16 15 0 -2
BITMAP
0010
3FF8
0000
0000
0004
FFFE
0100
1120
3110
410C
8104
0100
0100
0100
0000
ENDCHAR

STARTCHAR a5dd
ENCODING 42461
SWIDTH 481 0
DWIDTH 16 0
BBX 16 15 0 -2
BITMAP
0010
0038
3FC0
0100
0104
FFFE
0100
0380
0540
0920
1118
210E
4104
0100
0000
ENDCHAR

STARTCHAR a5de
ENCODING 42462
SWIDTH 481 0
DWIDTH 16 0
BBX 16 15 0 -2
BITMAP
0200
0100
0104
7FFE
4004
8088
0480
0440
0840
1020
1010
200E
4004
0000
0000
ENDCHAR

STARTCHAR a5df
ENCODING 42463
SWIDTH 481 0
DWIDTH 16 0
BBX 16 15 0 -2
BITMAP
0200
0100
0108
7FFC
0000
0010
1010
0820
0440
0440
0480
0004
FFFE
0000
0000
ENDCHAR

STARTCHAR a5e0
ENCODING 42464
SWIDTH 481 0
DWIDTH 16 0
BBX 16 15 0 -2
BITMAP
0020
3FF0
0040
0080
0108
7D18
05E0
0920
1110
110E
2104
4500
0204
FFFE
0000
ENDCHAR

STARTCHAR a5e1
ENCODING 42465
SWIDTH 481 0
DWIDTH 16 0
BBX 16 15 0 -2
BITMAP
0008
7FFC
0100
0110
3FF8
0100
0104
FFFE
0800
1000
2010
4008
FFFC
4004
0000
ENDCHAR

STARTCHAR a5e2
ENCODING 42466
SWIDTH 481 0
DWIDTH 16 0
BBX 16 15 0 -2
BITMAP
0030
0FC0
0800
0808
0FFC
0820
0820
0824
FFFE
0000
0200
0600
0800
1000
0000
ENDCHAR

STARTCHAR a5e3
ENCODING 42467
SWIDTH 481 0
DWIDTH 16 0
BBX 16 15 0 -2
BITMAP
0030
0FC0
0800
0808
0FFC
0820
0820
0824
FFFE
0000
0040
0030
0018
0008
0000
ENDCHAR

STARTCHAR a5e4
ENCODING 42468
SWIDTH 481 0
DWIDTH 16 0
BBX 16 15 0 -2
BITMAP
1040
1040
1240
1F40
1040
1040
1240
7F40
4240
4240
4242
4242
7E42
423E
0000
ENDCHAR

STARTCHAR a5e5
ENCODING 42469
SWIDTH 481 0
DWIDTH 16 0
BBX 16 15 0 -2
BITMAP
0008
7FFC
0400
0400
07F8
0A10
0910
0890
0A10
0910
1090
0020
0044
FFFE
0000
ENDCHAR

STARTCHAR a5e6
ENCODING 42470
SWIDTH 481 0
DWIDTH 16 0
BBX 16 15 0 -2
BITMAP
0100
0104
FFFE
0810
100C
2824
4440
0280
0100
0280
0440
0830
300E
C004
0000
ENDCHAR

STARTCHAR a5e7
ENCODING 42471
SWIDTH 481 0
DWIDTH 16 0
BBX 16 15 0 -2
BITMAP
0200
0100
0104
FFFE
0440
0440
1450
1448
2444
4444
0440
0840
1140
0080
0000
ENDCHAR

STARTCHAR a5e8
ENCODING 42472
SWIDTH 481 0
DWIDTH 16 0
BBX 16 15 0 -2
BITMAP
0200
0104
FFFE
0200
0460
0880
1F10
0230
0440
08C0
3120
0610
180C
6004
0000
ENDCHAR

STARTCHAR a5e9
ENCODING 42473
SWIDTH 481 0
DWIDTH 16 0
BBX 16 15 0 -2
BITMAP
0840
0820
1024
17FE
3080
5088
90FC
1088
1088
1088
1108
1108
1250
1420
0000
ENDCHAR

STARTCHAR a5ea
ENCODING 42474
SWIDTH 481 0
DWIDTH 16 0
BBX 16 15 0 -2
BITMAP
0880
0844
17FE
1000
3010
51F8
9110
1110
1110
1110
1212
1212
1412
180E
0000
ENDCHAR

STARTCHAR a5eb
ENCODING 42475
SWIDTH 481 0
DWIDTH 16 0
BBX 16 15 0 -2
BITMAP
0840
0840
1040
1044
344C
5250
9260
1040
10A0
1110
1110
1208
140E
1804
0000
ENDCHAR

STARTCHAR a5ec
ENCODING 42476
SWIDTH 481 0
DWIDTH 16 0
BBX 16 15 0 -2
BITMAP
0808
0BFC
0888
1088
3FFE
5088
9088
13F8
1088
1080
1100
1100
1200
1400
0000
ENDCHAR

STARTCHAR a5ed
ENCODING 42477
SWIDTH 481 0
DWIDTH 16 0
BBX 16 15 0 -2
BITMAP
0840
0840
1040
23F8
6040
A040
2048
27FC
2040
2040
20A0
2110
2208
2404
0000
ENDCHAR

STARTCHAR a5ee
ENCODING 42478
SWIDTH 481 0
DWIDTH 16 0
BBX 16 15 0 -2
BITMAP
1000
1008
17FC
2080
6080
A088
27FC
2108
2108
2108
2108
2208
3FFE
2000
0000
ENDCHAR

STARTCHAR a5ef
ENCODING 42479
SWIDTH 481 0
DWIDTH 16 0
BBX 16 15 0 -2
BITMAP
0880
08A0
0890
1090
30FC
5780
9088
1050
1060
1040
10A0
1112
160A
1006
0000
ENDCHAR

STARTCHAR a5f0
ENCODING 42480
SWIDTH 481 0
DWIDTH 16 0
BBX 16 15 0 -2
BITMAP
0840
0840
1044
17FE
3040
50E0
90E0
1150
1150
1248
1446
1844
1040
1040
0000
ENDCHAR

STARTCHAR a5f1
ENCODING 42481
SWIDTH 481 0
DWIDTH 16 0
BBX 16 15 0 -2
BITMAP
0850
0848
1048
1040
3FFE
5040
9040
10A0
10A0
1110
1110
1208
140E
1804
0000
ENDCHAR

STARTCHAR a5f2
ENCODING 42482
SWIDTH 481 0
DWIDTH 16 0
BBX 16 15 0 -2
BITMAP
0840
0840
1044
17FE
3444
5444
9444
1444
17FC
1444
1040
1040
1040
1040
0000
ENDCHAR

STARTCHAR a5f3
ENCODING 42483
SWIDTH 481 0
DWIDTH 16 0
BBX 16 15 0 -2
BITMAP
1040
1240
2248
23FC
6440
A440
2840
2044
3FFE
2040
2040
2040
2040
2040
0000
ENDCHAR

STARTCHAR a5f4
ENCODING 42484
SWIDTH 481 0
DWIDTH 16 0
BBX 16 15 0 -2
BITMAP
0800
0810
0BF8
1040
3040
5044
9FFE
1040
1040
1040
1048
17FC
1000
1000
0000
ENDCHAR

STARTCHAR a5f5
ENCODING 42485
SWIDTH 481 0
DWIDTH 16 0
BBX 16 15 0 -2
BITMAP
0880
0904
127E
1444
2444
6444
A444
2444
2544
2654
2448
2040
2040
2040
0000
ENDCHAR

STARTCHAR a5f6
ENCODING 42486
SWIDTH 481 0
DWIDTH 16 0
BBX 16 15 0 -2
BITMAP
0820
0A20
1220
1220
3220
53BE
9220
1220
1220
1260
12A2
1322
121E
1000
0000
ENDCHAR

STARTCHAR a5f7
ENCODING 42487
SWIDTH 481 0
DWIDTH 16 0
BBX 16 15 0 -2
BITMAP
0820
0920
1110
1210
320E
5404
9BF0
1110
1110
1110
1210
1210
14A0
1040
0000
ENDCHAR

STARTCHAR a5f8
ENCODING 42488
SWIDTH 481 0
DWIDTH 16 0
BBX 16 15 0 -2
BITMAP
0100
0280
0440
0820
1110
210E
C104
0900
09F0
0900
0900
0900
0904
FFFE
0000
ENDCHAR

STARTCHAR a5f9
ENCODING 42489
SWIDTH 481 0
DWIDTH 16 0
BBX 16 15 0 -2
BITMAP
1008
27FC
4108
A110
2120
21FC
2184
2248
2250
2420
2450
2888
310E
2204
0000
ENDCHAR

STARTCHAR a5fa
ENCODING 42490
SWIDTH 481 0
DWIDTH 16 0
BBX 16 15 0 -2
BITMAP
0100
110C
0910
0920
0104
FFFE
0440
0440
0440
0840
0842
1042
2042
403E
0000
ENDCHAR

STARTCHAR a5fb
ENCODING 42491
SWIDTH 481 0
DWIDTH 16 0
BBX 16 15 0 -2
BITMAP
4010
4890
4510
4210
4590
4890
4010
7FF0
4890
0880
0880
1082
2082
C07E
0000
ENDCHAR

STARTCHAR a5fc
ENCODING 42492
SWIDTH 481 0
DWIDTH 16 0
BBX 16 15 0 -2
BITMAP
0480
0480
6498
14A0
14C0
0480
04C0
1CA0
6498
0880
0882
1082
2082
C07E
0000
ENDCHAR

STARTCHAR a5fd
ENCODING 42493
SWIDTH 481 0
DWIDTH 16 0
BBX 16 15 0 -2
BITMAP
0100
1110
1FF8
1100
2100
0104
FFFE
0480
0480
0880
0882
1082
2082
C07E
0000
ENDCHAR

STARTCHAR a5fe
ENCODING 42494
SWIDTH 481 0
DWIDTH 16 0
BBX 16 15 0 -2
BITMAP
0100
0280
0440
0820
1010
2FEE
C104
0100
0100
0FE0
0100
0100
0108
7FFC
0000
ENDCHAR

STARTCHAR a640
ENCODING 42560
SWIDTH 481 0
DWIDTH 16 0
BBX 16 15 0 -2
BITMAP
0440
0440
0448
7FFC
0440
0440
0440
0444
FFFE
0000
0440
0C30
1018
2008
0000
ENDCHAR

STARTCHAR a641
ENCODING 42561
SWIDTH 481 0
DWIDTH 16 0
BBX 16 15 0 -2
BITMAP
7FFC
0100
0110
1FF8
1110
1110
1FF0
1110
1110
FFFE
1010
1010
1050
1020
0000
ENDCHAR

STARTCHAR a642
ENCODING 42562
SWIDTH 481 0
DWIDTH 16 0
BBX 16 15 0 -2
BITMAP
4080
3080
1084
008C
0F90
11E0
12C0
22A0
E490
2488
288E
3084
2280
2100
0000
ENDCHAR

STARTCHAR a643
ENCODING 42563
SWIDTH 481 0
DWIDTH 16 0
BBX 16 15 0 -2
BITMAP
0104
7F84
1004
1024
1F24
2124
2124
5224
8A24
0424
0804
1004
2014
4008
0000
ENDCHAR

STARTCHAR a644
ENCODING 42564
SWIDTH 481 0
DWIDTH 16 0
BBX 16 15 0 -2
BITMAP
0084
7FC4
1104
1124
1124
1124
FFE4
1124
1124
1124
2104
2104
4114
0108
0000
ENDCHAR

STARTCHAR a645
ENCODING 42565
SWIDTH 481 0
DWIDTH 16 0
BBX 16 15 0 -2
BITMAP
1404
1204
1024
13A4
FC24
1024
1124
1224
0C24
0824
1404
2484
4294
0188
0000
ENDCHAR

STARTCHAR a646
ENCODING 42566
SWIDTH 481 0
DWIDTH 16 0
BBX 16 15 0 -2
BITMAP
1004
1004
3FA4
2AA4
4AA4
8AA4
12A4
14A4
24A4
44A4
0884
1084
2514
0208
0000
ENDCHAR

STARTCHAR a647
ENCODING 42567
SWIDTH 481 0
DWIDTH 16 0
BBX 16 15 0 -2
BITMAP
0102
3F82
2112
2112
3F12
2112
2112
3F12
2112
2112
2102
4102
450A
8204
0000
ENDCHAR

STARTCHAR a648
ENCODING 42568
SWIDTH 481 0
DWIDTH 16 0
BBX 16 15 0 -2
BITMAP
0100
1118
110C
2334
00C0
0700
1900
E108
1FFC
0108
0208
0408
0850
3020
0000
ENDCHAR

STARTCHAR a649
ENCODING 42569
SWIDTH 481 0
DWIDTH 16 0
BBX 16 15 0 -2
BITMAP
0800
1004
1FFE
2004
4044
9044
28A4
2524
2224
2524
28A4
3FE4
2004
0018
0000
ENDCHAR

STARTCHAR a64a
ENCODING 42570
SWIDTH 481 0
DWIDTH 16 0
BBX 16 15 0 -2
BITMAP
0008
7FFC
4000
5FF0
4100
4100
4100
4FE0
4100
4100
4100
5FF0
4004
7FFE
0000
ENDCHAR

STARTCHAR a64b
ENCODING 42571
SWIDTH 481 0
DWIDTH 16 0
BBX 16 15 0 -2
BITMAP
0008
FFFC
8070
8F80
8800
8810
8FF8
8840
8840
8840
9040
A040
8044
FFFE
0000
ENDCHAR

STARTCHAR a64c
ENCODING 42572
SWIDTH 481 0
DWIDTH 16 0
BBX 16 15 0 -2
BITMAP
0604
78FE
4084
4084
4484
7E84
4084
4084
4084
4CA8
7090
C080
0080
0080
0000
ENDCHAR

STARTCHAR a64d
ENCODING 42573
SWIDTH 481 0
DWIDTH 16 0
BBX 16 15 0 -2
BITMAP
0800
0FE0
1040
2088
5FFC
1000
13F8
1210
1210
1250
2222
2202
4202
81FE
0000
ENDCHAR

STARTCHAR a64e
ENCODING 42574
SWIDTH 481 0
DWIDTH 16 0
BBX 16 15 0 -2
BITMAP
0100
0104
FFFE
0100
0110
3FF8
0000
0010
1FF8
1010
1010
1010
1FF0
1010
0000
ENDCHAR

STARTCHAR a64f
ENCODING 42575
SWIDTH 481 0
DWIDTH 16 0
BBX 16 15 0 -2
BITMAP
0100
0104
FFFE
0100
0108
3FFC
2108
2108
3FF8
0900
0600
0580
1870
E00E
0000
ENDCHAR

STARTCHAR a650
ENCODING 42576
SWIDTH 481 0
DWIDTH 16 0
BBX 16 15 0 -2
BITMAP
0004
7FFE
4004
4024
5FF4
4004
4FE4
4824
4824
4FE4
4824
4004
4014
4008
0000
ENDCHAR

STARTCHAR a651
ENCODING 42577
SWIDTH 481 0
DWIDTH 16 0
BBX 16 15 0 -2
BITMAP
0010
1FF8
1010
1010
1FF0
0100
0104
7FFE
4104
4104
4114
4108
0100
0100
0000
ENDCHAR

STARTCHAR a652
ENCODING 42578
SWIDTH 481 0
DWIDTH 16 0
BBX 16 15 0 -2
BITMAP
0040
0840
FC40
8840
8848
8FFC
8840
8840
8840
F840
8840
0040
0044
0FFE
0000
ENDCHAR

STARTCHAR a653
ENCODING 42579
SWIDTH 481 0
DWIDTH 16 0
BBX 16 15 0 -2
BITMAP
0008
03FC
F840
8840
8844
8FFE
8840
8840
F840
8840
0040
0040
0140
0080
0000
ENDCHAR

STARTCHAR a654
ENCODING 42580
SWIDTH 481 0
DWIDTH 16 0
BBX 16 15 0 -2
BITMAP
0010
0010
F810
8FFE
8810
8810
8910
8890
8890
F810
8810
0090
0050
0020
0000
ENDCHAR

STARTCHAR a655
ENCODING 42581
SWIDTH 481 0
DWIDTH 16 0
BBX 16 15 0 -2
BITMAP
0400
07F0
0810
1420
2240
0180
0660
181E
E004
0FF0
0810
0810
0FF0
0810
0000
ENDCHAR

STARTCHAR a656
ENCODING 42582
SWIDTH 481 0
DWIDTH 16 0
BBX 16 15 0 -2
BITMAP
0200
0400
0804
7FFE
4004
4044
47E4
4444
4444
47C4
4444
4004
4014
4008
0000
ENDCHAR

STARTCHAR a657
ENCODING 42583
SWIDTH 481 0
DWIDTH 16 0
BBX 16 15 0 -2
BITMAP
0200
07F8
0410
0C20
1240
0180
0600
1808
EFFC
0808
0808
0808
0FF8
0808
0000
ENDCHAR

STARTCHAR a658
ENCODING 42584
SWIDTH 481 0
DWIDTH 16 0
BBX 16 15 0 -2
BITMAP
0100
0280
0440
0820
3018
CFE6
0000
0020
0FF0
0820
0820
0820
0FE0
0820
0000
ENDCHAR

STARTCHAR a659
ENCODING 42585
SWIDTH 481 0
DWIDTH 16 0
BBX 16 15 0 -2
BITMAP
0080
0104
F9FE
8A00
8C00
8BF8
8810
8820
8840
F880
8900
0202
0202
01FE
0000
ENDCHAR

STARTCHAR a65a
ENCODING 42586
SWIDTH 481 0
DWIDTH 16 0
BBX 16 15 0 -2
BITMAP
0010
0078
3F80
2000
2004
3FFE
2000
2008
27FC
2408
2408
4408
87F8
0408
0000
ENDCHAR

STARTCHAR a65b
ENCODING 42587
SWIDTH 481 0
DWIDTH 16 0
BBX 16 15 0 -2
BITMAP
0040
0840
FC40
8884
8B04
8888
8850
8820
8840
F880
8908
0204
07FE
0002
0000
ENDCHAR

STARTCHAR a65c
ENCODING 42588
SWIDTH 481 0
DWIDTH 16 0
BBX 16 15 0 -2
BITMAP
0008
081C
FDE0
8840
8844
887E
8FC0
8840
8840
F840
8840
0042
0042
003E
0000
ENDCHAR

STARTCHAR a65d
ENCODING 42589
SWIDTH 481 0
DWIDTH 16 0
BBX 16 15 0 -2
BITMAP
0004
7FFE
4104
4104
5FF4
4104
4284
4244
4424
4814
5014
4004
7FFC
4004
0000
ENDCHAR

STARTCHAR a65e
ENCODING 42590
SWIDTH 481 0
DWIDTH 16 0
BBX 16 15 0 -2
BITMAP
0004
FFFE
8004
8004
9FE4
9024
9024
9024
9024
9FE4
9024
8004
FFFC
8004
0000
ENDCHAR

STARTCHAR a65f
ENCODING 42591
SWIDTH 481 0
DWIDTH 16 0
BBX 16 15 0 -2
BITMAP
0004
FFFE
8004
8FC4
8084
8104
BFF4
8104
8104
8104
8504
8204
FFFC
8004
0000
ENDCHAR

STARTCHAR a660
ENCODING 42592
SWIDTH 481 0
DWIDTH 16 0
BBX 16 15 0 -2
BITMAP
1004
1104
1124
1124
FD24
1124
1124
1124
1D24
F124
4224
0204
0404
0004
0000
ENDCHAR

STARTCHAR a661
ENCODING 42593
SWIDTH 481 0
DWIDTH 16 0
BBX 16 15 0 -2
BITMAP
0040
2040
2240
2248
227C
FBC8
2648
2248
2248
2250
2242
3A02
E202
41FE
0000
ENDCHAR

STARTCHAR a662
ENCODING 42594
SWIDTH 481 0
DWIDTH 16 0
BBX 16 15 0 -2
BITMAP
0200
0204
FFFE
0400
0440
0840
0848
13FC
3040
5040
9040
1044
17FE
1000
0000
ENDCHAR

STARTCHAR a663
ENCODING 42595
SWIDTH 481 0
DWIDTH 16 0
BBX 16 15 0 -2
BITMAP
0100
0110
3FF8
0100
0100
0104
FFFE
0100
0110
3FF8
0100
0100
0104
FFFE
0000
ENDCHAR

STARTCHAR a664
ENCODING 42596
SWIDTH 481 0
DWIDTH 16 0
BBX 16 15 0 -2
BITMAP
1008
11FC
1000
FE04
13FE
1080
1080
11FC
1E04
F004
4004
0044
0028
0010
0000
ENDCHAR

STARTCHAR a665
ENCODING 42597
SWIDTH 481 0
DWIDTH 16 0
BBX 16 15 0 -2
BITMAP
1000
1008
13FC
1208
1208
FE08
1208
13F8
1208
1E00
F200
4202
0202
01FE
0000
ENDCHAR

STARTCHAR a666
ENCODING 42598
SWIDTH 481 0
DWIDTH 16 0
BBX 16 15 0 -2
BITMAP
1000
1008
11FC
1020
FE20
1024
13FE
1020
1E20
F020
4020
0020
00A0
0040
0000
ENDCHAR

STARTCHAR a667
ENCODING 42599
SWIDTH 481 0
DWIDTH 16 0
BBX 16 15 0 -2
BITMAP
0010
3FF8
2010
2FD0
2210
27D0
2450
2C50
3290
2110
2212
4412
480A
8004
0000
ENDCHAR

STARTCHAR a668
ENCODING 42600
SWIDTH 481 0
DWIDTH 16 0
BBX 16 15 0 -2
BITMAP
0200
07F0
0820
1840
2580
0280
0C88
71FC
0208
0C10
3220
01C0
0E00
7000
0000
ENDCHAR

STARTCHAR a669
ENCODING 42601
SWIDTH 481 0
DWIDTH 16 0
BBX 16 15 0 -2
BITMAP
0100
0104
FFFE
0100
3FF0
0110
3FF0
2100
3FFC
0104
0298
0C40
3030
C00E
0000
ENDCHAR

STARTCHAR a66a
ENCODING 42602
SWIDTH 481 0
DWIDTH 16 0
BBX 16 15 0 -2
BITMAP
0200
0208
7FFC
0440
0820
37D8
C006
3FF8
0400
0FE0
0020
0020
0040
0380
0000
ENDCHAR

STARTCHAR a66b
ENCODING 42603
SWIDTH 481 0
DWIDTH 16 0
BBX 16 15 0 -2
BITMAP
0200
0108
7FFC
1000
1020
1FF0
0200
FFFE
0420
0820
0440
0380
0460
3818
0000
ENDCHAR

STARTCHAR a66c
ENCODING 42604
SWIDTH 481 0
DWIDTH 16 0
BBX 16 15 0 -2
BITMAP
1008
11FC
1020
FC20
2424
27FE
2420
4420
2820
1020
2820
4420
8420
0020
0000
ENDCHAR

STARTCHAR a66d
ENCODING 42605
SWIDTH 481 0
DWIDTH 16 0
BBX 16 15 0 -2
BITMAP
2000
2008
21FC
2008
FC08
2408
25F8
2508
4500
2900
1100
2902
4502
84FE
0000
ENDCHAR

STARTCHAR a66e
ENCODING 42606
SWIDTH 481 0
DWIDTH 16 0
BBX 16 15 0 -2
BITMAP
11FC
1004
1008
FC10
2420
2424
27FE
4420
2820
1020
2820
4420
84A0
0040
0000
ENDCHAR

STARTCHAR a66f
ENCODING 42607
SWIDTH 481 0
DWIDTH 16 0
BBX 16 15 0 -2
BITMAP
1020
1020
1020
FD24
253E
25E4
2724
4524
2928
1120
1120
2922
4502
84FE
0000
ENDCHAR

STARTCHAR a670
ENCODING 42608
SWIDTH 481 0
DWIDTH 16 0
BBX 16 15 0 -2
BITMAP
1000
1000
1004
FEFE
2284
2284
2284
4284
2484
1484
0884
14FC
2284
4000
0000
ENDCHAR

STARTCHAR a671
ENCODING 42609
SWIDTH 481 0
DWIDTH 16 0
BBX 16 15 0 -2
BITMAP
1080
1084
10FE
FD04
2604
2484
2444
4444
2804
1004
2804
4444
8428
0010
0000
ENDCHAR

STARTCHAR a672
ENCODING 42610
SWIDTH 481 0
DWIDTH 16 0
BBX 16 15 0 -2
BITMAP
0200
0100
3FFC
2004
4048
1FE0
0080
0104
FFFE
0100
0100
0100
0500
0200
0000
ENDCHAR

STARTCHAR a673
ENCODING 42611
SWIDTH 481 0
DWIDTH 16 0
BBX 16 15 0 -2
BITMAP
0200
0204
FFFE
0400
0BF8
1010
1020
3044
5FFE
9040
1040
1040
1140
1080
0000
ENDCHAR

STARTCHAR a674
ENCODING 42612
SWIDTH 481 0
DWIDTH 16 0
BBX 16 15 0 -2
BITMAP
0200
0100
7FFE
4002
8024
1FF0
0100
0108
7FFC
0100
0100
0100
0500
0200
0000
ENDCHAR

STARTCHAR a675
ENCODING 42613
SWIDTH 481 0
DWIDTH 16 0
BBX 16 15 0 -2
BITMAP
0200
0100
7FFE
4002
8024
0024
7FFE
0020
0820
0420
0420
0020
00A0
0040
0000
ENDCHAR

STARTCHAR a676
ENCODING 42614
SWIDTH 481 0
DWIDTH 16 0
BBX 16 15 0 -2
BITMAP
0200
7FFE
4004
8068
0180
3E00
0200
0208
03FC
7E00
0200
0202
0202
01FE
0000
ENDCHAR

STARTCHAR a677
ENCODING 42615
SWIDTH 481 0
DWIDTH 16 0
BBX 16 15 0 -2
BITMAP
0100
3FFC
2004
4208
0200
FFFE
0420
0820
1840
0640
0180
0240
0C30
3010
0000
ENDCHAR

STARTCHAR a678
ENCODING 42616
SWIDTH 481 0
DWIDTH 16 0
BBX 16 15 0 -2
BITMAP
0100
0108
7FFC
0100
0110
3FF8
0020
7FFC
0820
0420
0420
0020
00A0
0040
0000
ENDCHAR

STARTCHAR a679
ENCODING 42617
SWIDTH 481 0
DWIDTH 16 0
BBX 16 15 0 -2
BITMAP
0100
0920
0D10
1118
2108
0000
0104
FFFE
0100
0280
0440
0830
300E
C004
0000
ENDCHAR

STARTCHAR a67a
ENCODING 42618
SWIDTH 481 0
DWIDTH 16 0
BBX 16 15 0 -2
BITMAP
2080
2084
20FE
A900
AA00
A9F8
A808
A810
A820
A840
A882
F902
8902
00FE
0000
ENDCHAR

STARTCHAR a67b
ENCODING 42619
SWIDTH 481 0
DWIDTH 16 0
BBX 16 15 0 -2
BITMAP
1004
1084
1084
1084
1084
F7BC
1084
1084
1084
1084
2084
2084
4004
0004
0000
ENDCHAR

STARTCHAR a67c
ENCODING 42620
SWIDTH 481 0
DWIDTH 16 0
BBX 16 15 0 -2
BITMAP
2008
20FC
F888
A888
A8C8
A8A8
A8A8
A888
B888
A888
210A
210A
220A
2406
0000
ENDCHAR

STARTCHAR a67d
ENCODING 42621
SWIDTH 481 0
DWIDTH 16 0
BBX 16 15 0 -2
BITMAP
1010
0C30
0440
3FFC
0420
0420
0424
FFFE
0420
0420
0820
0820
1020
2020
0000
ENDCHAR

STARTCHAR a67e
ENCODING 42622
SWIDTH 481 0
DWIDTH 16 0
BBX 16 15 0 -2
BITMAP
0800
0808
0FFC
1100
2110
5FF8
1100
1100
1104
FFFE
0100
0100
0100
0100
0000
ENDCHAR

STARTCHAR a6a1
ENCODING 42657
SWIDTH 481 0
DWIDTH 16 0
BBX 16 15 0 -2
BITMAP
0080
00A0
0090
0084
FFFE
0080
3E80
0880
0840
0820
0F22
7012
200A
0004
0000
ENDCHAR

STARTCHAR a6a2
ENCODING 42658
SWIDTH 481 0
DWIDTH 16 0
BBX 16 15 0 -2
BITMAP
7C20
0920
0920
0924
793E
41E4
4724
4124
7928
0920
0922
0902
50FE
2000
0000
ENDCHAR

STARTCHAR a6a3
ENCODING 42659
SWIDTH 481 0
DWIDTH 16 0
BBX 16 15 0 -2
BITMAP
1000
1100
10C0
1044
5FFE
5A00
5200
9200
1200
1200
1200
1200
11FE
1000
0000
ENDCHAR

STARTCHAR a6a4
ENCODING 42660
SWIDTH 481 0
DWIDTH 16 0
BBX 16 15 0 -2
BITMAP
1010
1010
1014
5BFE
5410
5010
9110
1090
1090
1010
1010
1010
1050
1020
0000
ENDCHAR

STARTCHAR a6a5
ENCODING 42661
SWIDTH 481 0
DWIDTH 16 0
BBX 16 15 0 -2
BITMAP
0080
00A0
0090
FFFC
0080
1080
1088
7E90
1090
1060
20A0
2312
4C0A
0006
0000
ENDCHAR

STARTCHAR a6a6
ENCODING 42662
SWIDTH 481 0
DWIDTH 16 0
BBX 16 15 0 -2
BITMAP
0080
0090
0088
3FFE
2080
2084
2444
3E48
2048
2030
4060
4092
830A
0006
0000
ENDCHAR

STARTCHAR a6a7
ENCODING 42663
SWIDTH 481 0
DWIDTH 16 0
BBX 16 15 0 -2
BITMAP
0080
00A0
0090
3FFC
2080
2088
2848
2650
2250
2060
2090
2312
4C0A
8006
0000
ENDCHAR

STARTCHAR a6a8
ENCODING 42664
SWIDTH 481 0
DWIDTH 16 0
BBX 16 15 0 -2
BITMAP
0080
00A0
0090
3FFC
2080
2084
3E44
2248
2230
2A20
2462
4092
810A
0006
0000
ENDCHAR

STARTCHAR a6a9
ENCODING 42665
SWIDTH 481 0
DWIDTH 16 0
BBX 16 15 0 -2
BITMAP
0800
0800
0804
FEFE
0884
0A84
0C84
1884
E884
0884
08FC
0884
2800
1000
0000
ENDCHAR

STARTCHAR a6aa
ENCODING 42666
SWIDTH 481 0
DWIDTH 16 0
BBX 16 15 0 -2
BITMAP
1000
1008
13FC
FC40
1040
1440
1840
3040
D040
1040
1044
1FFE
5000
2000
0000
ENDCHAR

STARTCHAR a6ab
ENCODING 42667
SWIDTH 481 0
DWIDTH 16 0
BBX 16 15 0 -2
BITMAP
1010
1038
17C0
1040
FC40
1440
1844
37FE
D040
1040
1040
1042
5042
203E
0000
ENDCHAR

STARTCHAR a6ac
ENCODING 42668
SWIDTH 481 0
DWIDTH 16 0
BBX 16 15 0 -2
BITMAP
0880
0880
8884
88FE
8908
8988
8A88
8850
F850
8820
0850
0888
090E
0E04
0000
ENDCHAR

STARTCHAR a6ad
ENCODING 42669
SWIDTH 481 0
DWIDTH 16 0
BBX 16 15 0 -2
BITMAP
0010
1FF8
1010
1FF0
1010
1FF0
1110
0104
FFFE
0100
0100
0100
0100
0100
0000
ENDCHAR

STARTCHAR a6ae
ENCODING 42670
SWIDTH 481 0
DWIDTH 16 0
BBX 16 15 0 -2
BITMAP
2000
2000
3FF0
2000
2000
1FFC
0000
1FF0
1010
1010
1FF0
1010
1010
1FF0
0000
ENDCHAR

STARTCHAR a6af
ENCODING 42671
SWIDTH 481 0
DWIDTH 16 0
BBX 16 15 0 -2
BITMAP
0800
0804
0FFE
1004
1044
2FE4
8844
0FC4
0844
0844
0FC4
0004
0028
0010
0000
ENDCHAR

STARTCHAR a6b0
ENCODING 42672
SWIDTH 481 0
DWIDTH 16 0
BBX 16 15 0 -2
BITMAP
1000
1008
10FC
FE88
1288
1288
12F8
1288
1288
1288
22FA
2202
4202
81FE
0000
ENDCHAR

STARTCHAR a6b1
ENCODING 42673
SWIDTH 481 0
DWIDTH 16 0
BBX 16 15 0 -2
BITMAP
0440
0440
0444
7FFE
4444
4444
4444
7FFC
4444
4444
4444
4444
7FFC
4004
0000
ENDCHAR

STARTCHAR a6b2
ENCODING 42674
SWIDTH 481 0
DWIDTH 16 0
BBX 16 15 0 -2
BITMAP
0200
0210
3FF8
2210
3FF0
2210
3FF0
2210
0120
01C0
0682
1842
E032
000E
0000
ENDCHAR

STARTCHAR a6b3
ENCODING 42675
SWIDTH 481 0
DWIDTH 16 0
BBX 16 15 0 -2
BITMAP
0200
0204
FFFE
0400
0410
0FF8
1810
2FF0
4810
0FF0
0810
0810
0850
1020
0000
ENDCHAR

STARTCHAR a6b4
ENCODING 42676
SWIDTH 481 0
DWIDTH 16 0
BBX 16 15 0 -2
BITMAP
1000
1004
17FE
1080
FC80
3108
39FC
5408
5008
9008
1008
1088
1050
1020
0000
ENDCHAR

STARTCHAR a6b5
ENCODING 42677
SWIDTH 481 0
DWIDTH 16 0
BBX 16 15 0 -2
BITMAP
1020
1020
1020
FE20
1030
302C
3826
5422
5220
9020
1020
1020
1020
1020
0000
ENDCHAR

STARTCHAR a6b6
ENCODING 42678
SWIDTH 481 0
DWIDTH 16 0
BBX 16 15 0 -2
BITMAP
1100
1110
1FF8
2100
0104
FFFE
0300
0580
0940
1130
210E
C104
0100
0100
0000
ENDCHAR

STARTCHAR a6b7
ENCODING 42679
SWIDTH 481 0
DWIDTH 16 0
BBX 16 15 0 -2
BITMAP
1FE0
0820
1020
2020
413E
0100
0104
FFFE
0540
0920
1110
610C
0100
0100
0000
ENDCHAR

STARTCHAR a6b8
ENCODING 42680
SWIDTH 481 0
DWIDTH 16 0
BBX 16 15 0 -2
BITMAP
0080
0080
0104
F9FE
0204
0248
0440
0040
F8A0
00A0
0110
0108
020E
0404
0000
ENDCHAR

STARTCHAR a6b9
ENCODING 42681
SWIDTH 481 0
DWIDTH 16 0
BBX 16 15 0 -2
BITMAP
0440
0440
2440
2440
2440
277E
2440
2440
2440
2440
2440
2742
F842
403E
0000
ENDCHAR

STARTCHAR a6ba
ENCODING 42682
SWIDTH 481 0
DWIDTH 16 0
BBX 16 15 0 -2
BITMAP
0004
FFFE
0840
1040
1F40
217E
2140
6240
9240
0C40
0842
1042
203E
4000
0000
ENDCHAR

STARTCHAR a6bb
ENCODING 42683
SWIDTH 481 0
DWIDTH 16 0
BBX 16 15 0 -2
BITMAP
1000
1FFC
1000
2FF8
4000
9FF8
0008
7F88
0908
0BE8
102A
102A
214A
4084
0000
ENDCHAR

STARTCHAR a6bc
ENCODING 42684
SWIDTH 481 0
DWIDTH 16 0
BBX 16 15 0 -2
BITMAP
8080
6080
2080
0080
8FFE
6108
2208
0410
1210
2120
C0C0
4120
4218
4C08
0000
ENDCHAR

STARTCHAR a6bd
ENCODING 42685
SWIDTH 481 0
DWIDTH 16 0
BBX 16 15 0 -2
BITMAP
8008
67FC
2040
0040
8040
6040
2844
0FFE
1040
E040
2040
2040
2040
2040
0000
ENDCHAR

STARTCHAR a6be
ENCODING 42686
SWIDTH 481 0
DWIDTH 16 0
BBX 16 15 0 -2
BITMAP
8008
67FC
2040
0040
8044
6FFE
2040
0840
1040
E040
2040
2240
2140
2080
0000
ENDCHAR

STARTCHAR a6bf
ENCODING 42687
SWIDTH 481 0
DWIDTH 16 0
BBX 16 15 0 -2
BITMAP
4000
3008
17FC
8040
6040
2840
0840
1040
E040
2040
2044
2FFE
2000
2000
0000
ENDCHAR

STARTCHAR a6c0
ENCODING 42688
SWIDTH 481 0
DWIDTH 16 0
BBX 16 15 0 -2
BITMAP
4040
3240
1248
827C
63C8
2E48
1250
2240
E240
2240
2242
2202
21FE
2000
0000
ENDCHAR

STARTCHAR a6c1
ENCODING 42689
SWIDTH 481 0
DWIDTH 16 0
BBX 16 15 0 -2
BITMAP
1880
0884
00FE
8104
6104
2204
0B08
14C8
2050
E020
2040
2080
2100
2200
0000
ENDCHAR

STARTCHAR a6c2
ENCODING 42690
SWIDTH 481 0
DWIDTH 16 0
BBX 16 15 0 -2
BITMAP
0040
4040
3040
1040
8444
6444
2444
1444
2444
E444
2444
2444
27FC
2404
0000
ENDCHAR

STARTCHAR a6c3
ENCODING 42691
SWIDTH 481 0
DWIDTH 16 0
BBX 16 15 0 -2
BITMAP
4000
33F8
1000
8004
6FFE
2100
0900
1108
23FC
E008
2008
2008
2010
20E0
0000
ENDCHAR

STARTCHAR a6c4
ENCODING 42692
SWIDTH 481 0
DWIDTH 16 0
BBX 16 15 0 -2
BITMAP
47F8
3110
1110
8110
6110
2110
0BF0
1110
2110
E112
2112
2112
210A
2106
0000
ENDCHAR

STARTCHAR a6c5
ENCODING 42693
SWIDTH 481 0
DWIDTH 16 0
BBX 16 15 0 -2
BITMAP
8100
6100
2110
0FF8
0110
8110
6190
21D0
0150
1110
2112
C212
4412
581E
0000
ENDCHAR

STARTCHAR a6c6
ENCODING 42694
SWIDTH 481 0
DWIDTH 16 0
BBX 16 15 0 -2
BITMAP
43F0
3210
1210
0210
8210
6310
2290
0250
0A10
1210
2212
C212
4412
581E
0000
ENDCHAR

STARTCHAR a6c7
ENCODING 42695
SWIDTH 481 0
DWIDTH 16 0
BBX 16 15 0 -2
BITMAP
0400
0404
FFFE
0480
0888
0C98
12A0
1080
2140
4140
8220
0410
080E
3004
0000
ENDCHAR

STARTCHAR a6c8
ENCODING 42696
SWIDTH 481 0
DWIDTH 16 0
BBX 16 15 0 -2
BITMAP
0200
0420
0810
3FF8
0108
1110
1FF8
2100
4100
0104
FFFE
0100
0100
0100
0000
ENDCHAR

STARTCHAR a6c9
ENCODING 42697
SWIDTH 481 0
DWIDTH 16 0
BBX 16 15 0 -2
BITMAP
0880
2880
2884
3E8C
4890
48A0
88C0
0E80
1880
6880
0882
0882
087E
0800
0000
ENDCHAR

STARTCHAR a6ca
ENCODING 42698
SWIDTH 481 0
DWIDTH 16 0
BBX 16 15 0 -2
BITMAP
0004
FFFE
0100
0200
0408
3FFC
2008
2008
3FF8
2008
2008
2008
3FF8
2008
0000
ENDCHAR

STARTCHAR a6cb
ENCODING 42699
SWIDTH 481 0
DWIDTH 16 0
BBX 16 15 0 -2
BITMAP
1040
1040
1244
1F7E
2890
4910
8A10
0810
0810
0810
0810
0810
0850
0820
0000
ENDCHAR

STARTCHAR a6cc
ENCODING 42700
SWIDTH 481 0
DWIDTH 16 0
BBX 16 15 0 -2
BITMAP
2108
1918
0D20
0540
0104
FFFE
0100
0540
0920
1110
210E
C104
0100
0100
0000
ENDCHAR

STARTCHAR a6cd
ENCODING 42701
SWIDTH 481 0
DWIDTH 16 0
BBX 16 15 0 -2
BITMAP
0300
0410
0830
1040
3F80
0100
0220
0410
3FF8
0108
1920
2118
4108
0100
0000
ENDCHAR

STARTCHAR a6ce
ENCODING 42702
SWIDTH 481 0
DWIDTH 16 0
BBX 16 15 0 -2
BITMAP
0800
0810
1FF8
1100
2100
4100
0104
FFFE
0100
2108
2108
2108
3FF8
2008
0000
ENDCHAR

STARTCHAR a6cf
ENCODING 42703
SWIDTH 481 0
DWIDTH 16 0
BBX 16 15 0 -2
BITMAP
0820
0440
0288
7FFC
0100
0110
3FF8
0100
0100
0104
FFFE
0100
0100
0100
0000
ENDCHAR

STARTCHAR a6d0
ENCODING 42704
SWIDTH 481 0
DWIDTH 16 0
BBX 16 15 0 -2
BITMAP
0004
7EFE
0204
2244
1224
1224
0204
0A14
1224
62C4
2244
0204
1428
0810
0000
ENDCHAR

STARTCHAR a6d1
ENCODING 42705
SWIDTH 481 0
DWIDTH 16 0
BBX 16 15 0 -2
BITMAP
0200
0208
3FD8
0220
0244
FFFE
0100
0600
0C00
17F8
2400
4400
8400
03FC
0000
ENDCHAR

STARTCHAR a6d2
ENCODING 42706
SWIDTH 481 0
DWIDTH 16 0
BBX 16 15 0 -2
BITMAP
0210
3FE0
0240
0284
FFFE
0400
0FF8
1200
27F0
4010
8010
0220
0120
00C0
0000
ENDCHAR

STARTCHAR a6d3
ENCODING 42707
SWIDTH 481 0
DWIDTH 16 0
BBX 16 15 0 -2
BITMAP
0004
FFFE
0200
0404
7FFE
4444
4444
4444
4444
4444
4444
4444
4454
4008
0000
ENDCHAR

STARTCHAR a6d4
ENCODING 42708
SWIDTH 481 0
DWIDTH 16 0
BBX 16 15 0 -2
BITMAP
0110
01E0
7F00
0100
3FF8
0100
0104
FFFE
0540
0920
1110
210E
4104
0100
0000
ENDCHAR

STARTCHAR a6d5
ENCODING 42709
SWIDTH 481 0
DWIDTH 16 0
BBX 16 15 0 -2
BITMAP
7FFC
0820
0820
0FE0
0820
0820
0FE0
0820
0824
FFFE
0020
0020
0020
0020
0000
ENDCHAR

STARTCHAR a6d6
ENCODING 42710
SWIDTH 481 0
DWIDTH 16 0
BBX 16 15 0 -2
BITMAP
0100
3FFC
0108
FFFE
0108
3FF8
0100
7FFC
0100
0104
FFFE
0100
0100
0100
0000
ENDCHAR

STARTCHAR a6d7
ENCODING 42711
SWIDTH 481 0
DWIDTH 16 0
BBX 16 15 0 -2
BITMAP
0100
0104
7FFE
4104
4104
4284
4464
4924
4104
4284
4464
4824
4014
4008
0000
ENDCHAR

STARTCHAR a6d8
ENCODING 42712
SWIDTH 481 0
DWIDTH 16 0
BBX 16 15 0 -2
BITMAP
0220
3F20
2220
2224
3EFE
2224
2224
3E24
2224
2244
2244
2284
4B28
8410
0000
ENDCHAR

STARTCHAR a6d9
ENCODING 42713
SWIDTH 481 0
DWIDTH 16 0
BBX 16 15 0 -2
BITMAP
0400
3E08
24FC
2488
3C88
2488
2488
3C88
2488
2488
248A
248A
4D0A
8606
0000
ENDCHAR

STARTCHAR a6da
ENCODING 42714
SWIDTH 481 0
DWIDTH 16 0
BBX 16 15 0 -2
BITMAP
0008
FFFC
4100
4100
4108
7FFC
4008
4008
7FF8
4108
4100
4100
4108
7FFC
0000
ENDCHAR

STARTCHAR a6db
ENCODING 42715
SWIDTH 481 0
DWIDTH 16 0
BBX 16 15 0 -2
BITMAP
0200
0400
0808
3FFC
2008
2008
3FF8
2008
2008
3FF8
2008
2008
3FF8
2008
0000
ENDCHAR

STARTCHAR a6dc
ENCODING 42716
SWIDTH 481 0
DWIDTH 16 0
BBX 16 15 0 -2
BITMAP
7FFC
0200
0400
0820
1010
3FF8
0108
0100
0110
3FF8
0100
0100
0104
FFFE
0000
ENDCHAR

STARTCHAR a6dd
ENCODING 42717
SWIDTH 481 0
DWIDTH 16 0
BBX 16 15 0 -2
BITMAP
0200
0700
5804
60FE
4004
4004
4404
7EFC
4004
4004
4004
4004
7FFC
4004
0000
ENDCHAR

STARTCHAR a6de
ENCODING 42718
SWIDTH 481 0
DWIDTH 16 0
BBX 16 15 0 -2
BITMAP
0000
1FF0
0100
0104
FFFE
0100
0108
3FFC
2008
2008
2008
2008
3FF8
2008
0000
ENDCHAR

STARTCHAR a6df
ENCODING 42719
SWIDTH 481 0
DWIDTH 16 0
BBX 16 15 0 -2
BITMAP
0010
1010
1010
1EFE
2290
2290
2290
5490
8C90
08FE
1010
2010
C010
0010
0000
ENDCHAR

STARTCHAR a6e0
ENCODING 42720
SWIDTH 481 0
DWIDTH 16 0
BBX 16 15 0 -2
BITMAP
0200
0410
1FF8
1010
1210
1110
FFFE
1010
1210
1110
1110
1010
4050
0020
0000
ENDCHAR

STARTCHAR a6e1
ENCODING 42721
SWIDTH 481 0
DWIDTH 16 0
BBX 16 15 0 -2
BITMAP
0020
3FF0
2020
3FE0
2020
3FE0
2400
2420
2240
2180
2040
2822
301C
2004
0000
ENDCHAR

STARTCHAR a6e2
ENCODING 42722
SWIDTH 481 0
DWIDTH 16 0
BBX 16 15 0 -2
BITMAP
0800
0FF0
1020
2048
5FFC
9088
1088
1088
1FF8
1008
1000
1002
1002
0FFE
0000
ENDCHAR

STARTCHAR a6e3
ENCODING 42723
SWIDTH 481 0
DWIDTH 16 0
BBX 16 15 0 -2
BITMAP
0820
0824
FEFE
0820
0000
0820
0440
0440
0280
0100
0280
0C70
300E
C004
0000
ENDCHAR

STARTCHAR a6e4
ENCODING 42724
SWIDTH 481 0
DWIDTH 16 0
BBX 16 15 0 -2
BITMAP
0100
0100
0108
3FFC
2108
2108
2108
3FF8
2108
0110
0108
01FC
7E04
2004
0000
ENDCHAR

STARTCHAR a6e5
ENCODING 42725
SWIDTH 481 0
DWIDTH 16 0
BBX 16 15 0 -2
BITMAP
0100
0200
0400
0808
3FFC
2448
2448
2448
2448
2448
2448
2448
FFFE
0000
0000
ENDCHAR

STARTCHAR a6e6
ENCODING 42726
SWIDTH 481 0
DWIDTH 16 0
BBX 16 15 0 -2
BITMAP
1008
13FC
2000
4800
0804
17FE
3010
5010
9010
1010
1010
1010
1050
1020
0000
ENDCHAR

STARTCHAR a6e7
ENCODING 42727
SWIDTH 481 0
DWIDTH 16 0
BBX 16 15 0 -2
BITMAP
0200
0104
FFFE
0200
0510
0920
18C0
2880
4840
8820
0910
0A0E
0C04
0800
0000
ENDCHAR

STARTCHAR a6e8
ENCODING 42728
SWIDTH 481 0
DWIDTH 16 0
BBX 16 15 0 -2
BITMAP
0004
FFFE
0440
0440
0444
7FFE
4444
4444
4444
483C
5004
4004
7FFC
4004
0000
ENDCHAR

STARTCHAR a6e9
ENCODING 42729
SWIDTH 481 0
DWIDTH 16 0
BBX 16 15 0 -2
BITMAP
0008
FC1C
85E0
8820
B020
9024
8BFE
8820
8820
C820
B020
8020
8020
8020
0000
ENDCHAR

STARTCHAR a6ea
ENCODING 42730
SWIDTH 481 0
DWIDTH 16 0
BBX 16 15 0 -2
BITMAP
0100
0108
3FFC
2108
2108
3FF8
0100
7FFE
4104
4104
7FFC
0100
0100
0100
0000
ENDCHAR

STARTCHAR a6eb
ENCODING 42731
SWIDTH 481 0
DWIDTH 16 0
BBX 16 15 0 -2
BITMAP
0200
0108
FFFC
0000
1FF0
1010
1FF0
0000
7FF8
0060
0080
0880
0480
0300
0000
ENDCHAR

STARTCHAR a6ec
ENCODING 42732
SWIDTH 481 0
DWIDTH 16 0
BBX 16 15 0 -2
BITMAP
0900
08C0
1040
17FC
3000
5208
9208
1210
1110
1120
1044
1FFE
1000
1000
0000
ENDCHAR

STARTCHAR a6ed
ENCODING 42733
SWIDTH 481 0
DWIDTH 16 0
BBX 16 15 0 -2
BITMAP
0880
0840
0844
17FE
3040
5040
9048
17FC
1040
1040
1040
1044
1FFE
1000
0000
ENDCHAR

STARTCHAR a6ee
ENCODING 42734
SWIDTH 481 0
DWIDTH 16 0
BBX 16 15 0 -2
BITMAP
1080
1040
27FE
C802
2802
27FC
2040
2040
2040
2040
2040
2240
2140
2080
0000
ENDCHAR

STARTCHAR a6ef
ENCODING 42735
SWIDTH 481 0
DWIDTH 16 0
BBX 16 15 0 -2
BITMAP
0840
0844
17FE
1404
3908
5100
9108
1118
1120
1140
1182
1102
1102
10FE
0000
ENDCHAR

STARTCHAR a6f0
ENCODING 42736
SWIDTH 481 0
DWIDTH 16 0
BBX 16 15 0 -2
BITMAP
0BF8
0800
1008
17FC
3080
5084
9FFE
1110
1210
11A0
1040
10A0
1118
1604
0000
ENDCHAR

STARTCHAR a6f1
ENCODING 42737
SWIDTH 481 0
DWIDTH 16 0
BBX 16 15 0 -2
BITMAP
0840
0A44
0948
1040
27FC
3040
5040
9044
1FFE
1040
1040
1040
1040
1040
0000
ENDCHAR

STARTCHAR a6f2
ENCODING 42738
SWIDTH 481 0
DWIDTH 16 0
BBX 16 15 0 -2
BITMAP
1090
1090
27FE
2092
6092
A7FE
2492
2490
27FE
2092
2092
2114
2210
2410
0000
ENDCHAR

STARTCHAR a6f3
ENCODING 42739
SWIDTH 481 0
DWIDTH 16 0
BBX 16 15 0 -2
BITMAP
0800
0804
0FFE
1008
1008
33C8
5248
9248
1248
13C8
1248
1008
1028
1010
0000
ENDCHAR

STARTCHAR a6f4
ENCODING 42740
SWIDTH 481 0
DWIDTH 16 0
BBX 16 15 0 -2
BITMAP
0840
0840
1044
1FFE
3040
5040
9048
13FC
1208
1208
1208
1208
13F8
1208
0000
ENDCHAR

STARTCHAR a6f5
ENCODING 42741
SWIDTH 481 0
DWIDTH 16 0
BBX 16 15 0 -2
BITMAP
0880
0884
17FE
1080
3080
5100
9108
11FC
1220
1420
1820
1024
17FE
1000
0000
ENDCHAR

STARTCHAR a6f6
ENCODING 42742
SWIDTH 481 0
DWIDTH 16 0
BBX 16 15 0 -2
BITMAP
0880
0880
1084
1FFE
3100
5100
9208
13FC
1508
1908
1108
1108
11F8
1108
0000
ENDCHAR

STARTCHAR a6f7
ENCODING 42743
SWIDTH 481 0
DWIDTH 16 0
BBX 16 15 0 -2
BITMAP
1400
1404
243E
3FA4
64A4
A4A4
24A4
24A4
24A4
24A4
28A4
28BC
32A4
2100
0000
ENDCHAR

STARTCHAR a6f8
ENCODING 42744
SWIDTH 481 0
DWIDTH 16 0
BBX 16 15 0 -2
BITMAP
0804
0BFE
0804
1024
37F4
5004
93E4
1224
1224
1224
13E4
1204
1014
1008
0000
ENDCHAR

STARTCHAR a6f9
ENCODING 42745
SWIDTH 481 0
DWIDTH 16 0
BBX 16 15 0 -2
BITMAP
0840
0840
0844
17FE
3444
5444
97FC
1444
1444
17FC
1444
1040
1040
1040
0000
ENDCHAR

STARTCHAR a6fa
ENCODING 42746
SWIDTH 481 0
DWIDTH 16 0
BBX 16 15 0 -2
BITMAP
1000
1000
1004
27FE
2444
6444
A444
27FC
2444
2444
2444
27FC
2404
2000
0000
ENDCHAR

STARTCHAR a6fb
ENCODING 42747
SWIDTH 481 0
DWIDTH 16 0
BBX 16 15 0 -2
BITMAP
1040
1040
2040
407C
A040
2040
2044
23FE
2204
2204
2204
2204
23FC
2204
0000
ENDCHAR

STARTCHAR a6fc
ENCODING 42748
SWIDTH 481 0
DWIDTH 16 0
BBX 16 15 0 -2
BITMAP
1000
1008
1008
2408
2408
6508
A488
2448
2450
2520
2628
2446
2882
2100
0000
ENDCHAR

STARTCHAR a6fd
ENCODING 42749
SWIDTH 481 0
DWIDTH 16 0
BBX 16 15 0 -2
BITMAP
1000
1000
1008
27FC
6408
A408
27F8
2408
2408
27F8
2000
2004
3FFE
2000
0000
ENDCHAR

STARTCHAR a6fe
ENCODING 42750
SWIDTH 481 0
DWIDTH 16 0
BBX 16 15 0 -2
BITMAP
1004
17FE
1444
2444
67FC
A444
2444
2444
27FC
2444
2444
2444
2854
3008
0000
ENDCHAR

STARTCHAR a740
ENCODING 42816
SWIDTH 481 0
DWIDTH 16 0
BBX 16 15 0 -2
BITMAP
0900
0904
11FE
1280
3280
5488
98FC
1080
1080
1084
10FE
1080
1080
1080
0000
ENDCHAR

STARTCHAR a741
ENCODING 42817
SWIDTH 481 0
DWIDTH 16 0
BBX 16 15 0 -2
BITMAP
1100
1104
23FE
2204
6408
A840
2040
2150
2148
224C
2444
2040
2140
2080
0000
ENDCHAR

STARTCHAR a742
ENCODING 42818
SWIDTH 481 0
DWIDTH 16 0
BBX 16 15 0 -2
BITMAP
0840
0884
11FE
1104
3104
5104
9104
11FC
1104
1104
1104
1104
11FC
1104
0000
ENDCHAR

STARTCHAR a743
ENCODING 42819
SWIDTH 481 0
DWIDTH 16 0
BBX 16 15 0 -2
BITMAP
1008
103C
13E0
2220
6220
A224
23FE
2220
2220
2210
2292
270A
220A
21E6
0000
ENDCHAR

STARTCHAR a744
ENCODING 42820
SWIDTH 481 0
DWIDTH 16 0
BBX 16 15 0 -2
BITMAP
0840
08A0
10A0
1110
3208
55EE
9804
1000
13F8
1008
1010
10A0
1040
1020
0000
ENDCHAR

STARTCHAR a745
ENCODING 42821
SWIDTH 481 0
DWIDTH 16 0
BBX 16 15 0 -2
BITMAP
0100
0280
0440
0820
1010
2FEE
C104
0110
3FF8
0920
1918
210C
4504
0200
0000
ENDCHAR

STARTCHAR a746
ENCODING 42822
SWIDTH 481 0
DWIDTH 16 0
BBX 16 15 0 -2
BITMAP
0900
0904
13FE
1204
3424
5BF4
9224
1224
1224
13E4
1224
1004
1028
1010
0000
ENDCHAR

STARTCHAR a747
ENCODING 42823
SWIDTH 481 0
DWIDTH 16 0
BBX 16 15 0 -2
BITMAP
2080
2080
2FFE
4080
8140
4240
47FC
4C44
5444
4444
4454
4448
4040
4040
0000
ENDCHAR

STARTCHAR a748
ENCODING 42824
SWIDTH 481 0
DWIDTH 16 0
BBX 16 15 0 -2
BITMAP
0840
0940
1148
11FC
3240
5440
9044
1FFE
1040
10A0
1110
1110
120E
1404
0000
ENDCHAR

STARTCHAR a749
ENCODING 42825
SWIDTH 481 0
DWIDTH 16 0
BBX 16 15 0 -2
BITMAP
0040
1020
3018
600C
BFF4
2010
2010
3FF0
2450
0440
0842
0842
1042
E03E
0000
ENDCHAR

STARTCHAR a74a
ENCODING 42826
SWIDTH 481 0
DWIDTH 16 0
BBX 16 15 0 -2
BITMAP
0100
0104
FFFE
0100
0100
3FF8
2008
2008
3FF8
0440
0440
0842
1042
E03E
0000
ENDCHAR

STARTCHAR a74b
ENCODING 42827
SWIDTH 481 0
DWIDTH 16 0
BBX 16 15 0 -2
BITMAP
0800
1FE0
1040
2088
7FFC
A108
2108
3FF8
2188
0280
0480
0882
3082
C07E
0000
ENDCHAR

STARTCHAR a74c
ENCODING 42828
SWIDTH 481 0
DWIDTH 16 0
BBX 16 15 0 -2
BITMAP
0020
00F0
0F00
0800
0800
0FFC
0840
0840
0844
FFFE
0440
0C30
1018
2008
0000
ENDCHAR

STARTCHAR a74d
ENCODING 42829
SWIDTH 481 0
DWIDTH 16 0
BBX 16 15 0 -2
BITMAP
4040
3080
1080
0110
0208
0FFC
1004
2000
E7F8
2408
2408
2408
27F8
2408
0000
ENDCHAR

STARTCHAR a74e
ENCODING 42830
SWIDTH 481 0
DWIDTH 16 0
BBX 16 15 0 -2
BITMAP
0040
40A0
30A0
1110
0208
05EE
0804
0000
13F8
E008
2010
20A0
2040
0020
0000
ENDCHAR

STARTCHAR a74f
ENCODING 42831
SWIDTH 481 0
DWIDTH 16 0
BBX 16 15 0 -2
BITMAP
0104
3F84
2124
2124
3F24
2824
0924
0FA4
0924
0924
1124
2104
4A14
0408
0000
ENDCHAR

STARTCHAR a750
ENCODING 42832
SWIDTH 481 0
DWIDTH 16 0
BBX 16 15 0 -2
BITMAP
0404
4444
34C4
1524
0424
7FA4
0424
0424
FFA4
0424
0424
0804
1014
2008
0000
ENDCHAR

STARTCHAR a751
ENCODING 42833
SWIDTH 481 0
DWIDTH 16 0
BBX 16 15 0 -2
BITMAP
0104
0784
7C04
0424
0424
FFA4
0C24
0E24
15A4
14A4
2424
4404
0414
0408
0000
ENDCHAR

STARTCHAR a752
ENCODING 42834
SWIDTH 481 0
DWIDTH 16 0
BBX 16 15 0 -2
BITMAP
7FC4
4A44
4A44
4A54
4A54
4A54
FFF4
4A54
4A54
4A54
4A44
4A44
4A54
4088
0000
ENDCHAR

STARTCHAR a753
ENCODING 42835
SWIDTH 481 0
DWIDTH 16 0
BBX 16 15 0 -2
BITMAP
2002
2082
3FD2
4092
BC92
2492
2492
3C92
2292
2112
2042
2042
204A
1FC4
0000
ENDCHAR

STARTCHAR a754
ENCODING 42836
SWIDTH 481 0
DWIDTH 16 0
BBX 16 15 0 -2
BITMAP
0820
0820
7F20
0824
08FE
0824
FFA4
1024
1444
2244
7E84
2284
0128
0210
0000
ENDCHAR

STARTCHAR a755
ENCODING 42837
SWIDTH 481 0
DWIDTH 16 0
BBX 16 15 0 -2
BITMAP
0220
3F20
2224
23FE
3E24
2224
2224
3E24
2244
2244
2F44
F084
4128
0210
0000
ENDCHAR

STARTCHAR a756
ENCODING 42838
SWIDTH 481 0
DWIDTH 16 0
BBX 16 15 0 -2
BITMAP
1000
FEFC
2284
2448
6430
1820
1450
628E
0204
3FF8
0208
0408
1850
6020
0000
ENDCHAR

STARTCHAR a757
ENCODING 42839
SWIDTH 481 0
DWIDTH 16 0
BBX 16 15 0 -2
BITMAP
2020
2220
7F20
8224
42FE
7A24
4A24
4A24
4A24
7A44
4244
0284
14A8
0910
0000
ENDCHAR

STARTCHAR a758
ENCODING 42840
SWIDTH 481 0
DWIDTH 16 0
BBX 16 15 0 -2
BITMAP
0008
FFFC
8000
9FF0
9110
9110
9FF0
9110
9110
9FF0
8100
8100
8104
FFFE
0000
ENDCHAR

STARTCHAR a759
ENCODING 42841
SWIDTH 481 0
DWIDTH 16 0
BBX 16 15 0 -2
BITMAP
0200
FF04
82FE
FE84
8284
FE84
8084
84A4
8494
8A88
B280
C080
0080
0080
0000
ENDCHAR

STARTCHAR a75a
ENCODING 42842
SWIDTH 481 0
DWIDTH 16 0
BBX 16 15 0 -2
BITMAP
0C04
70FE
4484
64A4
5494
5494
4484
5CC4
E4A8
0490
0880
1080
6080
0080
0000
ENDCHAR

STARTCHAR a75b
ENCODING 42843
SWIDTH 481 0
DWIDTH 16 0
BBX 16 15 0 -2
BITMAP
0200
0100
7FFC
0440
0280
0100
02C0
0C30
300E
DFF4
1010
1010
1FF0
1010
0000
ENDCHAR

STARTCHAR a75c
ENCODING 42844
SWIDTH 481 0
DWIDTH 16 0
BBX 16 15 0 -2
BITMAP
0080
F840
8FFE
8800
8810
89F8
8910
8910
F910
8910
0110
0212
0412
080E
0000
ENDCHAR

STARTCHAR a75d
ENCODING 42845
SWIDTH 481 0
DWIDTH 16 0
BBX 16 15 0 -2
BITMAP
0010
3FF8
0200
0204
FFFE
0440
0820
1010
2FEE
4824
8820
0820
0FE0
0820
0000
ENDCHAR

STARTCHAR a75e
ENCODING 42846
SWIDTH 481 0
DWIDTH 16 0
BBX 16 15 0 -2
BITMAP
0008
7FFC
0400
0420
3FF0
0820
1024
FFFE
0000
1FF0
1010
1010
1FF0
1010
0000
ENDCHAR

STARTCHAR a75f
ENCODING 42847
SWIDTH 481 0
DWIDTH 16 0
BBX 16 15 0 -2
BITMAP
0004
FFFE
0080
0300
0560
0918
3106
C102
1FF0
1010
1010
1010
1FF0
1010
0000
ENDCHAR

STARTCHAR a760
ENCODING 42848
SWIDTH 481 0
DWIDTH 16 0
BBX 16 15 0 -2
BITMAP
0004
F3FE
9204
9204
9204
93FC
9204
9300
F280
9240
0220
0410
0808
3006
0000
ENDCHAR

STARTCHAR a761
ENCODING 42849
SWIDTH 481 0
DWIDTH 16 0
BBX 16 15 0 -2
BITMAP
0008
FBFC
8A48
8A48
8A48
8A48
8A48
8BF8
8A08
FA00
8A00
0202
0202
01FE
0000
ENDCHAR

STARTCHAR a762
ENCODING 42850
SWIDTH 481 0
DWIDTH 16 0
BBX 16 15 0 -2
BITMAP
0010
1FF8
1010
1010
1FF0
1110
0104
FFFE
0100
0540
0930
311C
C104
0100
0000
ENDCHAR

STARTCHAR a763
ENCODING 42851
SWIDTH 481 0
DWIDTH 16 0
BBX 16 15 0 -2
BITMAP
0000
03FE
FA00
8AFC
8A84
8A84
8A84
8A84
FAA8
8290
0482
0482
0882
107E
0000
ENDCHAR

STARTCHAR a764
ENCODING 42852
SWIDTH 481 0
DWIDTH 16 0
BBX 16 15 0 -2
BITMAP
0000
0FF0
0810
2810
2FF0
2000
3FF8
0208
0210
7FFC
0440
0820
101C
6008
0000
ENDCHAR

STARTCHAR a765
ENCODING 42853
SWIDTH 481 0
DWIDTH 16 0
BBX 16 15 0 -2
BITMAP
0010
1FF8
1010
1010
1010
1FF0
0018
00E0
1F00
0110
3FF8
0100
0104
FFFE
0000
ENDCHAR

STARTCHAR a766
ENCODING 42854
SWIDTH 481 0
DWIDTH 16 0
BBX 16 15 0 -2
BITMAP
0010
3FF8
2010
2010
3FF0
2110
0200
0408
7FFC
4008
4008
4008
7FF8
4008
0000
ENDCHAR

STARTCHAR a767
ENCODING 42855
SWIDTH 481 0
DWIDTH 16 0
BBX 16 15 0 -2
BITMAP
0010
3FF8
0410
0410
FFFE
0410
0410
3FF0
0800
1FF8
2808
4808
8FF8
0808
0000
ENDCHAR

STARTCHAR a768
ENCODING 42856
SWIDTH 481 0
DWIDTH 16 0
BBX 16 15 0 -2
BITMAP
0020
08A0
FCA0
8890
8908
890E
8A04
8DF8
8888
F888
8908
0108
0228
0410
0000
ENDCHAR

STARTCHAR a769
ENCODING 42857
SWIDTH 481 0
DWIDTH 16 0
BBX 16 15 0 -2
BITMAP
1100
1110
1FF8
1100
2100
0104
FFFE
0010
1FF8
1010
1010
1010
1FF0
1010
0000
ENDCHAR

STARTCHAR a76a
ENCODING 42858
SWIDTH 481 0
DWIDTH 16 0
BBX 16 15 0 -2
BITMAP
0080
0880
FC84
89FE
8904
8A48
8A50
8C40
8840
F8A0
8890
0108
060E
1804
0000
ENDCHAR

STARTCHAR a76b
ENCODING 42859
SWIDTH 481 0
DWIDTH 16 0
BBX 16 15 0 -2
BITMAP
0100
F904
89FE
8AA4
8CA4
88A4
8924
8924
FA44
8444
0084
0104
0228
0010
0000
ENDCHAR

STARTCHAR a76c
ENCODING 42860
SWIDTH 481 0
DWIDTH 16 0
BBX 16 15 0 -2
BITMAP
0008
07FC
F908
8910
8920
89FC
8984
8A48
FA50
8C20
0450
0888
110E
0204
0000
ENDCHAR

STARTCHAR a76d
ENCODING 42861
SWIDTH 481 0
DWIDTH 16 0
BBX 16 15 0 -2
BITMAP
0820
FC40
8880
8908
8A04
8FFE
8892
8890
F910
8910
0212
0212
0412
080E
0000
ENDCHAR

STARTCHAR a76e
ENCODING 42862
SWIDTH 481 0
DWIDTH 16 0
BBX 16 15 0 -2
BITMAP
0020
0020
F020
9128
9126
9122
9220
9024
9028
9010
F020
9040
0080
0300
0000
ENDCHAR

STARTCHAR a76f
ENCODING 42863
SWIDTH 481 0
DWIDTH 16 0
BBX 16 15 0 -2
BITMAP
0080
0040
F044
97FE
9444
9444
9444
94A4
9494
9514
F404
9404
0414
0408
0000
ENDCHAR

STARTCHAR a770
ENCODING 42864
SWIDTH 481 0
DWIDTH 16 0
BBX 16 15 0 -2
BITMAP
0040
0850
FC48
8840
8844
8FFE
88A0
88A0
8910
F910
8A08
0208
0404
0802
0000
ENDCHAR

STARTCHAR a771
ENCODING 42865
SWIDTH 481 0
DWIDTH 16 0
BBX 16 15 0 -2
BITMAP
07D0
F850
8890
8910
8910
8950
8990
8F10
F910
8910
0112
0112
050E
0200
0000
ENDCHAR

STARTCHAR a772
ENCODING 42866
SWIDTH 481 0
DWIDTH 16 0
BBX 16 15 0 -2
BITMAP
0000
01FC
F910
8910
8910
8910
89FE
8810
8830
F850
8990
0610
0050
0020
0000
ENDCHAR

STARTCHAR a773
ENCODING 42867
SWIDTH 481 0
DWIDTH 16 0
BBX 16 15 0 -2
BITMAP
0020
0024
FBFE
8820
8820
89FC
8904
8888
F850
8820
0050
0088
010E
0604
0000
ENDCHAR

STARTCHAR a774
ENCODING 42868
SWIDTH 481 0
DWIDTH 16 0
BBX 16 15 0 -2
BITMAP
0380
0440
0820
1010
2FE8
4004
8FE2
0040
0080
1FF0
1010
1010
1FF0
1010
0000
ENDCHAR

STARTCHAR a775
ENCODING 42869
SWIDTH 481 0
DWIDTH 16 0
BBX 16 15 0 -2
BITMAP
0040
0840
FCA0
88A0
8910
8AEE
8C04
8BF8
8808
F810
8810
0020
0040
0080
0000
ENDCHAR

STARTCHAR a776
ENCODING 42870
SWIDTH 481 0
DWIDTH 16 0
BBX 16 15 0 -2
BITMAP
0010
0038
F9C0
8900
8904
89FE
8910
8910
F910
8A10
0210
0410
0810
0010
0000
ENDCHAR

STARTCHAR a777
ENCODING 42871
SWIDTH 481 0
DWIDTH 16 0
BBX 16 15 0 -2
BITMAP
0400
0800
1004
3FFE
6084
A504
2214
2524
28C4
30C4
2124
2204
3FFC
2004
0000
ENDCHAR

STARTCHAR a778
ENCODING 42872
SWIDTH 481 0
DWIDTH 16 0
BBX 16 15 0 -2
BITMAP
0004
7FFE
4104
4104
5FF4
4104
4304
4384
4544
4934
5114
4104
7FFC
4004
0000
ENDCHAR

STARTCHAR a779
ENCODING 42873
SWIDTH 481 0
DWIDTH 16 0
BBX 16 15 0 -2
BITMAP
7FFE
4104
5FF4
4104
4924
4924
4924
4FE4
4104
4114
40F4
4004
7FFC
4004
0000
ENDCHAR

STARTCHAR a77a
ENCODING 42874
SWIDTH 481 0
DWIDTH 16 0
BBX 16 15 0 -2
BITMAP
0004
7FFE
4804
4FF4
5494
5494
6494
4894
4914
5114
6254
4424
7FFC
4004
0000
ENDCHAR

STARTCHAR a77b
ENCODING 42875
SWIDTH 481 0
DWIDTH 16 0
BBX 16 15 0 -2
BITMAP
1080
1040
1004
13FE
FC80
1088
10FC
1088
1C88
F088
4108
0108
0250
0420
0000
ENDCHAR

STARTCHAR a77c
ENCODING 42876
SWIDTH 481 0
DWIDTH 16 0
BBX 16 15 0 -2
BITMAP
1080
1044
17FE
FC00
1010
11F8
1110
1110
1D10
F110
4110
0212
0212
040E
0000
ENDCHAR

STARTCHAR a77d
ENCODING 42877
SWIDTH 481 0
DWIDTH 16 0
BBX 16 15 0 -2
BITMAP
1020
1020
1020
1120
FF24
113E
1120
1120
1120
1320
1D20
F120
4124
07FE
0000
ENDCHAR

STARTCHAR a77e
ENCODING 42878
SWIDTH 481 0
DWIDTH 16 0
BBX 16 15 0 -2
BITMAP
2008
23FC
2208
2288
FA48
2248
2208
2FFE
2208
3A08
E208
4408
0428
0810
0000
ENDCHAR

STARTCHAR a7a1
ENCODING 42913
SWIDTH 481 0
DWIDTH 16 0
BBX 16 15 0 -2
BITMAP
1080
1084
10FE
1104
FD04
1204
10F4
1004
1004
1CF4
F004
4004
0028
0010
0000
ENDCHAR

STARTCHAR a7a2
ENCODING 42914
SWIDTH 481 0
DWIDTH 16 0
BBX 16 15 0 -2
BITMAP
1080
1080
10FC
FD04
1108
1240
1040
1040
10A0
1CA0
E110
4208
040E
0804
0000
ENDCHAR

STARTCHAR a7a3
ENCODING 42915
SWIDTH 481 0
DWIDTH 16 0
BBX 16 15 0 -2
BITMAP
0008
17FC
1108
1110
FD10
11FC
1184
1148
1250
1E20
F450
4488
090E
0204
0000
ENDCHAR

STARTCHAR a7a4
ENCODING 42916
SWIDTH 481 0
DWIDTH 16 0
BBX 16 15 0 -2
BITMAP
0100
1110
1110
1110
2928
2524
4544
8180
0110
3FF8
0100
0100
0104
FFFE
0000
ENDCHAR

STARTCHAR a7a5
ENCODING 42917
SWIDTH 481 0
DWIDTH 16 0
BBX 16 15 0 -2
BITMAP
0004
2FFE
2020
2040
F880
2140
2248
2C44
2042
2840
3040
C040
0040
0040
0000
ENDCHAR

STARTCHAR a7a6
ENCODING 42918
SWIDTH 481 0
DWIDTH 16 0
BBX 16 15 0 -2
BITMAP
1008
103C
11C0
1100
7D04
11FE
1110
1110
1D10
F110
4210
0210
0410
0010
0000
ENDCHAR

STARTCHAR a7a7
ENCODING 42919
SWIDTH 481 0
DWIDTH 16 0
BBX 16 15 0 -2
BITMAP
0840
4840
4840
4840
7840
0844
0FFE
7840
4840
4840
4840
4848
8BFC
0800
0000
ENDCHAR

STARTCHAR a7a8
ENCODING 42920
SWIDTH 481 0
DWIDTH 16 0
BBX 16 15 0 -2
BITMAP
0100
0108
7FFC
0100
1110
1110
2928
C546
0100
0280
0440
0830
300E
C004
0000
ENDCHAR

STARTCHAR a7a9
ENCODING 42921
SWIDTH 481 0
DWIDTH 16 0
BBX 16 15 0 -2
BITMAP
0880
4880
4880
4884
4FFE
7888
0888
7908
4910
48A0
4840
48B0
490C
8A04
0000
ENDCHAR

STARTCHAR a7aa
ENCODING 42922
SWIDTH 481 0
DWIDTH 16 0
BBX 16 15 0 -2
BITMAP
1018
1060
1184
FDFE
2504
2504
25FC
4504
2900
1100
2A00
4600
8400
0800
0000
ENDCHAR

STARTCHAR a7ab
ENCODING 42923
SWIDTH 481 0
DWIDTH 16 0
BBX 16 15 0 -2
BITMAP
1080
1040
1004
FFFE
2480
2488
24FC
4488
2888
1088
2908
4508
8250
0420
0000
ENDCHAR

STARTCHAR a7ac
ENCODING 42924
SWIDTH 481 0
DWIDTH 16 0
BBX 16 15 0 -2
BITMAP
1008
13FC
1088
1088
FC88
2488
2488
27FE
4488
2888
1088
2888
4488
87FE
0000
ENDCHAR

STARTCHAR a7ad
ENCODING 42925
SWIDTH 481 0
DWIDTH 16 0
BBX 16 15 0 -2
BITMAP
1120
1120
1120
1120
FD20
25FC
2520
2520
4520
2920
1120
2962
45A2
851E
0000
ENDCHAR

STARTCHAR a7ae
ENCODING 42926
SWIDTH 481 0
DWIDTH 16 0
BBX 16 15 0 -2
BITMAP
1020
1020
1020
FCA8
24A6
24A2
2520
4424
2828
1010
2820
4440
8080
0300
0000
ENDCHAR

STARTCHAR a7af
ENCODING 42927
SWIDTH 481 0
DWIDTH 16 0
BBX 16 15 0 -2
BITMAP
1008
101C
11E0
FC20
2420
2424
27FE
4420
2850
1050
2888
4508
8206
0404
0000
ENDCHAR

STARTCHAR a7b0
ENCODING 42928
SWIDTH 481 0
DWIDTH 16 0
BBX 16 15 0 -2
BITMAP
1004
13FE
1088
FC88
2488
2488
27FE
4488
2888
1088
2888
4488
8108
0208
0000
ENDCHAR

STARTCHAR a7b1
ENCODING 42929
SWIDTH 481 0
DWIDTH 16 0
BBX 16 15 0 -2
BITMAP
1000
11F8
1008
1050
FC20
27FE
2422
2424
4420
2820
1020
2820
84A0
0040
0000
ENDCHAR

STARTCHAR a7b2
ENCODING 42930
SWIDTH 481 0
DWIDTH 16 0
BBX 16 15 0 -2
BITMAP
1020
1024
13FE
FC20
2420
25FC
2504
4488
2888
1050
2820
4450
848E
0304
0000
ENDCHAR

STARTCHAR a7b3
ENCODING 42931
SWIDTH 481 0
DWIDTH 16 0
BBX 16 15 0 -2
BITMAP
1000
1008
10FC
FC20
2420
2424
25FE
4420
2820
1020
2820
4428
85FC
0000
0000
ENDCHAR

STARTCHAR a7b4
ENCODING 42932
SWIDTH 481 0
DWIDTH 16 0
BBX 16 15 0 -2
BITMAP
0078
3F80
0208
1118
0D20
0440
0208
FFFE
0810
1820
0640
0180
0660
1810
0000
ENDCHAR

STARTCHAR a7b5
ENCODING 42933
SWIDTH 481 0
DWIDTH 16 0
BBX 16 15 0 -2
BITMAP
0200
0210
3FE0
0240
0284
FFFE
0200
3FE0
1080
2108
5FFC
8100
0500
0200
0000
ENDCHAR

STARTCHAR a7b6
ENCODING 42934
SWIDTH 481 0
DWIDTH 16 0
BBX 16 15 0 -2
BITMAP
0480
FE80
0484
08FE
1108
1588
1A88
F088
5050
1020
1050
1088
510E
2604
0000
ENDCHAR

STARTCHAR a7b7
ENCODING 42935
SWIDTH 481 0
DWIDTH 16 0
BBX 16 15 0 -2
BITMAP
0078
3F80
0008
1118
0920
3FF0
0040
0080
0104
FFFE
0100
0100
0500
0200
0000
ENDCHAR

STARTCHAR a7b8
ENCODING 42936
SWIDTH 481 0
DWIDTH 16 0
BBX 16 15 0 -2
BITMAP
0100
0108
7FFC
0100
7FFE
4004
9FE8
0040
0180
0104
FFFE
0100
0500
0200
0000
ENDCHAR

STARTCHAR a7b9
ENCODING 42937
SWIDTH 481 0
DWIDTH 16 0
BBX 16 15 0 -2
BITMAP
0200
0104
7FFE
4004
8048
1FE0
0000
7FFC
0480
0480
0884
0884
1084
607C
0000
ENDCHAR

STARTCHAR a7ba
ENCODING 42938
SWIDTH 481 0
DWIDTH 16 0
BBX 16 15 0 -2
BITMAP
0200
0104
7FFE
4004
8108
0100
FFFE
0540
0920
1110
210E
4104
0100
0100
0000
ENDCHAR

STARTCHAR a7bb
ENCODING 42939
SWIDTH 481 0
DWIDTH 16 0
BBX 16 15 0 -2
BITMAP
0100
7FFC
4004
8208
0200
FFFE
0400
0480
0880
1100
1220
2410
4FF8
0008
0000
ENDCHAR

STARTCHAR a7bc
ENCODING 42940
SWIDTH 481 0
DWIDTH 16 0
BBX 16 15 0 -2
BITMAP
2020
2060
2050
FE88
2904
2A92
2C90
2890
2890
2910
2912
4A02
47FE
8000
0000
ENDCHAR

STARTCHAR a7bd
ENCODING 42941
SWIDTH 481 0
DWIDTH 16 0
BBX 16 15 0 -2
BITMAP
0008
3FFC
2008
3FF8
2000
2004
3FFE
2004
27E4
2424
27E4
2404
4014
8008
0000
ENDCHAR

STARTCHAR a7be
ENCODING 42942
SWIDTH 481 0
DWIDTH 16 0
BBX 16 15 0 -2
BITMAP
0008
3FFC
2008
3FF8
2048
2840
2840
2F7C
2840
2840
2942
4E42
483E
8000
0000
ENDCHAR

STARTCHAR a7bf
ENCODING 42943
SWIDTH 481 0
DWIDTH 16 0
BBX 16 15 0 -2
BITMAP
0008
3FFC
2008
3FF8
2088
2080
2EC4
22C8
22B0
2490
488E
5084
8280
0100
0000
ENDCHAR

STARTCHAR a7c0
ENCODING 42944
SWIDTH 481 0
DWIDTH 16 0
BBX 16 15 0 -2
BITMAP
0008
3FFC
2008
3FF8
2020
21C0
2F00
2110
2FF8
2100
3FFC
4100
8102
00FE
0000
ENDCHAR

STARTCHAR a7c1
ENCODING 42945
SWIDTH 481 0
DWIDTH 16 0
BBX 16 15 0 -2
BITMAP
2020
2020
2024
23FE
A820
A820
A9FC
A884
A888
A850
F820
8850
018C
0606
0000
ENDCHAR

STARTCHAR a7c2
ENCODING 42946
SWIDTH 481 0
DWIDTH 16 0
BBX 16 15 0 -2
BITMAP
0100
2108
2108
3FF8
2108
06C0
0830
37CE
C004
1FE0
0020
0040
0040
0080
0000
ENDCHAR

STARTCHAR a7c3
ENCODING 42947
SWIDTH 481 0
DWIDTH 16 0
BBX 16 15 0 -2
BITMAP
0440
0820
1010
2FEE
C424
0420
08A0
3040
0100
2108
2108
2108
3FF8
2008
0000
ENDCHAR

STARTCHAR a7c4
ENCODING 42948
SWIDTH 481 0
DWIDTH 16 0
BBX 16 15 0 -2
BITMAP
0100
2108
3FF8
0000
3FF8
0840
09F0
1410
1220
2120
20C0
4140
8630
180E
0000
ENDCHAR

STARTCHAR a7c5
ENCODING 42949
SWIDTH 481 0
DWIDTH 16 0
BBX 16 15 0 -2
BITMAP
0008
7FFC
0100
1110
1110
1110
2928
2928
4544
8584
0100
0104
FFFE
0000
0000
ENDCHAR

STARTCHAR a7c6
ENCODING 42950
SWIDTH 481 0
DWIDTH 16 0
BBX 16 15 0 -2
BITMAP
0E60
0180
0660
3A18
0200
FFFE
0480
0888
1FFC
2888
C888
08A8
0890
0080
0000
ENDCHAR

STARTCHAR a7c7
ENCODING 42951
SWIDTH 481 0
DWIDTH 16 0
BBX 16 15 0 -2
BITMAP
0200
0100
7FFC
4000
4FF0
4020
4140
4084
5FFC
4088
4090
4080
4280
8100
0000
ENDCHAR

STARTCHAR a7c8
ENCODING 42952
SWIDTH 481 0
DWIDTH 16 0
BBX 16 15 0 -2
BITMAP
0100
0084
3FFE
2000
2440
2440
2440
2440
277C
2440
2440
2542
4E42
843E
0000
ENDCHAR

STARTCHAR a7c9
ENCODING 42953
SWIDTH 481 0
DWIDTH 16 0
BBX 16 15 0 -2
BITMAP
0100
0084
3FFE
2080
2088
3FFC
21C0
21A0
2290
2488
488E
5084
8080
0080
0000
ENDCHAR

STARTCHAR a7ca
ENCODING 42954
SWIDTH 481 0
DWIDTH 16 0
BBX 16 15 0 -2
BITMAP
0010
0038
FBC0
1040
2048
43FC
7840
0840
4840
2FFE
1000
2800
47FE
8000
0000
ENDCHAR

STARTCHAR a7cb
ENCODING 42955
SWIDTH 481 0
DWIDTH 16 0
BBX 16 15 0 -2
BITMAP
7FFC
0100
0100
3FF8
0100
0108
7FFC
0440
0444
FFFE
0440
0840
1040
6040
0000
ENDCHAR

STARTCHAR a7cc
ENCODING 42956
SWIDTH 481 0
DWIDTH 16 0
BBX 16 15 0 -2
BITMAP
0660
0280
7FF8
0108
3FF8
2100
2104
3FFE
0304
0504
1924
6118
0100
0100
0000
ENDCHAR

STARTCHAR a7cd
ENCODING 42957
SWIDTH 481 0
DWIDTH 16 0
BBX 16 15 0 -2
BITMAP
3F0C
2210
2220
3240
2A84
2A0C
2210
FFA0
2206
2208
2210
4220
4A40
8580
0000
ENDCHAR

STARTCHAR a7ce
ENCODING 42958
SWIDTH 481 0
DWIDTH 16 0
BBX 16 15 0 -2
BITMAP
7FC8
1108
1110
1120
1104
FFC8
1110
1122
1142
1104
2108
2110
4120
0140
0000
ENDCHAR

STARTCHAR a7cf
ENCODING 42959
SWIDTH 481 0
DWIDTH 16 0
BBX 16 15 0 -2
BITMAP
0840
1044
27FE
4080
0888
10FC
2088
5088
9088
1108
1208
1408
1850
1020
0000
ENDCHAR

STARTCHAR a7d0
ENCODING 42960
SWIDTH 481 0
DWIDTH 16 0
BBX 16 15 0 -2
BITMAP
09F8
1110
2110
4110
0A0E
1400
33F8
5108
9110
10A0
1040
10B0
130E
1C04
0000
ENDCHAR

STARTCHAR a7d1
ENCODING 42961
SWIDTH 481 0
DWIDTH 16 0
BBX 16 15 0 -2
BITMAP
0200
0104
FFFE
1000
1000
1010
1FF8
0200
1100
5084
5082
9012
1010
0FF0
0000
ENDCHAR

STARTCHAR a7d2
ENCODING 42962
SWIDTH 481 0
DWIDTH 16 0
BBX 16 15 0 -2
BITMAP
0010
7FF8
0010
3FF0
2010
2004
2004
1FFC
0000
5204
5182
5092
9012
0FF0
0000
ENDCHAR

STARTCHAR a7d3
ENCODING 42963
SWIDTH 481 0
DWIDTH 16 0
BBX 16 15 0 -2
BITMAP
0100
0104
FFFE
0100
0100
0100
7FFC
0000
0200
5180
5084
5012
9012
0FF0
0000
ENDCHAR

STARTCHAR a7d4
ENCODING 42964
SWIDTH 481 0
DWIDTH 16 0
BBX 16 15 0 -2
BITMAP
0010
7FF8
0210
1210
1A10
0410
0450
0820
1200
0988
48A4
4822
4822
87E0
0000
ENDCHAR

STARTCHAR a7d5
ENCODING 42965
SWIDTH 481 0
DWIDTH 16 0
BBX 16 15 0 -2
BITMAP
1040
1040
1040
53FC
5A44
5448
9040
1040
10A0
1120
1122
1222
141E
1800
0000
ENDCHAR

STARTCHAR a7d6
ENCODING 42966
SWIDTH 481 0
DWIDTH 16 0
BBX 16 15 0 -2
BITMAP
1080
1080
1088
5BFC
5488
5088
9088
1FFE
1080
1140
1120
1210
140E
1804
0000
ENDCHAR

STARTCHAR a7d7
ENCODING 42967
SWIDTH 481 0
DWIDTH 16 0
BBX 16 15 0 -2
BITMAP
1000
1008
13FC
5888
5488
5088
97FE
1088
1088
1088
1088
1088
17FE
1000
0000
ENDCHAR

STARTCHAR a7d8
ENCODING 42968
SWIDTH 481 0
DWIDTH 16 0
BBX 16 15 0 -2
BITMAP
1020
10A0
1090
5910
5508
520E
9444
1040
1080
1110
1208
17FC
1004
1000
0000
ENDCHAR

STARTCHAR a7d9
ENCODING 42969
SWIDTH 481 0
DWIDTH 16 0
BBX 16 15 0 -2
BITMAP
0040
0050
0048
FFFE
0040
1240
1244
7F48
1250
1220
1262
2292
410A
0206
0000
ENDCHAR

STARTCHAR a7da
ENCODING 42970
SWIDTH 481 0
DWIDTH 16 0
BBX 16 15 0 -2
BITMAP
0480
0EA0
7890
0884
FFFE
0890
0A90
0C60
1840
68A0
0920
0A14
2814
100C
0000
ENDCHAR

STARTCHAR a7db
ENCODING 42971
SWIDTH 481 0
DWIDTH 16 0
BBX 16 15 0 -2
BITMAP
1020
1020
1020
FCA8
10A6
14A2
1920
3024
D028
1010
1020
1040
5080
2300
0000
ENDCHAR

STARTCHAR a7dc
ENCODING 42972
SWIDTH 481 0
DWIDTH 16 0
BBX 16 15 0 -2
BITMAP
1040
1044
17FE
FC00
1010
15F8
1910
3110
D110
1110
1112
1212
5212
240E
0000
ENDCHAR

STARTCHAR a7dd
ENCODING 42973
SWIDTH 481 0
DWIDTH 16 0
BBX 16 15 0 -2
BITMAP
1110
10D0
1050
FC10
1110
14D0
1850
3010
D01E
17F0
1010
1010
5010
2010
0000
ENDCHAR

STARTCHAR a7de
ENCODING 42974
SWIDTH 481 0
DWIDTH 16 0
BBX 16 15 0 -2
BITMAP
1040
1048
13FC
FC40
1040
13F8
1A08
3110
D110
10A0
1040
10B0
510E
2604
0000
ENDCHAR

STARTCHAR a7df
ENCODING 42975
SWIDTH 481 0
DWIDTH 16 0
BBX 16 15 0 -2
BITMAP
1020
1020
11FC
FC20
1020
1424
1BFE
3020
D020
1050
1088
1088
5106
2604
0000
ENDCHAR

STARTCHAR a7e0
ENCODING 42976
SWIDTH 481 0
DWIDTH 16 0
BBX 16 15 0 -2
BITMAP
1080
1080
1088
FFFC
1088
1488
1888
3088
D7FE
1140
1120
1210
540E
2804
0000
ENDCHAR

STARTCHAR a7e1
ENCODING 42977
SWIDTH 481 0
DWIDTH 16 0
BBX 16 15 0 -2
BITMAP
1008
13FC
1088
FC88
1088
1488
1BFE
3088
D088
1088
1088
1088
53FE
2000
0000
ENDCHAR

STARTCHAR a7e2
ENCODING 42978
SWIDTH 481 0
DWIDTH 16 0
BBX 16 15 0 -2
BITMAP
1000
11FE
1124
FD24
1124
1524
19FC
3104
D100
1100
1102
1102
5102
20FE
0000
ENDCHAR

STARTCHAR a7e3
ENCODING 42979
SWIDTH 481 0
DWIDTH 16 0
BBX 16 15 0 -2
BITMAP
1000
13FE
1200
FE08
12FC
1688
1A88
3288
D2A8
1290
1282
1482
5882
207E
0000
ENDCHAR

STARTCHAR a7e4
ENCODING 42980
SWIDTH 481 0
DWIDTH 16 0
BBX 16 15 0 -2
BITMAP
1050
1048
1040
FDFE
1040
1048
1450
1820
3060
D0A0
1120
1212
540A
2006
0000
ENDCHAR

STARTCHAR a7e5
ENCODING 42981
SWIDTH 481 0
DWIDTH 16 0
BBX 16 15 0 -2
BITMAP
1220
1220
1220
FE20
1220
13BE
1A20
3220
D220
1220
12A2
1322
521E
2000
0000
ENDCHAR

STARTCHAR a7e6
ENCODING 42982
SWIDTH 481 0
DWIDTH 16 0
BBX 16 15 0 -2
BITMAP
1004
11FE
1100
FD00
11FC
1104
1584
1948
3148
D150
1220
1450
588E
2304
0000
ENDCHAR

STARTCHAR a7e7
ENCODING 42983
SWIDTH 481 0
DWIDTH 16 0
BBX 16 15 0 -2
BITMAP
1000
13F8
1010
10A0
FC40
17FE
1842
3044
D040
1040
1040
1040
5140
2080
0000
ENDCHAR

STARTCHAR a7e8
ENCODING 42984
SWIDTH 481 0
DWIDTH 16 0
BBX 16 15 0 -2
BITMAP
1020
1020
1020
FC20
1120
153C
1920
3120
D120
1120
1120
1124
57FE
2000
0000
ENDCHAR

STARTCHAR a7e9
ENCODING 42985
SWIDTH 481 0
DWIDTH 16 0
BBX 16 15 0 -2
BITMAP
1008
103C
11C0
FD00
1104
15FE
1910
3110
D110
1110
1210
1210
5410
2010
0000
ENDCHAR

STARTCHAR a7ea
ENCODING 42986
SWIDTH 481 0
DWIDTH 16 0
BBX 16 15 0 -2
BITMAP
1020
10B0
10A0
FD10
110E
1204
1C00
33F8
D088
1088
1108
1108
5228
2410
0000
ENDCHAR

STARTCHAR a7eb
ENCODING 42987
SWIDTH 481 0
DWIDTH 16 0
BBX 16 15 0 -2
BITMAP
1010
11F8
1110
FD10
150E
1A00
33F8
D008
1110
10A0
1040
10B0
510E
2604
0000
ENDCHAR

STARTCHAR a7ec
ENCODING 42988
SWIDTH 481 0
DWIDTH 16 0
BBX 16 15 0 -2
BITMAP
1008
101C
13E0
1250
FE50
1650
1A50
3250
D248
1248
1444
1444
5842
2040
0000
ENDCHAR

STARTCHAR a7ed
ENCODING 42989
SWIDTH 481 0
DWIDTH 16 0
BBX 16 15 0 -2
BITMAP
1000
1040
1050
FC9E
1112
1512
1912
1112
3132
5152
9196
1010
5010
2010
0000
ENDCHAR

STARTCHAR a7ee
ENCODING 42990
SWIDTH 481 0
DWIDTH 16 0
BBX 16 15 0 -2
BITMAP
1020
1020
13FE
FC88
1088
1888
1088
3050
5050
9020
1050
1088
5104
2602
0000
ENDCHAR

STARTCHAR a7ef
ENCODING 42991
SWIDTH 481 0
DWIDTH 16 0
BBX 16 15 0 -2
BITMAP
0040
0040
F884
08FE
0908
0908
FA88
8090
8060
8020
8850
B088
C106
0602
0000
ENDCHAR

STARTCHAR a7f0
ENCODING 42992
SWIDTH 481 0
DWIDTH 16 0
BBX 16 15 0 -2
BITMAP
0080
0880
FD08
11FC
1210
1410
1110
1120
10C0
1C40
F0A0
4110
020E
0C04
0000
ENDCHAR

STARTCHAR a7f1
ENCODING 42993
SWIDTH 481 0
DWIDTH 16 0
BBX 16 15 0 -2
BITMAP
0880
0880
1084
14FE
3508
5588
9688
1488
1450
1420
1450
1090
110E
1604
0000
ENDCHAR

STARTCHAR a7f2
ENCODING 42994
SWIDTH 481 0
DWIDTH 16 0
BBX 16 15 0 -2
BITMAP
1FF0
1010
1FF0
1010
1FF0
0000
3FF8
0100
0104
FFFE
0100
0100
0100
0100
0000
ENDCHAR

STARTCHAR a7f3
ENCODING 42995
SWIDTH 481 0
DWIDTH 16 0
BBX 16 15 0 -2
BITMAP
0004
FFFE
0100
3FF8
2108
3FF8
2108
3FF8
2908
0500
0300
04C0
1830
E00E
0000
ENDCHAR

STARTCHAR a7f4
ENCODING 42996
SWIDTH 481 0
DWIDTH 16 0
BBX 16 15 0 -2
BITMAP
0100
FFFE
0100
0108
3FFC
2108
2108
3FF8
2388
0540
0930
310E
C104
0100
0000
ENDCHAR

STARTCHAR a7f5
ENCODING 42997
SWIDTH 481 0
DWIDTH 16 0
BBX 16 15 0 -2
BITMAP
0100
7FFC
0540
0930
310E
C104
0FE0
0040
0188
7FFC
0100
0100
0500
0200
0000
ENDCHAR

STARTCHAR a7f6
ENCODING 42998
SWIDTH 481 0
DWIDTH 16 0
BBX 16 15 0 -2
BITMAP
0100
0104
FFFE
0380
0540
0930
310E
C104
1FF0
1010
1010
1010
1FF0
1010
0000
ENDCHAR

STARTCHAR a7f7
ENCODING 42999
SWIDTH 481 0
DWIDTH 16 0
BBX 16 15 0 -2
BITMAP
0810
0810
0810
FEFE
0810
1810
1C50
2A50
2890
4890
8910
0A10
0850
0820
0000
ENDCHAR

STARTCHAR a7f8
ENCODING 43000
SWIDTH 481 0
DWIDTH 16 0
BBX 16 15 0 -2
BITMAP
1010
1010
1010
FC10
13FE
3010
3810
5510
5490
9090
1010
1010
1050
1020
0000
ENDCHAR

STARTCHAR a7f9
ENCODING 43001
SWIDTH 481 0
DWIDTH 16 0
BBX 16 15 0 -2
BITMAP
1020
1020
1020
FE20
1020
31FC
3820
5420
5420
9020
1020
1024
17FE
1000
0000
ENDCHAR

STARTCHAR a7fa
ENCODING 43002
SWIDTH 481 0
DWIDTH 16 0
BBX 16 15 0 -2
BITMAP
1020
1020
1024
FDFE
1020
3120
3920
54A0
90A0
1040
1060
1090
110E
1604
0000
ENDCHAR

STARTCHAR a7fb
ENCODING 43003
SWIDTH 481 0
DWIDTH 16 0
BBX 16 15 0 -2
BITMAP
1000
1008
13FC
FC08
1008
3008
3BF8
5608
5200
9200
1202
1202
1202
11FE
0000
ENDCHAR

STARTCHAR a7fc
ENCODING 43004
SWIDTH 481 0
DWIDTH 16 0
BBX 16 15 0 -2
BITMAP
0808
0810
0820
FEC0
1808
1C10
2A20
2AC0
4802
8804
0808
0810
0860
0980
0000
ENDCHAR

STARTCHAR a7fd
ENCODING 43005
SWIDTH 481 0
DWIDTH 16 0
BBX 16 15 0 -2
BITMAP
1000
1008
11FC
FC20
1020
3024
3BFE
5420
5020
9020
1020
1020
1020
1020
0000
ENDCHAR

STARTCHAR a7fe
ENCODING 43006
SWIDTH 481 0
DWIDTH 16 0
BBX 16 15 0 -2
BITMAP
1000
1008
11FC
FC20
1020
3020
3820
5420
5420
9020
1024
13FE
1000
1000
0000
ENDCHAR

STARTCHAR a840
ENCODING 43072
SWIDTH 481 0
DWIDTH 16 0
BBX 16 15 0 -2
BITMAP
1080
1080
1084
FDFE
1204
3004
3884
5444
5444
9004
1004
1044
1028
1010
0000
ENDCHAR

STARTCHAR a841
ENCODING 43073
SWIDTH 481 0
DWIDTH 16 0
BBX 16 15 0 -2
BITMAP
0200
0100
7FFC
1000
1000
1FF8
0100
0108
7FFC
0520
0918
110C
6104
0100
0000
ENDCHAR

STARTCHAR a842
ENCODING 43074
SWIDTH 481 0
DWIDTH 16 0
BBX 16 15 0 -2
BITMAP
0100
0910
09F8
0900
0904
FFFE
0100
0910
0D18
1110
2120
00C0
0700
7800
0000
ENDCHAR

STARTCHAR a843
ENCODING 43075
SWIDTH 481 0
DWIDTH 16 0
BBX 16 15 0 -2
BITMAP
1000
1FFC
2000
4010
1FF8
1210
1110
FFFE
1210
1110
2010
3FF8
0020
01C0
0000
ENDCHAR

STARTCHAR a844
ENCODING 43076
SWIDTH 481 0
DWIDTH 16 0
BBX 16 15 0 -2
BITMAP
0120
0110
7FFC
2108
1918
09A0
0140
0520
0910
110E
6104
0100
0500
0200
0000
ENDCHAR

STARTCHAR a845
ENCODING 43077
SWIDTH 481 0
DWIDTH 16 0
BBX 16 15 0 -2
BITMAP
3FF8
0100
0104
FFFE
0108
0118
7DA0
0540
0920
1110
210E
C104
0500
0200
0000
ENDCHAR

STARTCHAR a846
ENCODING 43078
SWIDTH 481 0
DWIDTH 16 0
BBX 16 15 0 -2
BITMAP
0020
2020
1820
80A8
60A6
20A2
0920
1024
2028
E010
2020
2040
2080
2300
0000
ENDCHAR

STARTCHAR a847
ENCODING 43079
SWIDTH 481 0
DWIDTH 16 0
BBX 16 15 0 -2
BITMAP
2000
1880
8060
6120
2120
0100
1508
1504
2506
E902
2908
2108
20F8
2000
0000
ENDCHAR

STARTCHAR a848
ENCODING 43080
SWIDTH 481 0
DWIDTH 16 0
BBX 16 15 0 -2
BITMAP
4080
3088
17FC
8488
6890
20C0
0940
1140
2140
E140
2242
2442
283E
3000
0000
ENDCHAR

STARTCHAR a849
ENCODING 43081
SWIDTH 481 0
DWIDTH 16 0
BBX 16 15 0 -2
BITMAP
4004
37FE
1404
8408
4000
2120
1120
2120
E120
2120
2222
2222
2422
281E
0000
ENDCHAR

STARTCHAR a84a
ENCODING 43082
SWIDTH 481 0
DWIDTH 16 0
BBX 16 15 0 -2
BITMAP
8008
67FC
2000
0000
8004
6FFE
2120
0120
0920
1120
E222
2422
2822
301E
0000
ENDCHAR

STARTCHAR a84b
ENCODING 43083
SWIDTH 481 0
DWIDTH 16 0
BBX 16 15 0 -2
BITMAP
0040
4040
2FFE
8040
6040
27FC
0C44
1444
2444
E444
2454
2448
2040
2040
0000
ENDCHAR

STARTCHAR a84c
ENCODING 43084
SWIDTH 481 0
DWIDTH 16 0
BBX 16 15 0 -2
BITMAP
4008
37FC
1040
8040
6040
2048
0BFC
1040
2040
E040
2040
2044
2FFE
2000
0000
ENDCHAR

STARTCHAR a84d
ENCODING 43085
SWIDTH 481 0
DWIDTH 16 0
BBX 16 15 0 -2
BITMAP
4080
3080
1088
87FC
6088
2088
0088
0FFE
0880
1140
E120
2210
240E
2804
0000
ENDCHAR

STARTCHAR a84e
ENCODING 43086
SWIDTH 481 0
DWIDTH 16 0
BBX 16 15 0 -2
BITMAP
4040
3040
1044
87FE
4840
48E0
1150
1150
2248
E248
2444
2846
2040
2040
0000
ENDCHAR

STARTCHAR a84f
ENCODING 43087
SWIDTH 481 0
DWIDTH 16 0
BBX 16 15 0 -2
BITMAP
4040
3040
1044
87FE
6040
2040
0840
10A0
E110
2190
2248
244E
2804
2000
0000
ENDCHAR

STARTCHAR a850
ENCODING 43088
SWIDTH 481 0
DWIDTH 16 0
BBX 16 15 0 -2
BITMAP
4040
2044
2FFE
8040
4444
4C44
1444
27FC
E444
2040
2040
2042
2042
203E
0000
ENDCHAR

STARTCHAR a851
ENCODING 43089
SWIDTH 481 0
DWIDTH 16 0
BBX 16 15 0 -2
BITMAP
4008
33FC
1208
8208
4A08
1208
13F8
2208
E208
2208
2208
2208
23F8
2208
0000
ENDCHAR

STARTCHAR a852
ENCODING 43090
SWIDTH 481 0
DWIDTH 16 0
BBX 16 15 0 -2
BITMAP
0040
4040
2040
2044
07FE
8444
6444
2444
07FC
1444
2040
E040
2040
2040
0000
ENDCHAR

STARTCHAR a853
ENCODING 43091
SWIDTH 481 0
DWIDTH 16 0
BBX 16 15 0 -2
BITMAP
8100
61FC
2108
0108
8228
6410
23F8
0208
0910
10A0
E040
20A0
231E
2C08
0000
ENDCHAR

STARTCHAR a854
ENCODING 43092
SWIDTH 481 0
DWIDTH 16 0
BBX 16 15 0 -2
BITMAP
0200
4208
33FC
1400
87F8
6800
27F0
0010
2010
E010
2010
200A
200A
2006
0000
ENDCHAR

STARTCHAR a855
ENCODING 43093
SWIDTH 481 0
DWIDTH 16 0
BBX 16 15 0 -2
BITMAP
400C
37F0
1040
8040
6044
2FFE
0040
1040
2040
E0A0
2110
2208
240E
2804
0000
ENDCHAR

STARTCHAR a856
ENCODING 43094
SWIDTH 481 0
DWIDTH 16 0
BBX 16 15 0 -2
BITMAP
4008
37FC
1108
8110
6110
29FC
0984
1148
6250
2220
2450
2488
290E
2204
0000
ENDCHAR

STARTCHAR a857
ENCODING 43095
SWIDTH 481 0
DWIDTH 16 0
BBX 16 15 0 -2
BITMAP
4120
3120
1110
8210
640E
2804
07F0
1110
2110
E110
2110
2210
24A0
2840
0000
ENDCHAR

STARTCHAR a858
ENCODING 43096
SWIDTH 481 0
DWIDTH 16 0
BBX 16 15 0 -2
BITMAP
4100
30C0
1044
8FFE
4080
4880
10A0
1090
208C
E084
2080
2080
2080
2080
0000
ENDCHAR

STARTCHAR a859
ENCODING 43097
SWIDTH 481 0
DWIDTH 16 0
BBX 16 15 0 -2
BITMAP
4080
3044
17FE
8000
4810
49F8
1110
1110
2110
E110
2212
2212
2412
280E
0000
ENDCHAR

STARTCHAR a85a
ENCODING 43098
SWIDTH 481 0
DWIDTH 16 0
BBX 16 15 0 -2
BITMAP
0080
4040
3044
17FE
8208
4A08
1110
1110
20A0
E040
20A0
2110
260E
3804
0000
ENDCHAR

STARTCHAR a85b
ENCODING 43099
SWIDTH 481 0
DWIDTH 16 0
BBX 16 15 0 -2
BITMAP
8004
6FFE
2100
0100
81FC
6108
2108
0908
1108
23F8
C008
4010
4010
4FFE
0000
ENDCHAR

STARTCHAR a85c
ENCODING 43100
SWIDTH 481 0
DWIDTH 16 0
BBX 16 15 0 -2
BITMAP
4FFE
3040
1040
8244
4A7E
4A44
1244
1244
23FC
E004
2004
2004
2028
2010
0000
ENDCHAR

STARTCHAR a85d
ENCODING 43101
SWIDTH 481 0
DWIDTH 16 0
BBX 16 15 0 -2
BITMAP
8420
6420
2420
0420
8420
67BE
2420
0420
1420
2420
C420
4422
45A2
463E
0000
ENDCHAR

STARTCHAR a85e
ENCODING 43102
SWIDTH 481 0
DWIDTH 16 0
BBX 16 15 0 -2
BITMAP
4008
301C
13E0
8200
6204
2BFE
0A10
1210
1210
E210
2210
2410
2810
2010
0000
ENDCHAR

STARTCHAR a85f
ENCODING 43103
SWIDTH 481 0
DWIDTH 16 0
BBX 16 15 0 -2
BITMAP
1040
1040
1240
9440
5848
53FC
1040
1040
1040
1040
2840
2440
4444
87FE
0000
ENDCHAR

STARTCHAR a860
ENCODING 43104
SWIDTH 481 0
DWIDTH 16 0
BBX 16 15 0 -2
BITMAP
1040
1040
1244
94FE
5904
5204
1084
1044
1044
2804
2404
4444
8028
0010
0000
ENDCHAR

STARTCHAR a861
ENCODING 43105
SWIDTH 481 0
DWIDTH 16 0
BBX 16 15 0 -2
BITMAP
1084
2108
4210
2108
1084
0100
4104
2108
1930
0100
0280
0440
1830
E00E
0000
ENDCHAR

STARTCHAR a862
ENCODING 43106
SWIDTH 481 0
DWIDTH 16 0
BBX 16 15 0 -2
BITMAP
0420
07F0
0820
10C0
0320
0C10
110E
6124
0930
0920
0540
06C0
1830
E00E
0000
ENDCHAR

STARTCHAR a863
ENCODING 43107
SWIDTH 481 0
DWIDTH 16 0
BBX 16 15 0 -2
BITMAP
0200
0100
7FFE
4102
9104
1120
1FF0
1100
2104
FFFE
0100
0100
0100
0100
0000
ENDCHAR

STARTCHAR a864
ENCODING 43108
SWIDTH 481 0
DWIDTH 16 0
BBX 16 15 0 -2
BITMAP
0820
4820
4820
7F20
4820
89FC
0820
0E20
1820
E820
0820
0824
0BFE
0800
0000
ENDCHAR

STARTCHAR a865
ENCODING 43109
SWIDTH 481 0
DWIDTH 16 0
BBX 16 15 0 -2
BITMAP
1020
5120
5120
7922
97FE
1122
1124
1928
1120
3120
D120
1102
1102
11FE
0000
ENDCHAR

STARTCHAR a866
ENCODING 43110
SWIDTH 481 0
DWIDTH 16 0
BBX 16 15 0 -2
BITMAP
0440
4440
2840
1044
2A4C
4950
8960
1840
2840
48A0
88A0
0910
520E
2404
0000
ENDCHAR

STARTCHAR a867
ENCODING 43111
SWIDTH 481 0
DWIDTH 16 0
BBX 16 15 0 -2
BITMAP
8004
45FE
2820
1020
2820
4820
09FC
1820
2820
4820
8820
0824
53FE
2000
0000
ENDCHAR

STARTCHAR a868
ENCODING 43112
SWIDTH 481 0
DWIDTH 16 0
BBX 16 15 0 -2
BITMAP
0440
FE48
10FC
1088
1088
7D10
1210
1020
1E50
F050
4088
0108
0206
0C00
0000
ENDCHAR

STARTCHAR a869
ENCODING 43113
SWIDTH 481 0
DWIDTH 16 0
BBX 16 15 0 -2
BITMAP
3FF8
0020
0640
0184
7FFC
4104
4104
7FFC
4104
4104
7FFC
4104
4114
4008
0000
ENDCHAR

STARTCHAR a86a
ENCODING 43114
SWIDTH 481 0
DWIDTH 16 0
BBX 16 15 0 -2
BITMAP
0120
0110
FFFE
0100
0108
3FFC
2108
3FF8
2108
3FF8
2108
2108
2128
2010
0000
ENDCHAR

STARTCHAR a86b
ENCODING 43115
SWIDTH 481 0
DWIDTH 16 0
BBX 16 15 0 -2
BITMAP
0008
3FFC
2108
3FF8
2108
3FF8
0200
0204
7FFE
0204
0404
0804
1028
6010
0000
ENDCHAR

STARTCHAR a86c
ENCODING 43116
SWIDTH 481 0
DWIDTH 16 0
BBX 16 15 0 -2
BITMAP
0800
0804
1FFE
1004
2044
5FE4
9244
1FC4
1244
1FC4
1044
0004
0014
0008
0000
ENDCHAR

STARTCHAR a86d
ENCODING 43117
SWIDTH 481 0
DWIDTH 16 0
BBX 16 15 0 -2
BITMAP
0200
0400
3FF8
2008
3FF8
2008
3FF8
0200
0204
FFFE
0200
0200
01FC
0000
0000
ENDCHAR

STARTCHAR a86e
ENCODING 43118
SWIDTH 481 0
DWIDTH 16 0
BBX 16 15 0 -2
BITMAP
0000
F804
8FFE
8820
F820
8820
8820
F820
8820
8820
8820
F820
88A0
0040
0000
ENDCHAR

STARTCHAR a86f
ENCODING 43119
SWIDTH 481 0
DWIDTH 16 0
BBX 16 15 0 -2
BITMAP
0400
0820
1010
3FF8
0808
0810
1FF8
2100
0104
FFFE
0440
0830
101C
6008
0000
ENDCHAR

STARTCHAR a870
ENCODING 43120
SWIDTH 481 0
DWIDTH 16 0
BBX 16 15 0 -2
BITMAP
0420
0E20
F820
0820
FF20
1C40
1A40
2888
4884
8902
0BFE
0902
0802
0800
0000
ENDCHAR

STARTCHAR a871
ENCODING 43121
SWIDTH 481 0
DWIDTH 16 0
BBX 16 15 0 -2
BITMAP
01E0
1F00
0108
7FFC
0540
0930
310E
CFE4
0420
0470
0810
0810
10A0
2040
0000
ENDCHAR

STARTCHAR a872
ENCODING 43122
SWIDTH 481 0
DWIDTH 16 0
BBX 16 15 0 -2
BITMAP
00F0
3F00
0100
0104
FFFE
0920
1110
210E
4444
0440
0840
0842
1042
603E
0000
ENDCHAR

STARTCHAR a873
ENCODING 43123
SWIDTH 481 0
DWIDTH 16 0
BBX 16 15 0 -2
BITMAP
0200
0104
7FFE
4004
8828
1410
240C
0440
3FE0
0440
0842
0842
1042
603E
0000
ENDCHAR

STARTCHAR a874
ENCODING 43124
SWIDTH 481 0
DWIDTH 16 0
BBX 16 15 0 -2
BITMAP
0060
7F80
0400
0840
3F80
0100
0620
1810
3FF8
0100
1110
2108
4108
0100
0000
ENDCHAR

STARTCHAR a875
ENCODING 43125
SWIDTH 481 0
DWIDTH 16 0
BBX 16 15 0 -2
BITMAP
0000
7FFE
4442
8824
1010
0000
3FF8
0100
0104
FFFE
0100
0100
0100
0100
0000
ENDCHAR

STARTCHAR a876
ENCODING 43126
SWIDTH 481 0
DWIDTH 16 0
BBX 16 15 0 -2
BITMAP
2108
1110
0920
0108
3FFC
2008
2008
3FF8
2008
3FF8
2008
2008
2028
2010
0000
ENDCHAR

STARTCHAR a877
ENCODING 43127
SWIDTH 481 0
DWIDTH 16 0
BBX 16 15 0 -2
BITMAP
0200
FFFE
1000
1FF8
0000
1FF0
1010
1FF0
1010
1FF0
1010
1010
1050
2020
0000
ENDCHAR

STARTCHAR a878
ENCODING 43128
SWIDTH 481 0
DWIDTH 16 0
BBX 16 15 0 -2
BITMAP
0008
3DFC
2420
2420
3C20
2424
27FE
3C20
2420
2420
2420
4420
5420
8820
0000
ENDCHAR

STARTCHAR a879
ENCODING 43129
SWIDTH 481 0
DWIDTH 16 0
BBX 16 15 0 -2
BITMAP
0408
3E08
2408
2408
3DFE
2408
2488
3C48
2448
2408
2408
4408
9428
0810
0000
ENDCHAR

STARTCHAR a87a
ENCODING 43130
SWIDTH 481 0
DWIDTH 16 0
BBX 16 15 0 -2
BITMAP
0000
3C08
25FC
2420
3C20
2420
2420
3C20
2420
2420
2424
47FE
5400
8800
0000
ENDCHAR

STARTCHAR a87b
ENCODING 43131
SWIDTH 481 0
DWIDTH 16 0
BBX 16 15 0 -2
BITMAP
0420
3E20
2420
2420
3C20
25FC
2420
3C20
2420
2420
2424
47FE
5400
8800
0000
ENDCHAR

STARTCHAR a87c
ENCODING 43132
SWIDTH 481 0
DWIDTH 16 0
BBX 16 15 0 -2
BITMAP
0200
FFFE
0400
0810
3FF8
0008
1FF0
1010
1FF0
1010
1FF0
1010
1050
2020
0000
ENDCHAR

STARTCHAR a87d
ENCODING 43133
SWIDTH 481 0
DWIDTH 16 0
BBX 16 15 0 -2
BITMAP
0400
0220
3FF0
2020
3FE0
2020
3FE0
2410
2420
2240
2180
2470
380E
6004
0000
ENDCHAR

STARTCHAR a87e
ENCODING 43134
SWIDTH 481 0
DWIDTH 16 0
BBX 16 15 0 -2
BITMAP
0820
0824
FEFE
0820
0200
0104
FFFE
1000
1000
1000
1000
1000
1008
1FFC
0000
ENDCHAR

STARTCHAR a8a1
ENCODING 43169
SWIDTH 481 0
DWIDTH 16 0
BBX 16 15 0 -2
BITMAP
0820
0820
FEFE
0820
3FF8
0100
0104
FFFE
0100
0100
0100
0100
0500
0200
0000
ENDCHAR

STARTCHAR a8a2
ENCODING 43170
SWIDTH 481 0
DWIDTH 16 0
BBX 16 15 0 -2
BITMAP
0440
0444
FFFE
0440
1008
1FFC
1008
2408
4308
8108
0008
0008
0050
0020
0000
ENDCHAR

STARTCHAR a8a3
ENCODING 43171
SWIDTH 481 0
DWIDTH 16 0
BBX 16 15 0 -2
BITMAP
1FF0
1010
1010
1FF0
1010
1FF0
1010
1010
1FF0
1290
0480
0882
1082
60FE
0000
ENDCHAR

STARTCHAR a8a4
ENCODING 43172
SWIDTH 481 0
DWIDTH 16 0
BBX 16 15 0 -2
BITMAP
0FE0
1040
2088
5FFC
9108
1108
1FF8
1108
1108
1FF8
1008
1008
2028
4010
0000
ENDCHAR

STARTCHAR a8a5
ENCODING 43173
SWIDTH 481 0
DWIDTH 16 0
BBX 16 15 0 -2
BITMAP
0200
0104
FFFE
0000
1FF0
0000
1FF0
0000
1FF0
1010
1010
1010
1FF0
1010
0000
ENDCHAR

STARTCHAR a8a6
ENCODING 43174
SWIDTH 481 0
DWIDTH 16 0
BBX 16 15 0 -2
BITMAP
0840
0830
1018
2108
0280
0440
0830
300E
CFE4
0820
0820
0820
0FE0
0820
0000
ENDCHAR

STARTCHAR a8a7
ENCODING 43175
SWIDTH 481 0
DWIDTH 16 0
BBX 16 15 0 -2
BITMAP
0008
7FFC
0000
0010
1FF8
1010
1010
1010
1FF0
0000
0820
0440
0484
FFFE
0000
ENDCHAR

STARTCHAR a8a8
ENCODING 43176
SWIDTH 481 0
DWIDTH 16 0
BBX 16 15 0 -2
BITMAP
0004
FFFE
0608
0918
11A0
62C0
04C0
08A0
31A0
0290
048E
3884
0280
0100
0000
ENDCHAR

STARTCHAR a8a9
ENCODING 43177
SWIDTH 481 0
DWIDTH 16 0
BBX 16 15 0 -2
BITMAP
0008
3FFC
2008
2008
3FF8
2008
2008
3FF8
2008
2008
3FF8
0810
100C
E006
0000
ENDCHAR

STARTCHAR a8aa
ENCODING 43178
SWIDTH 481 0
DWIDTH 16 0
BBX 16 15 0 -2
BITMAP
0100
0100
3FF8
0100
0104
FFFE
0440
1450
1448
2446
4842
8840
1140
2080
0000
ENDCHAR

STARTCHAR a8ab
ENCODING 43179
SWIDTH 481 0
DWIDTH 16 0
BBX 16 15 0 -2
BITMAP
0100
0110
3FF8
0100
0104
FFFE
0100
1110
11F8
1100
1100
2900
4500
83FE
0000
ENDCHAR

STARTCHAR a8ac
ENCODING 43180
SWIDTH 481 0
DWIDTH 16 0
BBX 16 15 0 -2
BITMAP
0010
1FF8
1010
1010
1010
1FF0
1110
0100
1100
11F8
1100
2900
4500
83FE
0000
ENDCHAR

STARTCHAR a8ad
ENCODING 43181
SWIDTH 481 0
DWIDTH 16 0
BBX 16 15 0 -2
BITMAP
0100
0200
0FF0
0810
0FF0
0812
0FF4
0818
7FF0
0090
0310
1C10
E050
0020
0000
ENDCHAR

STARTCHAR a8ae
ENCODING 43182
SWIDTH 481 0
DWIDTH 16 0
BBX 16 15 0 -2
BITMAP
0100
0100
7FFC
0100
3FF8
2108
3FF8
2108
3FF8
0100
FFFE
0100
0100
0100
0000
ENDCHAR

STARTCHAR a8af
ENCODING 43183
SWIDTH 481 0
DWIDTH 16 0
BBX 16 15 0 -2
BITMAP
0200
0110
3FF8
0820
0420
0444
FFFE
0100
0108
7FFC
0100
0100
0100
0100
0000
ENDCHAR

STARTCHAR a8b0
ENCODING 43184
SWIDTH 481 0
DWIDTH 16 0
BBX 16 15 0 -2
BITMAP
0010
3FF8
2000
3FF0
2000
3FFC
2A08
2910
28A0
2840
4830
490E
8E04
0800
0000
ENDCHAR

STARTCHAR a8b1
ENCODING 43185
SWIDTH 481 0
DWIDTH 16 0
BBX 16 15 0 -2
BITMAP
43F8
3040
1040
0040
F048
17FC
2040
7040
1040
1040
1140
1080
2800
C7FE
0000
ENDCHAR

STARTCHAR a8b2
ENCODING 43186
SWIDTH 481 0
DWIDTH 16 0
BBX 16 15 0 -2
BITMAP
8040
4440
2442
EFFE
2444
4444
8448
4440
2440
2402
2402
23FE
5000
8FFE
0000
ENDCHAR

STARTCHAR a8b3
ENCODING 43187
SWIDTH 481 0
DWIDTH 16 0
BBX 16 15 0 -2
BITMAP
0010
47F8
3110
1110
0110
F7F0
1110
2110
6112
110A
1106
1100
3000
CFFE
0000
ENDCHAR

STARTCHAR a8b4
ENCODING 43188
SWIDTH 481 0
DWIDTH 16 0
BBX 16 15 0 -2
BITMAP
0100
41FE
3200
0400
F1FC
1008
2030
60C0
1102
1202
1202
11FE
3000
CFFE
0000
ENDCHAR

STARTCHAR a8b5
ENCODING 43189
SWIDTH 481 0
DWIDTH 16 0
BBX 16 15 0 -2
BITMAP
4124
3124
1248
0248
F490
1920
2490
6248
1248
1124
1124
1000
2800
C7FE
0000
ENDCHAR

STARTCHAR a8b6
ENCODING 43190
SWIDTH 481 0
DWIDTH 16 0
BBX 16 15 0 -2
BITMAP
1FF0
1010
1010
1FF0
0000
7FF8
4108
4108
7FF8
4008
4000
4002
4002
3FFE
0000
ENDCHAR

STARTCHAR a8b7
ENCODING 43191
SWIDTH 481 0
DWIDTH 16 0
BBX 16 15 0 -2
BITMAP
7F7C
1244
1244
1248
1250
FFC8
1244
1242
1242
1262
2254
2248
4240
0240
0000
ENDCHAR

STARTCHAR a8b8
ENCODING 43192
SWIDTH 481 0
DWIDTH 16 0
BBX 16 15 0 -2
BITMAP
0000
7F7C
4444
4448
4448
7FD0
0C4C
1442
2442
4462
8454
0448
1440
0840
0000
ENDCHAR

STARTCHAR a8b9
ENCODING 43193
SWIDTH 481 0
DWIDTH 16 0
BBX 16 15 0 -2
BITMAP
087C
0844
0F44
7848
0848
7E50
0848
0844
FF42
1062
1054
2048
4040
0040
0000
ENDCHAR

STARTCHAR a8ba
ENCODING 43194
SWIDTH 481 0
DWIDTH 16 0
BBX 16 15 0 -2
BITMAP
0004
FE7C
2244
2244
FE48
2258
2244
FE42
2242
2262
2254
4A48
8440
0040
0000
ENDCHAR

STARTCHAR a8bb
ENCODING 43195
SWIDTH 481 0
DWIDTH 16 0
BBX 16 15 0 -2
BITMAP
0004
FFFE
0440
0444
7FFE
4444
4444
4444
487C
5004
5FF4
4004
7FFC
4004
0000
ENDCHAR

STARTCHAR a8bc
ENCODING 43196
SWIDTH 481 0
DWIDTH 16 0
BBX 16 15 0 -2
BITMAP
0020
0070
3F80
1110
0910
0920
FFFE
0340
0520
0910
110C
2106
C102
0100
0000
ENDCHAR

STARTCHAR a8bd
ENCODING 43197
SWIDTH 481 0
DWIDTH 16 0
BBX 16 15 0 -2
BITMAP
0008
3FFC
2108
2108
3FF8
2108
2108
3FF8
0100
0108
7FFC
0100
0104
FFFE
0000
ENDCHAR

STARTCHAR a8be
ENCODING 43198
SWIDTH 481 0
DWIDTH 16 0
BBX 16 15 0 -2
BITMAP
0080
F840
9024
97FE
A100
9108
91FC
8908
8908
D108
A208
8408
8850
8020
0000
ENDCHAR

STARTCHAR a8bf
ENCODING 43199
SWIDTH 481 0
DWIDTH 16 0
BBX 16 15 0 -2
BITMAP
0008
F9FC
8800
9004
A7FE
9090
9090
8890
8890
D090
A092
8112
8212
8C0E
0000
ENDCHAR

STARTCHAR a8c0
ENCODING 43200
SWIDTH 481 0
DWIDTH 16 0
BBX 16 15 0 -2
BITMAP
0110
F910
8910
97FC
A110
A110
9110
9110
97FE
D110
A110
8110
8210
8410
0000
ENDCHAR

STARTCHAR a8c1
ENCODING 43201
SWIDTH 481 0
DWIDTH 16 0
BBX 16 15 0 -2
BITMAP
F004
97FE
9200
A200
93FE
9202
9304
9288
9248
D230
A230
8448
8884
9302
0000
ENDCHAR

STARTCHAR a8c2
ENCODING 43202
SWIDTH 481 0
DWIDTH 16 0
BBX 16 15 0 -2
BITMAP
0040
F820
93FE
A000
9000
88F8
8888
8888
8888
C888
B088
808A
810A
860E
0000
ENDCHAR

STARTCHAR a8c3
ENCODING 43203
SWIDTH 481 0
DWIDTH 16 0
BBX 16 15 0 -2
BITMAP
1010
0820
0440
7FFC
0440
0440
0440
2448
1450
0C60
0440
0440
0440
FFFE
0000
ENDCHAR

STARTCHAR a8c4
ENCODING 43204
SWIDTH 481 0
DWIDTH 16 0
BBX 16 15 0 -2
BITMAP
0030
1FC0
0100
0104
FFFE
0100
0920
0920
793E
0920
3920
C91E
0100
0100
0000
ENDCHAR

STARTCHAR a8c5
ENCODING 43205
SWIDTH 481 0
DWIDTH 16 0
BBX 16 15 0 -2
BITMAP
0640
F840
4940
2940
2240
FF40
0240
0C40
0B40
1C40
E840
0842
2842
103E
0000
ENDCHAR

STARTCHAR a8c6
ENCODING 43206
SWIDTH 481 0
DWIDTH 16 0
BBX 16 15 0 -2
BITMAP
0100
FFFE
0100
3FF8
2108
3FF8
0100
3FF8
0108
FFFE
0108
3FF8
0100
0700
0000
ENDCHAR

STARTCHAR a8c7
ENCODING 43207
SWIDTH 481 0
DWIDTH 16 0
BBX 16 15 0 -2
BITMAP
0440
0440
2440
277C
2440
2442
2742
FC3E
4000
0020
1FF0
0000
0008
7FFC
0000
ENDCHAR

STARTCHAR a8c8
ENCODING 43208
SWIDTH 481 0
DWIDTH 16 0
BBX 16 15 0 -2
BITMAP
0008
7FFC
0440
0440
0440
7C7C
4004
4004
4004
7C7C
0440
0440
0440
FFFE
0000
ENDCHAR

STARTCHAR a8c9
ENCODING 43209
SWIDTH 481 0
DWIDTH 16 0
BBX 16 15 0 -2
BITMAP
0100
7FFC
0000
1FF0
1010
1FF0
0000
1FF0
0040
0080
7FFE
0080
0480
0300
0000
ENDCHAR

STARTCHAR a8ca
ENCODING 43210
SWIDTH 481 0
DWIDTH 16 0
BBX 16 15 0 -2
BITMAP
0200
0104
FFFE
0000
1FF0
1010
1010
1FF0
0100
0920
1918
210C
4504
0200
0000
ENDCHAR

STARTCHAR a8cb
ENCODING 43211
SWIDTH 481 0
DWIDTH 16 0
BBX 16 15 0 -2
BITMAP
1208
1110
10A0
27FC
6040
A040
23F8
2040
2044
2FFE
2040
2040
2040
2040
0000
ENDCHAR

STARTCHAR a8cc
ENCODING 43212
SWIDTH 481 0
DWIDTH 16 0
BBX 16 15 0 -2
BITMAP
0880
0840
0844
17FE
3080
5140
9148
1350
1520
1920
1110
114E
1184
1100
0000
ENDCHAR

STARTCHAR a8cd
ENCODING 43213
SWIDTH 481 0
DWIDTH 16 0
BBX 16 15 0 -2
BITMAP
0840
0844
17FE
1040
3040
53FC
9010
1010
17FC
1010
1210
1110
1050
1020
0000
ENDCHAR

STARTCHAR a8ce
ENCODING 43214
SWIDTH 481 0
DWIDTH 16 0
BBX 16 15 0 -2
BITMAP
0840
0840
17FC
1040
3044
5FFE
9040
1040
17FC
1040
1040
1044
1FFE
1000
0000
ENDCHAR

STARTCHAR a8cf
ENCODING 43215
SWIDTH 481 0
DWIDTH 16 0
BBX 16 15 0 -2
BITMAP
1040
1044
1FFE
2040
67FC
A444
2444
27FC
2244
2180
20C0
2130
260E
2804
0000
ENDCHAR

STARTCHAR a8d0
ENCODING 43216
SWIDTH 481 0
DWIDTH 16 0
BBX 16 15 0 -2
BITMAP
0880
0884
17EC
1090
30A0
50C4
9FFE
1100
1700
19F8
1100
1100
1100
10FC
0000
ENDCHAR

STARTCHAR a8d1
ENCODING 43217
SWIDTH 481 0
DWIDTH 16 0
BBX 16 15 0 -2
BITMAP
1210
1210
2210
2FFC
6210
A210
2210
3FFE
2000
2210
2208
240C
2804
2000
0000
ENDCHAR

STARTCHAR a8d2
ENCODING 43218
SWIDTH 481 0
DWIDTH 16 0
BBX 16 15 0 -2
BITMAP
1004
1044
1FE4
2204
67D4
A454
2854
3494
2294
2114
2204
2404
2814
2008
0000
ENDCHAR

STARTCHAR a8d3
ENCODING 43219
SWIDTH 481 0
DWIDTH 16 0
BBX 16 15 0 -2
BITMAP
0100
0104
FFFE
0910
1120
2950
C58C
0100
0540
0920
1110
2108
C106
0100
0000
ENDCHAR

STARTCHAR a8d4
ENCODING 43220
SWIDTH 481 0
DWIDTH 16 0
BBX 16 15 0 -2
BITMAP
0808
0BFC
0A08
1208
33F8
5000
9248
1248
1248
1248
1248
1448
184E
1000
0000
ENDCHAR

STARTCHAR a8d5
ENCODING 43221
SWIDTH 481 0
DWIDTH 16 0
BBX 16 15 0 -2
BITMAP
0800
0804
0FFE
1040
1040
3084
53FC
9204
1204
13FC
1204
1204
13FC
1204
0000
ENDCHAR

STARTCHAR a8d6
ENCODING 43222
SWIDTH 481 0
DWIDTH 16 0
BBX 16 15 0 -2
BITMAP
1208
1110
20A0
47FC
A110
2110
2110
2FFE
2110
2110
2110
2210
2410
2810
0000
ENDCHAR

STARTCHAR a8d7
ENCODING 43223
SWIDTH 481 0
DWIDTH 16 0
BBX 16 15 0 -2
BITMAP
08FC
0908
1310
10A0
3040
5090
9110
1620
107E
1084
1348
1030
10C0
1700
0000
ENDCHAR

STARTCHAR a8d8
ENCODING 43224
SWIDTH 481 0
DWIDTH 16 0
BBX 16 15 0 -2
BITMAP
1008
1FFC
2808
2FF8
6888
A888
2BE8
2AA8
2AA8
2AA8
2AEA
288A
3086
2080
0000
ENDCHAR

STARTCHAR a8d9
ENCODING 43225
SWIDTH 481 0
DWIDTH 16 0
BBX 16 15 0 -2
BITMAP
0920
0920
1124
112C
3530
5320
9130
132C
1D24
1120
1222
1222
141E
1800
0000
ENDCHAR

STARTCHAR a8da
ENCODING 43226
SWIDTH 481 0
DWIDTH 16 0
BBX 16 15 0 -2
BITMAP
07C0
0820
1010
2008
5FF4
8002
0000
3FF8
2448
2448
3FF8
2448
2448
2458
0000
ENDCHAR

STARTCHAR a8db
ENCODING 43227
SWIDTH 481 0
DWIDTH 16 0
BBX 16 15 0 -2
BITMAP
0800
0920
1210
1408
3BF6
5210
9210
13F0
1210
1210
13F0
1210
1250
1420
0000
ENDCHAR

STARTCHAR a8dc
ENCODING 43228
SWIDTH 481 0
DWIDTH 16 0
BBX 16 15 0 -2
BITMAP
0840
0A48
13FC
1440
3840
5044
9FFE
10C0
10E0
1150
1248
144E
1844
1040
0000
ENDCHAR

STARTCHAR a8dd
ENCODING 43229
SWIDTH 481 0
DWIDTH 16 0
BBX 16 15 0 -2
BITMAP
0880
0884
17FE
1100
3108
53FC
9508
1908
11F8
1108
11F8
1108
1128
1210
0000
ENDCHAR

STARTCHAR a8de
ENCODING 43230
SWIDTH 481 0
DWIDTH 16 0
BBX 16 15 0 -2
BITMAP
1080
1040
20A0
6110
A208
2406
2BFA
2040
2040
23F8
2040
2040
27FC
2000
0000
ENDCHAR

STARTCHAR a8df
ENCODING 43231
SWIDTH 481 0
DWIDTH 16 0
BBX 16 15 0 -2
BITMAP
0800
0FE0
1040
2088
7FFC
A108
2108
3FF8
2288
0480
04A2
0892
1082
607E
0000
ENDCHAR

STARTCHAR a8e0
ENCODING 43232
SWIDTH 481 0
DWIDTH 16 0
BBX 16 15 0 -2
BITMAP
0400
3878
2008
2008
3EF8
2008
2008
3FF8
2448
0440
0440
0842
1042
E03E
0000
ENDCHAR

STARTCHAR a8e1
ENCODING 43233
SWIDTH 481 0
DWIDTH 16 0
BBX 16 15 0 -2
BITMAP
0008
3C7C
2448
2448
27C8
2008
3FF8
2448
0440
0440
0842
1042
2042
C03E
0000
ENDCHAR

STARTCHAR a8e2
ENCODING 43234
SWIDTH 481 0
DWIDTH 16 0
BBX 16 15 0 -2
BITMAP
0004
FFFE
0100
0100
0100
FFFE
8102
A142
9122
A952
C58A
8102
810A
8004
0000
ENDCHAR

STARTCHAR a8e3
ENCODING 43235
SWIDTH 481 0
DWIDTH 16 0
BBX 16 15 0 -2
BITMAP
0020
0FF0
0820
0FE0
0820
0FE0
0820
0FE0
0824
FFFE
0440
0C20
1018
2008
0000
ENDCHAR

STARTCHAR a8e4
ENCODING 43236
SWIDTH 481 0
DWIDTH 16 0
BBX 16 15 0 -2
BITMAP
0820
0820
3FF8
0820
0FE0
0820
0FE0
0820
0824
FFFE
0000
0820
1818
2008
0000
ENDCHAR

STARTCHAR a8e5
ENCODING 43237
SWIDTH 481 0
DWIDTH 16 0
BBX 16 15 0 -2
BITMAP
0480
0480
0490
3FF8
2490
2490
3FF0
2490
2490
FFFE
0840
1820
2010
4010
0000
ENDCHAR

STARTCHAR a8e6
ENCODING 43238
SWIDTH 481 0
DWIDTH 16 0
BBX 16 15 0 -2
BITMAP
0044
4FE4
2204
1214
13D4
0254
1454
2654
2994
E094
2114
2204
2814
2008
0000
ENDCHAR

STARTCHAR a8e7
ENCODING 43239
SWIDTH 481 0
DWIDTH 16 0
BBX 16 15 0 -2
BITMAP
1FF0
0020
0040
8182
9112
8932
8542
8102
8932
B11A
8502
8202
FFFE
8002
0000
ENDCHAR

STARTCHAR a8e8
ENCODING 43240
SWIDTH 481 0
DWIDTH 16 0
BBX 16 15 0 -2
BITMAP
0802
0482
FFC2
0412
0892
3F12
1212
0492
1912
6212
0602
1982
E08A
0004
0000
ENDCHAR

STARTCHAR a8e9
ENCODING 43241
SWIDTH 481 0
DWIDTH 16 0
BBX 16 15 0 -2
BITMAP
0100
1110
0920
3FF8
0100
7FFC
0440
0820
3FF8
C226
0220
0420
08A0
1040
0000
ENDCHAR

STARTCHAR a8ea
ENCODING 43242
SWIDTH 481 0
DWIDTH 16 0
BBX 16 15 0 -2
BITMAP
0004
3FC4
2054
3FD4
2214
2214
3FD4
3254
3254
5254
5344
9284
0214
0208
0000
ENDCHAR

STARTCHAR a8eb
ENCODING 43243
SWIDTH 481 0
DWIDTH 16 0
BBX 16 15 0 -2
BITMAP
0802
0902
FF82
0812
7F12
4912
4912
4B12
1C12
2A12
4982
8882
080A
0804
0000
ENDCHAR

STARTCHAR a8ec
ENCODING 43244
SWIDTH 481 0
DWIDTH 16 0
BBX 16 15 0 -2
BITMAP
0002
7F82
1012
2212
4112
7F92
0892
0812
7F12
0812
0812
0F82
F80A
4004
0000
ENDCHAR

STARTCHAR a8ed
ENCODING 43245
SWIDTH 481 0
DWIDTH 16 0
BBX 16 15 0 -2
BITMAP
0182
7E02
0802
0912
FF92
0812
0812
0912
7F92
4112
4112
4102
7F0A
4104
0000
ENDCHAR

STARTCHAR a8ee
ENCODING 43246
SWIDTH 481 0
DWIDTH 16 0
BBX 16 15 0 -2
BITMAP
0402
2402
3F92
2412
4412
FFD2
0412
3F92
2492
2482
2682
2502
040A
0404
0000
ENDCHAR

STARTCHAR a8ef
ENCODING 43247
SWIDTH 481 0
DWIDTH 16 0
BBX 16 15 0 -2
BITMAP
3F02
2202
2212
2212
2992
4812
FF92
0812
1C12
2B12
4902
8802
080A
0804
0000
ENDCHAR

STARTCHAR a8f0
ENCODING 43248
SWIDTH 481 0
DWIDTH 16 0
BBX 16 15 0 -2
BITMAP
1020
0920
FFA0
1024
12FE
2424
7C24
2824
1244
2444
4C44
9284
22A8
0110
0000
ENDCHAR

STARTCHAR a8f1
ENCODING 43249
SWIDTH 481 0
DWIDTH 16 0
BBX 16 15 0 -2
BITMAP
0000
FF90
8010
BE10
887E
8812
8812
BE12
8812
8812
8812
FF12
8022
FFC4
0000
ENDCHAR

STARTCHAR a8f2
ENCODING 43250
SWIDTH 481 0
DWIDTH 16 0
BBX 16 15 0 -2
BITMAP
0200
0108
7FFC
0820
0820
1450
2288
0100
0104
FFFE
0100
0100
0100
0100
0000
ENDCHAR

STARTCHAR a8f3
ENCODING 43251
SWIDTH 481 0
DWIDTH 16 0
BBX 16 15 0 -2
BITMAP
2040
2040
23FC
2044
F844
2094
2108
2208
2FBE
228A
228A
228A
2492
2104
0000
ENDCHAR

STARTCHAR a8f4
ENCODING 43252
SWIDTH 481 0
DWIDTH 16 0
BBX 16 15 0 -2
BITMAP
0108
01FC
0100
1FF0
1010
1FF0
1010
1FF0
1110
0104
FFFE
0100
0100
0100
0000
ENDCHAR

STARTCHAR a8f5
ENCODING 43253
SWIDTH 481 0
DWIDTH 16 0
BBX 16 15 0 -2
BITMAP
0100
0210
1FF8
1110
1FF0
1110
1210
1FF0
0480
0884
FFFE
0080
0080
0080
0000
ENDCHAR

STARTCHAR a8f6
ENCODING 43254
SWIDTH 481 0
DWIDTH 16 0
BBX 16 15 0 -2
BITMAP
0810
0810
7F10
0810
0818
FF94
0812
7F12
0810
0810
0F10
7810
2010
0010
0000
ENDCHAR

STARTCHAR a8f7
ENCODING 43255
SWIDTH 481 0
DWIDTH 16 0
BBX 16 15 0 -2
BITMAP
0100
1110
0920
7FFC
0200
FFFE
0820
1FF0
282E
C824
0920
08C8
0808
07F8
0000
ENDCHAR

STARTCHAR a8f8
ENCODING 43256
SWIDTH 481 0
DWIDTH 16 0
BBX 16 15 0 -2
BITMAP
2000
2204
3F7E
4844
8844
FF44
0844
0844
4E44
4864
4E54
F048
4040
0040
0000
ENDCHAR

STARTCHAR a8f9
ENCODING 43257
SWIDTH 481 0
DWIDTH 16 0
BBX 16 15 0 -2
BITMAP
1000
107E
2022
4022
FF22
5522
5522
5522
5522
55A2
562C
5820
E020
0020
0000
ENDCHAR

STARTCHAR a8fa
ENCODING 43258
SWIDTH 481 0
DWIDTH 16 0
BBX 16 15 0 -2
BITMAP
FF80
2200
23FC
3E04
2284
2288
3E88
2250
2220
3E50
E248
428E
0304
0200
0000
ENDCHAR

STARTCHAR a8fb
ENCODING 43259
SWIDTH 481 0
DWIDTH 16 0
BBX 16 15 0 -2
BITMAP
0800
0F00
08FC
0804
FF88
0888
0848
2C50
2B20
4950
4850
8888
290E
1204
0000
ENDCHAR

STARTCHAR a8fc
ENCODING 43260
SWIDTH 481 0
DWIDTH 16 0
BBX 16 15 0 -2
BITMAP
0020
3FC8
1218
0920
7FFE
4002
9FE4
0020
0840
0480
0300
02C0
0C30
300E
0000
ENDCHAR

STARTCHAR a8fd
ENCODING 43261
SWIDTH 481 0
DWIDTH 16 0
BBX 16 15 0 -2
BITMAP
0040
0840
FC48
8BFC
8840
8844
8FFE
8840
88E0
8950
FA50
844E
0844
0040
0000
ENDCHAR

STARTCHAR a8fe
ENCODING 43262
SWIDTH 481 0
DWIDTH 16 0
BBX 16 15 0 -2
BITMAP
0004
07FE
F808
8808
8BC8
8A48
8A48
8A48
FBC8
8248
0008
0008
0028
0010
0000
ENDCHAR

STARTCHAR a940
ENCODING 43328
SWIDTH 481 0
DWIDTH 16 0
BBX 16 15 0 -2
BITMAP
0400
0400
F404
9FBE
94A4
94A4
94A4
94A4
94A4
F4A4
88A4
0ABC
1124
2000
0000
ENDCHAR

STARTCHAR a941
ENCODING 43329
SWIDTH 481 0
DWIDTH 16 0
BBX 16 15 0 -2
BITMAP
0004
07FE
F820
8820
8820
8840
88C0
8950
894C
8A46
FC42
8840
0044
0FFE
0000
ENDCHAR

STARTCHAR a942
ENCODING 43330
SWIDTH 481 0
DWIDTH 16 0
BBX 16 15 0 -2
BITMAP
0040
0040
F844
8FFE
8840
8840
8848
8BFC
8A08
FA08
8A08
0208
03F8
0208
0000
ENDCHAR

STARTCHAR a943
ENCODING 43331
SWIDTH 481 0
DWIDTH 16 0
BBX 16 15 0 -2
BITMAP
0008
09FC
FD08
8908
8908
89F8
8908
8908
89F8
8908
F908
8908
0108
07FE
0000
ENDCHAR

STARTCHAR a944
ENCODING 43332
SWIDTH 481 0
DWIDTH 16 0
BBX 16 15 0 -2
BITMAP
0020
0020
0824
FDFE
8924
8924
89FC
8924
8924
F9FC
8924
0020
0020
0020
0000
ENDCHAR

STARTCHAR a945
ENCODING 43333
SWIDTH 481 0
DWIDTH 16 0
BBX 16 15 0 -2
BITMAP
0004
09FE
FD24
8924
89FC
8924
8924
89FC
F924
8820
0020
0020
0020
0020
0000
ENDCHAR

STARTCHAR a946
ENCODING 43334
SWIDTH 481 0
DWIDTH 16 0
BBX 16 15 0 -2
BITMAP
0020
0820
FD24
8924
8924
89FC
8824
8820
FA22
8A22
0222
0222
03FE
0202
0000
ENDCHAR

STARTCHAR a947
ENCODING 43335
SWIDTH 481 0
DWIDTH 16 0
BBX 16 15 0 -2
BITMAP
0408
7EFC
4488
4488
7CF8
0000
0040
0FE0
0840
0840
0842
1042
2042
403E
0000
ENDCHAR

STARTCHAR a948
ENCODING 43336
SWIDTH 481 0
DWIDTH 16 0
BBX 16 15 0 -2
BITMAP
0080
0084
F8FE
8904
8BE4
8D24
8924
89E4
F904
8918
0100
0102
0102
00FE
0000
ENDCHAR

STARTCHAR a949
ENCODING 43337
SWIDTH 481 0
DWIDTH 16 0
BBX 16 15 0 -2
BITMAP
0008
001C
FBE0
8A48
8958
8960
8844
8FFE
8840
F840
8840
0040
0140
0080
0000
ENDCHAR

STARTCHAR a94a
ENCODING 43338
SWIDTH 481 0
DWIDTH 16 0
BBX 16 15 0 -2
BITMAP
0088
0888
FC88
8908
8BFE
8D08
8948
8928
8928
F908
8908
0108
0128
0110
0000
ENDCHAR

STARTCHAR a94b
ENCODING 43339
SWIDTH 481 0
DWIDTH 16 0
BBX 16 15 0 -2
BITMAP
0008
001C
FBE0
8A48
8A48
8A48
8A48
8A48
FA48
8248
04A4
0494
09F2
1010
0000
ENDCHAR

STARTCHAR a94c
ENCODING 43340
SWIDTH 481 0
DWIDTH 16 0
BBX 16 15 0 -2
BITMAP
0200
F204
927E
9FA4
92A4
94A4
94A4
9924
F524
8214
0508
0894
1022
00C0
0000
ENDCHAR

STARTCHAR a94d
ENCODING 43341
SWIDTH 481 0
DWIDTH 16 0
BBX 16 15 0 -2
BITMAP
0200
0700
7800
0804
08FE
FF84
0884
1884
1C84
2A84
4884
88FC
0884
0800
0000
ENDCHAR

STARTCHAR a94e
ENCODING 43342
SWIDTH 481 0
DWIDTH 16 0
BBX 16 15 0 -2
BITMAP
0080
0888
FCFC
8908
8910
8AA0
88E0
8910
8ACE
FC64
8820
0080
0060
0020
0000
ENDCHAR

STARTCHAR a94f
ENCODING 43343
SWIDTH 481 0
DWIDTH 16 0
BBX 16 15 0 -2
BITMAP
0004
03FE
F204
9204
93FC
9200
9280
9280
92FC
F480
8482
0882
1082
207E
0000
ENDCHAR

STARTCHAR a950
ENCODING 43344
SWIDTH 481 0
DWIDTH 16 0
BBX 16 15 0 -2
BITMAP
0004
7FFE
4104
4FE4
4104
4104
5FF4
4004
4FE4
4824
4FE4
4824
8014
0008
0000
ENDCHAR

STARTCHAR a951
ENCODING 43345
SWIDTH 481 0
DWIDTH 16 0
BBX 16 15 0 -2
BITMAP
0100
F904
89FE
8A80
8A80
8C88
88FC
8880
8880
F884
88FE
0080
0080
0080
0000
ENDCHAR

STARTCHAR a952
ENCODING 43346
SWIDTH 481 0
DWIDTH 16 0
BBX 16 15 0 -2
BITMAP
0380
0440
0820
1010
2FE8
C006
0000
3EF8
2288
2288
3EC8
22B0
0080
0080
0000
ENDCHAR

STARTCHAR a953
ENCODING 43347
SWIDTH 481 0
DWIDTH 16 0
BBX 16 15 0 -2
BITMAP
1020
1220
1F20
6220
1458
0888
1400
23FE
C000
1FF0
1010
1010
1FF0
1010
0000
ENDCHAR

STARTCHAR a954
ENCODING 43348
SWIDTH 481 0
DWIDTH 16 0
BBX 16 15 0 -2
BITMAP
0004
FFFE
8204
BFF4
8204
8204
9FE4
9024
9024
9FE4
9024
8004
FFFC
8004
0000
ENDCHAR

STARTCHAR a955
ENCODING 43349
SWIDTH 481 0
DWIDTH 16 0
BBX 16 15 0 -2
BITMAP
1080
1040
1048
13FC
1000
7C08
1108
1088
1090
1090
1C20
E020
4044
07FE
0000
ENDCHAR

STARTCHAR a956
ENCODING 43350
SWIDTH 481 0
DWIDTH 16 0
BBX 16 15 0 -2
BITMAP
1004
17FE
1004
11E4
FD24
1124
1124
1124
11E4
1D04
F004
4004
0014
0008
0000
ENDCHAR

STARTCHAR a957
ENCODING 43351
SWIDTH 481 0
DWIDTH 16 0
BBX 16 15 0 -2
BITMAP
1008
17FC
1040
1248
FD48
1150
1150
1044
1FFE
1C40
E040
4040
0040
0040
0000
ENDCHAR

STARTCHAR a958
ENCODING 43352
SWIDTH 481 0
DWIDTH 16 0
BBX 16 15 0 -2
BITMAP
1108
1108
1108
17FE
FD08
1108
1108
11F8
1D08
F108
4108
0108
01F8
0108
0000
ENDCHAR

STARTCHAR a959
ENCODING 43353
SWIDTH 481 0
DWIDTH 16 0
BBX 16 15 0 -2
BITMAP
1020
1020
13FE
FE22
1224
1220
13FC
1284
1E48
E250
4220
0450
088E
1304
0000
ENDCHAR

STARTCHAR a95a
ENCODING 43354
SWIDTH 481 0
DWIDTH 16 0
BBX 16 15 0 -2
BITMAP
2000
2008
23FC
2208
FA08
2208
23F8
2208
2208
3BF8
E208
4000
0000
0FFE
0000
ENDCHAR

STARTCHAR a95b
ENCODING 43355
SWIDTH 481 0
DWIDTH 16 0
BBX 16 15 0 -2
BITMAP
2040
2040
2044
27FE
FC44
2444
27FC
2444
3C44
E7FC
4444
0040
0040
0040
0000
ENDCHAR

STARTCHAR a95c
ENCODING 43356
SWIDTH 481 0
DWIDTH 16 0
BBX 16 15 0 -2
BITMAP
101C
11E0
1100
1100
FD04
11FE
1110
1110
1D38
F11C
4214
0210
0410
0010
0000
ENDCHAR

STARTCHAR a95d
ENCODING 43357
SWIDTH 481 0
DWIDTH 16 0
BBX 16 15 0 -2
BITMAP
0200
0104
FFFE
0880
10F8
1108
3288
5650
9920
10C0
10C0
1130
120E
1C04
0000
ENDCHAR

STARTCHAR a95e
ENCODING 43358
SWIDTH 481 0
DWIDTH 16 0
BBX 16 15 0 -2
BITMAP
0100
0108
7FFC
0100
3FF8
0200
FFFE
0920
311E
CFE4
0100
1FF0
0100
0100
0000
ENDCHAR

STARTCHAR a95f
ENCODING 43359
SWIDTH 481 0
DWIDTH 16 0
BBX 16 15 0 -2
BITMAP
0100
0110
3FF8
0280
0440
0824
FFFE
0010
1F90
1090
1090
1F90
0050
0020
0000
ENDCHAR

STARTCHAR a960
ENCODING 43360
SWIDTH 481 0
DWIDTH 16 0
BBX 16 15 0 -2
BITMAP
0200
0208
7FFC
0820
1010
204E
CFE4
0000
3FF8
0100
0920
1118
6108
0100
0000
ENDCHAR

STARTCHAR a961
ENCODING 43361
SWIDTH 481 0
DWIDTH 16 0
BBX 16 15 0 -2
BITMAP
0100
0108
7FFC
0280
0C60
311E
C104
1FF0
1110
1FF0
1110
1FF0
0100
00FE
0000
ENDCHAR

STARTCHAR a962
ENCODING 43362
SWIDTH 481 0
DWIDTH 16 0
BBX 16 15 0 -2
BITMAP
0100
7FFC
0280
0540
0930
37CE
C104
0920
0820
7FFC
0820
0820
1020
2020
0000
ENDCHAR

STARTCHAR a963
ENCODING 43363
SWIDTH 481 0
DWIDTH 16 0
BBX 16 15 0 -2
BITMAP
0200
7FFC
0820
0444
FFFE
0100
0208
7FFC
0420
0820
0640
0180
0670
3808
0000
ENDCHAR

STARTCHAR a964
ENCODING 43364
SWIDTH 481 0
DWIDTH 16 0
BBX 16 15 0 -2
BITMAP
0100
7FFC
3FF0
0110
FFFE
0110
3FF0
0300
FFFE
0820
0640
0180
0660
1810
0000
ENDCHAR

STARTCHAR a965
ENCODING 43365
SWIDTH 481 0
DWIDTH 16 0
BBX 16 15 0 -2
BITMAP
00F0
3F80
0104
FFFE
0540
1930
610C
0200
FFFE
0420
0440
0380
0C60
3010
0000
ENDCHAR

STARTCHAR a966
ENCODING 43366
SWIDTH 481 0
DWIDTH 16 0
BBX 16 15 0 -2
BITMAP
2040
2048
23FC
F840
4844
4FFE
4840
88E0
50D0
2148
524E
4C44
8840
0040
0000
ENDCHAR

STARTCHAR a967
ENCODING 43367
SWIDTH 481 0
DWIDTH 16 0
BBX 16 15 0 -2
BITMAP
1004
11FE
1104
FD04
25FC
2500
2540
497C
2940
1240
2A42
4642
843E
0800
0000
ENDCHAR

STARTCHAR a968
ENCODING 43368
SWIDTH 481 0
DWIDTH 16 0
BBX 16 15 0 -2
BITMAP
1020
1020
1024
13FE
FC20
2424
45FE
2504
1904
1104
2904
4504
81FC
0104
0000
ENDCHAR

STARTCHAR a969
ENCODING 43369
SWIDTH 481 0
DWIDTH 16 0
BBX 16 15 0 -2
BITMAP
1004
10FE
10A4
FC94
2484
2484
27FE
44A4
2894
1104
29FE
4404
8428
0010
0000
ENDCHAR

STARTCHAR a96a
ENCODING 43370
SWIDTH 481 0
DWIDTH 16 0
BBX 16 15 0 -2
BITMAP
1008
11FC
1108
1108
FD08
25F8
2508
2508
45F8
2908
1108
2908
4508
87FE
0000
ENDCHAR

STARTCHAR a96b
ENCODING 43371
SWIDTH 481 0
DWIDTH 16 0
BBX 16 15 0 -2
BITMAP
1004
11FE
1154
FD54
2554
2554
27FE
4554
2954
1154
2954
4554
810C
0004
0000
ENDCHAR

STARTCHAR a96c
ENCODING 43372
SWIDTH 481 0
DWIDTH 16 0
BBX 16 15 0 -2
BITMAP
1040
1040
1080
FC88
2504
27FE
2402
2400
49FC
2904
3904
4504
85FC
0104
0000
ENDCHAR

STARTCHAR a96d
ENCODING 43373
SWIDTH 481 0
DWIDTH 16 0
BBX 16 15 0 -2
BITMAP
1020
1120
1124
FDFE
2520
2620
2420
2420
45FC
2820
1020
2820
4424
87FE
0000
ENDCHAR

STARTCHAR a96e
ENCODING 43374
SWIDTH 481 0
DWIDTH 16 0
BBX 16 15 0 -2
BITMAP
1020
103C
11E0
FD20
2520
2520
25FE
2422
4462
286A
10A4
2920
4620
8020
0000
ENDCHAR

ENDFONT
